<svg xmlns="http://www.w3.org/2000/svg" xmlns:xlink="http://www.w3.org/1999/xlink" width="1920" zoomAndPan="magnify" viewBox="0 0 638.25 187.499998" height="320" preserveAspectRatio="xMidYMid meet" version="1.0"><defs><clipPath id="09b8f179cb"><path d="M 0.476562 0 L 637.027344 0 L 637.027344 187 L 0.476562 187 Z M 0.476562 0 " clip-rule="nonzero"/></clipPath><clipPath id="97469955a0"><path d="M 515 15 L 637.027344 15 L 637.027344 160 L 515 160 Z M 515 15 " clip-rule="nonzero"/></clipPath><clipPath id="0a3dd92b89"><path d="M 575.242188 -14.527344 L 689.140625 82.46875 L 594.085938 194.085938 L 480.1875 97.09375 Z M 575.242188 -14.527344 " clip-rule="nonzero"/></clipPath><clipPath id="c2c19357bf"><path d="M 575.242188 -14.527344 L 689.140625 82.46875 L 594.085938 194.085938 L 480.1875 97.09375 Z M 575.242188 -14.527344 " clip-rule="nonzero"/></clipPath><clipPath id="52b70a9482"><path d="M 575.242188 -14.527344 L 689.140625 82.46875 L 594.085938 194.085938 L 480.1875 97.09375 Z M 575.242188 -14.527344 " clip-rule="nonzero"/></clipPath><clipPath id="b6c698eec4"><path d="M 522 22 L 637.027344 22 L 637.027344 154 L 522 154 Z M 522 22 " clip-rule="nonzero"/></clipPath><clipPath id="76131d26d9"><path d="M 575.242188 -14.527344 L 689.140625 82.46875 L 594.085938 194.085938 L 480.1875 97.09375 Z M 575.242188 -14.527344 " clip-rule="nonzero"/></clipPath><clipPath id="b32be9c5ac"><path d="M 575.242188 -14.527344 L 689.140625 82.46875 L 594.085938 194.085938 L 480.1875 97.09375 Z M 575.242188 -14.527344 " clip-rule="nonzero"/></clipPath><clipPath id="8ec53115ca"><path d="M 575.242188 -14.527344 L 689.140625 82.46875 L 594.085938 194.085938 L 480.1875 97.09375 Z M 575.242188 -14.527344 " clip-rule="nonzero"/></clipPath><clipPath id="0ed062b613"><path d="M 550 26 L 588 26 L 588 78 L 550 78 Z M 550 26 " clip-rule="nonzero"/></clipPath><clipPath id="ffc39b893f"><path d="M 575.242188 -14.527344 L 689.140625 82.46875 L 594.085938 194.085938 L 480.1875 97.09375 Z M 575.242188 -14.527344 " clip-rule="nonzero"/></clipPath><clipPath id="7740421042"><path d="M 575.242188 -14.527344 L 689.140625 82.46875 L 594.085938 194.085938 L 480.1875 97.09375 Z M 575.242188 -14.527344 " clip-rule="nonzero"/></clipPath><clipPath id="f959052f86"><path d="M 575.242188 -14.527344 L 689.140625 82.46875 L 594.085938 194.085938 L 480.1875 97.09375 Z M 575.242188 -14.527344 " clip-rule="nonzero"/></clipPath><clipPath id="5cfc11f393"><path d="M 530 88 L 583 88 L 583 131 L 530 131 Z M 530 88 " clip-rule="nonzero"/></clipPath><clipPath id="c62c6b34b2"><path d="M 575.242188 -14.527344 L 689.140625 82.46875 L 594.085938 194.085938 L 480.1875 97.09375 Z M 575.242188 -14.527344 " clip-rule="nonzero"/></clipPath><clipPath id="8e594dab57"><path d="M 575.242188 -14.527344 L 689.140625 82.46875 L 594.085938 194.085938 L 480.1875 97.09375 Z M 575.242188 -14.527344 " clip-rule="nonzero"/></clipPath><clipPath id="9b1e6aceaa"><path d="M 575.242188 -14.527344 L 689.140625 82.46875 L 594.085938 194.085938 L 480.1875 97.09375 Z M 575.242188 -14.527344 " clip-rule="nonzero"/></clipPath><clipPath id="79bc831812"><path d="M 526 73 L 582 73 L 582 99 L 526 99 Z M 526 73 " clip-rule="nonzero"/></clipPath><clipPath id="1aac152dd3"><path d="M 575.242188 -14.527344 L 689.140625 82.46875 L 594.085938 194.085938 L 480.1875 97.09375 Z M 575.242188 -14.527344 " clip-rule="nonzero"/></clipPath><clipPath id="7a3f5366d7"><path d="M 575.242188 -14.527344 L 689.140625 82.46875 L 594.085938 194.085938 L 480.1875 97.09375 Z M 575.242188 -14.527344 " clip-rule="nonzero"/></clipPath><clipPath id="5d2defee12"><path d="M 575.242188 -14.527344 L 689.140625 82.46875 L 594.085938 194.085938 L 480.1875 97.09375 Z M 575.242188 -14.527344 " clip-rule="nonzero"/></clipPath><clipPath id="9a458943e1"><path d="M 588 28 L 626 28 L 626 79 L 588 79 Z M 588 28 " clip-rule="nonzero"/></clipPath><clipPath id="65d13dfa9f"><path d="M 575.242188 -14.527344 L 689.140625 82.46875 L 594.085938 194.085938 L 480.1875 97.09375 Z M 575.242188 -14.527344 " clip-rule="nonzero"/></clipPath><clipPath id="f7524c8029"><path d="M 575.242188 -14.527344 L 689.140625 82.46875 L 594.085938 194.085938 L 480.1875 97.09375 Z M 575.242188 -14.527344 " clip-rule="nonzero"/></clipPath><clipPath id="d952da6913"><path d="M 575.242188 -14.527344 L 689.140625 82.46875 L 594.085938 194.085938 L 480.1875 97.09375 Z M 575.242188 -14.527344 " clip-rule="nonzero"/></clipPath><clipPath id="7021513733"><path d="M 530 43 L 583 43 L 583 81 L 530 81 Z M 530 43 " clip-rule="nonzero"/></clipPath><clipPath id="ecd76292ba"><path d="M 575.242188 -14.527344 L 689.140625 82.46875 L 594.085938 194.085938 L 480.1875 97.09375 Z M 575.242188 -14.527344 " clip-rule="nonzero"/></clipPath><clipPath id="baf052c010"><path d="M 575.242188 -14.527344 L 689.140625 82.46875 L 594.085938 194.085938 L 480.1875 97.09375 Z M 575.242188 -14.527344 " clip-rule="nonzero"/></clipPath><clipPath id="4a6531fd43"><path d="M 575.242188 -14.527344 L 689.140625 82.46875 L 594.085938 194.085938 L 480.1875 97.09375 Z M 575.242188 -14.527344 " clip-rule="nonzero"/></clipPath><clipPath id="357d3a6158"><path d="M 590 90 L 623 90 L 623 146 L 590 146 Z M 590 90 " clip-rule="nonzero"/></clipPath><clipPath id="9f421e21b0"><path d="M 575.242188 -14.527344 L 689.140625 82.46875 L 594.085938 194.085938 L 480.1875 97.09375 Z M 575.242188 -14.527344 " clip-rule="nonzero"/></clipPath><clipPath id="d6c029f3d9"><path d="M 575.242188 -14.527344 L 689.140625 82.46875 L 594.085938 194.085938 L 480.1875 97.09375 Z M 575.242188 -14.527344 " clip-rule="nonzero"/></clipPath><clipPath id="d577da9813"><path d="M 575.242188 -14.527344 L 689.140625 82.46875 L 594.085938 194.085938 L 480.1875 97.09375 Z M 575.242188 -14.527344 " clip-rule="nonzero"/></clipPath><clipPath id="b618b126c4"><path d="M 555 90 L 588 90 L 588 147 L 555 147 Z M 555 90 " clip-rule="nonzero"/></clipPath><clipPath id="f80a38a3ed"><path d="M 575.242188 -14.527344 L 689.140625 82.46875 L 594.085938 194.085938 L 480.1875 97.09375 Z M 575.242188 -14.527344 " clip-rule="nonzero"/></clipPath><clipPath id="c5cc15763d"><path d="M 575.242188 -14.527344 L 689.140625 82.46875 L 594.085938 194.085938 L 480.1875 97.09375 Z M 575.242188 -14.527344 " clip-rule="nonzero"/></clipPath><clipPath id="f5a8db4b7a"><path d="M 575.242188 -14.527344 L 689.140625 82.46875 L 594.085938 194.085938 L 480.1875 97.09375 Z M 575.242188 -14.527344 " clip-rule="nonzero"/></clipPath><clipPath id="a657e6ebb1"><path d="M 594 85 L 637.027344 85 L 637.027344 126 L 594 126 Z M 594 85 " clip-rule="nonzero"/></clipPath><clipPath id="c24d7ea193"><path d="M 575.242188 -14.527344 L 689.140625 82.46875 L 594.085938 194.085938 L 480.1875 97.09375 Z M 575.242188 -14.527344 " clip-rule="nonzero"/></clipPath><clipPath id="ae2f150aad"><path d="M 575.242188 -14.527344 L 689.140625 82.46875 L 594.085938 194.085938 L 480.1875 97.09375 Z M 575.242188 -14.527344 " clip-rule="nonzero"/></clipPath><clipPath id="b2993ad01c"><path d="M 575.242188 -14.527344 L 689.140625 82.46875 L 594.085938 194.085938 L 480.1875 97.09375 Z M 575.242188 -14.527344 " clip-rule="nonzero"/></clipPath><clipPath id="6cfa6ef5fc"><path d="M 594 53 L 637.027344 53 L 637.027344 93 L 594 93 Z M 594 53 " clip-rule="nonzero"/></clipPath><clipPath id="9e57ef0561"><path d="M 575.242188 -14.527344 L 689.140625 82.46875 L 594.085938 194.085938 L 480.1875 97.09375 Z M 575.242188 -14.527344 " clip-rule="nonzero"/></clipPath><clipPath id="0dc13c8c19"><path d="M 575.242188 -14.527344 L 689.140625 82.46875 L 594.085938 194.085938 L 480.1875 97.09375 Z M 575.242188 -14.527344 " clip-rule="nonzero"/></clipPath><clipPath id="80af01c35d"><path d="M 575.242188 -14.527344 L 689.140625 82.46875 L 594.085938 194.085938 L 480.1875 97.09375 Z M 575.242188 -14.527344 " clip-rule="nonzero"/></clipPath><clipPath id="500a877565"><path d="M 555 40 L 567 40 L 567 51 L 555 51 Z M 555 40 " clip-rule="nonzero"/></clipPath><clipPath id="5912fa6003"><path d="M 575.242188 -14.527344 L 689.140625 82.46875 L 594.085938 194.085938 L 480.1875 97.09375 Z M 575.242188 -14.527344 " clip-rule="nonzero"/></clipPath><clipPath id="8491760638"><path d="M 575.242188 -14.527344 L 689.140625 82.46875 L 594.085938 194.085938 L 480.1875 97.09375 Z M 575.242188 -14.527344 " clip-rule="nonzero"/></clipPath><clipPath id="d7d278c372"><path d="M 575.242188 -14.527344 L 689.140625 82.46875 L 594.085938 194.085938 L 480.1875 97.09375 Z M 575.242188 -14.527344 " clip-rule="nonzero"/></clipPath><clipPath id="3275e61c0c"><path d="M 568 38 L 576 38 L 576 52 L 568 52 Z M 568 38 " clip-rule="nonzero"/></clipPath><clipPath id="e977e7a7a8"><path d="M 575.242188 -14.527344 L 689.140625 82.46875 L 594.085938 194.085938 L 480.1875 97.09375 Z M 575.242188 -14.527344 " clip-rule="nonzero"/></clipPath><clipPath id="1ef71b3d85"><path d="M 575.242188 -14.527344 L 689.140625 82.46875 L 594.085938 194.085938 L 480.1875 97.09375 Z M 575.242188 -14.527344 " clip-rule="nonzero"/></clipPath><clipPath id="743017a86a"><path d="M 575.242188 -14.527344 L 689.140625 82.46875 L 594.085938 194.085938 L 480.1875 97.09375 Z M 575.242188 -14.527344 " clip-rule="nonzero"/></clipPath><clipPath id="9886cfa82b"><path d="M 573 58 L 581 58 L 581 68 L 573 68 Z M 573 58 " clip-rule="nonzero"/></clipPath><clipPath id="bcb3fad426"><path d="M 575.242188 -14.527344 L 689.140625 82.46875 L 594.085938 194.085938 L 480.1875 97.09375 Z M 575.242188 -14.527344 " clip-rule="nonzero"/></clipPath><clipPath id="c854e75447"><path d="M 575.242188 -14.527344 L 689.140625 82.46875 L 594.085938 194.085938 L 480.1875 97.09375 Z M 575.242188 -14.527344 " clip-rule="nonzero"/></clipPath><clipPath id="b7a29a50da"><path d="M 575.242188 -14.527344 L 689.140625 82.46875 L 594.085938 194.085938 L 480.1875 97.09375 Z M 575.242188 -14.527344 " clip-rule="nonzero"/></clipPath><clipPath id="bc4c11b49c"><path d="M 579 49 L 584 49 L 584 61 L 579 61 Z M 579 49 " clip-rule="nonzero"/></clipPath><clipPath id="624f872444"><path d="M 575.242188 -14.527344 L 689.140625 82.46875 L 594.085938 194.085938 L 480.1875 97.09375 Z M 575.242188 -14.527344 " clip-rule="nonzero"/></clipPath><clipPath id="fae628342d"><path d="M 575.242188 -14.527344 L 689.140625 82.46875 L 594.085938 194.085938 L 480.1875 97.09375 Z M 575.242188 -14.527344 " clip-rule="nonzero"/></clipPath><clipPath id="a6b023b918"><path d="M 575.242188 -14.527344 L 689.140625 82.46875 L 594.085938 194.085938 L 480.1875 97.09375 Z M 575.242188 -14.527344 " clip-rule="nonzero"/></clipPath><clipPath id="49168fc58f"><path d="M 577 29 L 583 29 L 583 45 L 577 45 Z M 577 29 " clip-rule="nonzero"/></clipPath><clipPath id="32b4a501d6"><path d="M 575.242188 -14.527344 L 689.140625 82.46875 L 594.085938 194.085938 L 480.1875 97.09375 Z M 575.242188 -14.527344 " clip-rule="nonzero"/></clipPath><clipPath id="5bf0e6429c"><path d="M 575.242188 -14.527344 L 689.140625 82.46875 L 594.085938 194.085938 L 480.1875 97.09375 Z M 575.242188 -14.527344 " clip-rule="nonzero"/></clipPath><clipPath id="d99a61eb19"><path d="M 575.242188 -14.527344 L 689.140625 82.46875 L 594.085938 194.085938 L 480.1875 97.09375 Z M 575.242188 -14.527344 " clip-rule="nonzero"/></clipPath><clipPath id="e4c3bc91d5"><path d="M 593 36 L 598 36 L 598 51 L 593 51 Z M 593 36 " clip-rule="nonzero"/></clipPath><clipPath id="75e30c6939"><path d="M 575.242188 -14.527344 L 689.140625 82.46875 L 594.085938 194.085938 L 480.1875 97.09375 Z M 575.242188 -14.527344 " clip-rule="nonzero"/></clipPath><clipPath id="fc1b5e806c"><path d="M 575.242188 -14.527344 L 689.140625 82.46875 L 594.085938 194.085938 L 480.1875 97.09375 Z M 575.242188 -14.527344 " clip-rule="nonzero"/></clipPath><clipPath id="046074269e"><path d="M 575.242188 -14.527344 L 689.140625 82.46875 L 594.085938 194.085938 L 480.1875 97.09375 Z M 575.242188 -14.527344 " clip-rule="nonzero"/></clipPath><clipPath id="68b741b539"><path d="M 600 36 L 608 36 L 608 51 L 600 51 Z M 600 36 " clip-rule="nonzero"/></clipPath><clipPath id="9c4772f634"><path d="M 575.242188 -14.527344 L 689.140625 82.46875 L 594.085938 194.085938 L 480.1875 97.09375 Z M 575.242188 -14.527344 " clip-rule="nonzero"/></clipPath><clipPath id="aa9fdeae65"><path d="M 575.242188 -14.527344 L 689.140625 82.46875 L 594.085938 194.085938 L 480.1875 97.09375 Z M 575.242188 -14.527344 " clip-rule="nonzero"/></clipPath><clipPath id="6f6e999fd9"><path d="M 575.242188 -14.527344 L 689.140625 82.46875 L 594.085938 194.085938 L 480.1875 97.09375 Z M 575.242188 -14.527344 " clip-rule="nonzero"/></clipPath><clipPath id="673dd70eca"><path d="M 592 57 L 596 57 L 596 70 L 592 70 Z M 592 57 " clip-rule="nonzero"/></clipPath><clipPath id="7f739dd157"><path d="M 575.242188 -14.527344 L 689.140625 82.46875 L 594.085938 194.085938 L 480.1875 97.09375 Z M 575.242188 -14.527344 " clip-rule="nonzero"/></clipPath><clipPath id="37f99c7dc5"><path d="M 575.242188 -14.527344 L 689.140625 82.46875 L 594.085938 194.085938 L 480.1875 97.09375 Z M 575.242188 -14.527344 " clip-rule="nonzero"/></clipPath><clipPath id="dc9e3632ee"><path d="M 575.242188 -14.527344 L 689.140625 82.46875 L 594.085938 194.085938 L 480.1875 97.09375 Z M 575.242188 -14.527344 " clip-rule="nonzero"/></clipPath><clipPath id="99b08982ee"><path d="M 598 55 L 606 55 L 606 66 L 598 66 Z M 598 55 " clip-rule="nonzero"/></clipPath><clipPath id="417bc43f75"><path d="M 575.242188 -14.527344 L 689.140625 82.46875 L 594.085938 194.085938 L 480.1875 97.09375 Z M 575.242188 -14.527344 " clip-rule="nonzero"/></clipPath><clipPath id="ed238b5a30"><path d="M 575.242188 -14.527344 L 689.140625 82.46875 L 594.085938 194.085938 L 480.1875 97.09375 Z M 575.242188 -14.527344 " clip-rule="nonzero"/></clipPath><clipPath id="8da77108fb"><path d="M 575.242188 -14.527344 L 689.140625 82.46875 L 594.085938 194.085938 L 480.1875 97.09375 Z M 575.242188 -14.527344 " clip-rule="nonzero"/></clipPath><clipPath id="ad334f6ecd"><path d="M 609 52 L 620 52 L 620 60 L 609 60 Z M 609 52 " clip-rule="nonzero"/></clipPath><clipPath id="128f7bd30e"><path d="M 575.242188 -14.527344 L 689.140625 82.46875 L 594.085938 194.085938 L 480.1875 97.09375 Z M 575.242188 -14.527344 " clip-rule="nonzero"/></clipPath><clipPath id="1ce81106f0"><path d="M 575.242188 -14.527344 L 689.140625 82.46875 L 594.085938 194.085938 L 480.1875 97.09375 Z M 575.242188 -14.527344 " clip-rule="nonzero"/></clipPath><clipPath id="884d904ddd"><path d="M 575.242188 -14.527344 L 689.140625 82.46875 L 594.085938 194.085938 L 480.1875 97.09375 Z M 575.242188 -14.527344 " clip-rule="nonzero"/></clipPath><clipPath id="88d1d3bd28"><path d="M 608 40 L 619 40 L 619 53 L 608 53 Z M 608 40 " clip-rule="nonzero"/></clipPath><clipPath id="67326e8b69"><path d="M 575.242188 -14.527344 L 689.140625 82.46875 L 594.085938 194.085938 L 480.1875 97.09375 Z M 575.242188 -14.527344 " clip-rule="nonzero"/></clipPath><clipPath id="9fa1d081da"><path d="M 575.242188 -14.527344 L 689.140625 82.46875 L 594.085938 194.085938 L 480.1875 97.09375 Z M 575.242188 -14.527344 " clip-rule="nonzero"/></clipPath><clipPath id="e683db6017"><path d="M 575.242188 -14.527344 L 689.140625 82.46875 L 594.085938 194.085938 L 480.1875 97.09375 Z M 575.242188 -14.527344 " clip-rule="nonzero"/></clipPath><clipPath id="2b52bf8248"><path d="M 616 59 L 629 59 L 629 70 L 616 70 Z M 616 59 " clip-rule="nonzero"/></clipPath><clipPath id="6eb30695a9"><path d="M 575.242188 -14.527344 L 689.140625 82.46875 L 594.085938 194.085938 L 480.1875 97.09375 Z M 575.242188 -14.527344 " clip-rule="nonzero"/></clipPath><clipPath id="d5b8e929ab"><path d="M 575.242188 -14.527344 L 689.140625 82.46875 L 594.085938 194.085938 L 480.1875 97.09375 Z M 575.242188 -14.527344 " clip-rule="nonzero"/></clipPath><clipPath id="d53c269099"><path d="M 575.242188 -14.527344 L 689.140625 82.46875 L 594.085938 194.085938 L 480.1875 97.09375 Z M 575.242188 -14.527344 " clip-rule="nonzero"/></clipPath><clipPath id="a6f5042078"><path d="M 620 68 L 635 68 L 635 75 L 620 75 Z M 620 68 " clip-rule="nonzero"/></clipPath><clipPath id="94dceb11cc"><path d="M 575.242188 -14.527344 L 689.140625 82.46875 L 594.085938 194.085938 L 480.1875 97.09375 Z M 575.242188 -14.527344 " clip-rule="nonzero"/></clipPath><clipPath id="bd2a0b3aee"><path d="M 575.242188 -14.527344 L 689.140625 82.46875 L 594.085938 194.085938 L 480.1875 97.09375 Z M 575.242188 -14.527344 " clip-rule="nonzero"/></clipPath><clipPath id="72dc981902"><path d="M 575.242188 -14.527344 L 689.140625 82.46875 L 594.085938 194.085938 L 480.1875 97.09375 Z M 575.242188 -14.527344 " clip-rule="nonzero"/></clipPath><clipPath id="76f067d4b8"><path d="M 599 73 L 609 73 L 609 80 L 599 80 Z M 599 73 " clip-rule="nonzero"/></clipPath><clipPath id="04daa9e77d"><path d="M 575.242188 -14.527344 L 689.140625 82.46875 L 594.085938 194.085938 L 480.1875 97.09375 Z M 575.242188 -14.527344 " clip-rule="nonzero"/></clipPath><clipPath id="464a3c25d6"><path d="M 575.242188 -14.527344 L 689.140625 82.46875 L 594.085938 194.085938 L 480.1875 97.09375 Z M 575.242188 -14.527344 " clip-rule="nonzero"/></clipPath><clipPath id="72b5054107"><path d="M 575.242188 -14.527344 L 689.140625 82.46875 L 594.085938 194.085938 L 480.1875 97.09375 Z M 575.242188 -14.527344 " clip-rule="nonzero"/></clipPath><clipPath id="9fd7767478"><path d="M 609 76 L 621 76 L 621 81 L 609 81 Z M 609 76 " clip-rule="nonzero"/></clipPath><clipPath id="7f027f401e"><path d="M 575.242188 -14.527344 L 689.140625 82.46875 L 594.085938 194.085938 L 480.1875 97.09375 Z M 575.242188 -14.527344 " clip-rule="nonzero"/></clipPath><clipPath id="4c0b0d1ae9"><path d="M 575.242188 -14.527344 L 689.140625 82.46875 L 594.085938 194.085938 L 480.1875 97.09375 Z M 575.242188 -14.527344 " clip-rule="nonzero"/></clipPath><clipPath id="1e4a084f80"><path d="M 575.242188 -14.527344 L 689.140625 82.46875 L 594.085938 194.085938 L 480.1875 97.09375 Z M 575.242188 -14.527344 " clip-rule="nonzero"/></clipPath><clipPath id="875934d08d"><path d="M 619 81 L 631 81 L 631 87 L 619 87 Z M 619 81 " clip-rule="nonzero"/></clipPath><clipPath id="4a81efa5df"><path d="M 575.242188 -14.527344 L 689.140625 82.46875 L 594.085938 194.085938 L 480.1875 97.09375 Z M 575.242188 -14.527344 " clip-rule="nonzero"/></clipPath><clipPath id="f04bdd8616"><path d="M 575.242188 -14.527344 L 689.140625 82.46875 L 594.085938 194.085938 L 480.1875 97.09375 Z M 575.242188 -14.527344 " clip-rule="nonzero"/></clipPath><clipPath id="e02c137519"><path d="M 575.242188 -14.527344 L 689.140625 82.46875 L 594.085938 194.085938 L 480.1875 97.09375 Z M 575.242188 -14.527344 " clip-rule="nonzero"/></clipPath><clipPath id="c825273d3c"><path d="M 626 76 L 637.027344 76 L 637.027344 82 L 626 82 Z M 626 76 " clip-rule="nonzero"/></clipPath><clipPath id="0cf1703f6c"><path d="M 575.242188 -14.527344 L 689.140625 82.46875 L 594.085938 194.085938 L 480.1875 97.09375 Z M 575.242188 -14.527344 " clip-rule="nonzero"/></clipPath><clipPath id="2a6d76558b"><path d="M 575.242188 -14.527344 L 689.140625 82.46875 L 594.085938 194.085938 L 480.1875 97.09375 Z M 575.242188 -14.527344 " clip-rule="nonzero"/></clipPath><clipPath id="da52a116fc"><path d="M 575.242188 -14.527344 L 689.140625 82.46875 L 594.085938 194.085938 L 480.1875 97.09375 Z M 575.242188 -14.527344 " clip-rule="nonzero"/></clipPath><clipPath id="f4a5b0800d"><path d="M 620 95 L 635 95 L 635 101 L 620 101 Z M 620 95 " clip-rule="nonzero"/></clipPath><clipPath id="4e6b1e0a8f"><path d="M 575.242188 -14.527344 L 689.140625 82.46875 L 594.085938 194.085938 L 480.1875 97.09375 Z M 575.242188 -14.527344 " clip-rule="nonzero"/></clipPath><clipPath id="90d21500e2"><path d="M 575.242188 -14.527344 L 689.140625 82.46875 L 594.085938 194.085938 L 480.1875 97.09375 Z M 575.242188 -14.527344 " clip-rule="nonzero"/></clipPath><clipPath id="8366c75423"><path d="M 575.242188 -14.527344 L 689.140625 82.46875 L 594.085938 194.085938 L 480.1875 97.09375 Z M 575.242188 -14.527344 " clip-rule="nonzero"/></clipPath><clipPath id="bb66f42860"><path d="M 618 101 L 632 101 L 632 111 L 618 111 Z M 618 101 " clip-rule="nonzero"/></clipPath><clipPath id="bfff6db300"><path d="M 575.242188 -14.527344 L 689.140625 82.46875 L 594.085938 194.085938 L 480.1875 97.09375 Z M 575.242188 -14.527344 " clip-rule="nonzero"/></clipPath><clipPath id="8fa3a7dba8"><path d="M 575.242188 -14.527344 L 689.140625 82.46875 L 594.085938 194.085938 L 480.1875 97.09375 Z M 575.242188 -14.527344 " clip-rule="nonzero"/></clipPath><clipPath id="c9a34bbbba"><path d="M 575.242188 -14.527344 L 689.140625 82.46875 L 594.085938 194.085938 L 480.1875 97.09375 Z M 575.242188 -14.527344 " clip-rule="nonzero"/></clipPath><clipPath id="826f0052af"><path d="M 603 90 L 615 90 L 615 96 L 603 96 Z M 603 90 " clip-rule="nonzero"/></clipPath><clipPath id="1d9045964e"><path d="M 575.242188 -14.527344 L 689.140625 82.46875 L 594.085938 194.085938 L 480.1875 97.09375 Z M 575.242188 -14.527344 " clip-rule="nonzero"/></clipPath><clipPath id="1ad290fb7d"><path d="M 575.242188 -14.527344 L 689.140625 82.46875 L 594.085938 194.085938 L 480.1875 97.09375 Z M 575.242188 -14.527344 " clip-rule="nonzero"/></clipPath><clipPath id="57817029fe"><path d="M 575.242188 -14.527344 L 689.140625 82.46875 L 594.085938 194.085938 L 480.1875 97.09375 Z M 575.242188 -14.527344 " clip-rule="nonzero"/></clipPath><clipPath id="f489e8aac6"><path d="M 606 97 L 615 97 L 615 106 L 606 106 Z M 606 97 " clip-rule="nonzero"/></clipPath><clipPath id="e6de2344e1"><path d="M 575.242188 -14.527344 L 689.140625 82.46875 L 594.085938 194.085938 L 480.1875 97.09375 Z M 575.242188 -14.527344 " clip-rule="nonzero"/></clipPath><clipPath id="ed3515799f"><path d="M 575.242188 -14.527344 L 689.140625 82.46875 L 594.085938 194.085938 L 480.1875 97.09375 Z M 575.242188 -14.527344 " clip-rule="nonzero"/></clipPath><clipPath id="ca8856ca99"><path d="M 575.242188 -14.527344 L 689.140625 82.46875 L 594.085938 194.085938 L 480.1875 97.09375 Z M 575.242188 -14.527344 " clip-rule="nonzero"/></clipPath><clipPath id="5b3b164748"><path d="M 618 110 L 630 110 L 630 122 L 618 122 Z M 618 110 " clip-rule="nonzero"/></clipPath><clipPath id="839eeeeefe"><path d="M 575.242188 -14.527344 L 689.140625 82.46875 L 594.085938 194.085938 L 480.1875 97.09375 Z M 575.242188 -14.527344 " clip-rule="nonzero"/></clipPath><clipPath id="0d55bad4ab"><path d="M 575.242188 -14.527344 L 689.140625 82.46875 L 594.085938 194.085938 L 480.1875 97.09375 Z M 575.242188 -14.527344 " clip-rule="nonzero"/></clipPath><clipPath id="559a8ee2af"><path d="M 575.242188 -14.527344 L 689.140625 82.46875 L 594.085938 194.085938 L 480.1875 97.09375 Z M 575.242188 -14.527344 " clip-rule="nonzero"/></clipPath><clipPath id="79723ac33e"><path d="M 608 118 L 619 118 L 619 129 L 608 129 Z M 608 118 " clip-rule="nonzero"/></clipPath><clipPath id="f5c84e9d6f"><path d="M 575.242188 -14.527344 L 689.140625 82.46875 L 594.085938 194.085938 L 480.1875 97.09375 Z M 575.242188 -14.527344 " clip-rule="nonzero"/></clipPath><clipPath id="065fc1a746"><path d="M 575.242188 -14.527344 L 689.140625 82.46875 L 594.085938 194.085938 L 480.1875 97.09375 Z M 575.242188 -14.527344 " clip-rule="nonzero"/></clipPath><clipPath id="2a62a1bca8"><path d="M 575.242188 -14.527344 L 689.140625 82.46875 L 594.085938 194.085938 L 480.1875 97.09375 Z M 575.242188 -14.527344 " clip-rule="nonzero"/></clipPath><clipPath id="903897b1a3"><path d="M 600 115 L 608 115 L 608 129 L 600 129 Z M 600 115 " clip-rule="nonzero"/></clipPath><clipPath id="cf5a2725f1"><path d="M 575.242188 -14.527344 L 689.140625 82.46875 L 594.085938 194.085938 L 480.1875 97.09375 Z M 575.242188 -14.527344 " clip-rule="nonzero"/></clipPath><clipPath id="d3699cd06f"><path d="M 575.242188 -14.527344 L 689.140625 82.46875 L 594.085938 194.085938 L 480.1875 97.09375 Z M 575.242188 -14.527344 " clip-rule="nonzero"/></clipPath><clipPath id="12027c8fcf"><path d="M 575.242188 -14.527344 L 689.140625 82.46875 L 594.085938 194.085938 L 480.1875 97.09375 Z M 575.242188 -14.527344 " clip-rule="nonzero"/></clipPath><clipPath id="d3ca2613af"><path d="M 594 99 L 602 99 L 602 109 L 594 109 Z M 594 99 " clip-rule="nonzero"/></clipPath><clipPath id="c8dd93c9e2"><path d="M 575.242188 -14.527344 L 689.140625 82.46875 L 594.085938 194.085938 L 480.1875 97.09375 Z M 575.242188 -14.527344 " clip-rule="nonzero"/></clipPath><clipPath id="36e828ddd2"><path d="M 575.242188 -14.527344 L 689.140625 82.46875 L 594.085938 194.085938 L 480.1875 97.09375 Z M 575.242188 -14.527344 " clip-rule="nonzero"/></clipPath><clipPath id="6aeb369640"><path d="M 575.242188 -14.527344 L 689.140625 82.46875 L 594.085938 194.085938 L 480.1875 97.09375 Z M 575.242188 -14.527344 " clip-rule="nonzero"/></clipPath><clipPath id="ca4d73473d"><path d="M 592 105 L 597 105 L 597 118 L 592 118 Z M 592 105 " clip-rule="nonzero"/></clipPath><clipPath id="fd02695cbb"><path d="M 575.242188 -14.527344 L 689.140625 82.46875 L 594.085938 194.085938 L 480.1875 97.09375 Z M 575.242188 -14.527344 " clip-rule="nonzero"/></clipPath><clipPath id="cb430175ea"><path d="M 575.242188 -14.527344 L 689.140625 82.46875 L 594.085938 194.085938 L 480.1875 97.09375 Z M 575.242188 -14.527344 " clip-rule="nonzero"/></clipPath><clipPath id="7109c2cc54"><path d="M 575.242188 -14.527344 L 689.140625 82.46875 L 594.085938 194.085938 L 480.1875 97.09375 Z M 575.242188 -14.527344 " clip-rule="nonzero"/></clipPath><clipPath id="5160ee8dcd"><path d="M 601 130 L 608 130 L 608 142 L 601 142 Z M 601 130 " clip-rule="nonzero"/></clipPath><clipPath id="85f2425f26"><path d="M 575.242188 -14.527344 L 689.140625 82.46875 L 594.085938 194.085938 L 480.1875 97.09375 Z M 575.242188 -14.527344 " clip-rule="nonzero"/></clipPath><clipPath id="a734d60cfb"><path d="M 575.242188 -14.527344 L 689.140625 82.46875 L 594.085938 194.085938 L 480.1875 97.09375 Z M 575.242188 -14.527344 " clip-rule="nonzero"/></clipPath><clipPath id="be914c1381"><path d="M 575.242188 -14.527344 L 689.140625 82.46875 L 594.085938 194.085938 L 480.1875 97.09375 Z M 575.242188 -14.527344 " clip-rule="nonzero"/></clipPath><clipPath id="b99831e7fa"><path d="M 593 121 L 598 121 L 598 136 L 593 136 Z M 593 121 " clip-rule="nonzero"/></clipPath><clipPath id="901d05fcc5"><path d="M 575.242188 -14.527344 L 689.140625 82.46875 L 594.085938 194.085938 L 480.1875 97.09375 Z M 575.242188 -14.527344 " clip-rule="nonzero"/></clipPath><clipPath id="eaf4093cf1"><path d="M 575.242188 -14.527344 L 689.140625 82.46875 L 594.085938 194.085938 L 480.1875 97.09375 Z M 575.242188 -14.527344 " clip-rule="nonzero"/></clipPath><clipPath id="e53df5bee1"><path d="M 575.242188 -14.527344 L 689.140625 82.46875 L 594.085938 194.085938 L 480.1875 97.09375 Z M 575.242188 -14.527344 " clip-rule="nonzero"/></clipPath><clipPath id="d8d22d5ea9"><path d="M 579 125 L 585 125 L 585 141 L 579 141 Z M 579 125 " clip-rule="nonzero"/></clipPath><clipPath id="f73f73d1b9"><path d="M 575.242188 -14.527344 L 689.140625 82.46875 L 594.085938 194.085938 L 480.1875 97.09375 Z M 575.242188 -14.527344 " clip-rule="nonzero"/></clipPath><clipPath id="e06f24f1a6"><path d="M 575.242188 -14.527344 L 689.140625 82.46875 L 594.085938 194.085938 L 480.1875 97.09375 Z M 575.242188 -14.527344 " clip-rule="nonzero"/></clipPath><clipPath id="6e207dc909"><path d="M 575.242188 -14.527344 L 689.140625 82.46875 L 594.085938 194.085938 L 480.1875 97.09375 Z M 575.242188 -14.527344 " clip-rule="nonzero"/></clipPath><clipPath id="50385978dd"><path d="M 573 116 L 580 116 L 580 131 L 573 131 Z M 573 116 " clip-rule="nonzero"/></clipPath><clipPath id="5a29321f1e"><path d="M 575.242188 -14.527344 L 689.140625 82.46875 L 594.085938 194.085938 L 480.1875 97.09375 Z M 575.242188 -14.527344 " clip-rule="nonzero"/></clipPath><clipPath id="fb41628b6f"><path d="M 575.242188 -14.527344 L 689.140625 82.46875 L 594.085938 194.085938 L 480.1875 97.09375 Z M 575.242188 -14.527344 " clip-rule="nonzero"/></clipPath><clipPath id="ea0d4e1df6"><path d="M 575.242188 -14.527344 L 689.140625 82.46875 L 594.085938 194.085938 L 480.1875 97.09375 Z M 575.242188 -14.527344 " clip-rule="nonzero"/></clipPath><clipPath id="edb5eac087"><path d="M 580 102 L 585 102 L 585 115 L 580 115 Z M 580 102 " clip-rule="nonzero"/></clipPath><clipPath id="34f2dd5503"><path d="M 575.242188 -14.527344 L 689.140625 82.46875 L 594.085938 194.085938 L 480.1875 97.09375 Z M 575.242188 -14.527344 " clip-rule="nonzero"/></clipPath><clipPath id="83bfcddd52"><path d="M 575.242188 -14.527344 L 689.140625 82.46875 L 594.085938 194.085938 L 480.1875 97.09375 Z M 575.242188 -14.527344 " clip-rule="nonzero"/></clipPath><clipPath id="095e6dba66"><path d="M 575.242188 -14.527344 L 689.140625 82.46875 L 594.085938 194.085938 L 480.1875 97.09375 Z M 575.242188 -14.527344 " clip-rule="nonzero"/></clipPath><clipPath id="0083d5655a"><path d="M 572 105 L 579 105 L 579 116 L 572 116 Z M 572 105 " clip-rule="nonzero"/></clipPath><clipPath id="0998024f3d"><path d="M 575.242188 -14.527344 L 689.140625 82.46875 L 594.085938 194.085938 L 480.1875 97.09375 Z M 575.242188 -14.527344 " clip-rule="nonzero"/></clipPath><clipPath id="d50c794d79"><path d="M 575.242188 -14.527344 L 689.140625 82.46875 L 594.085938 194.085938 L 480.1875 97.09375 Z M 575.242188 -14.527344 " clip-rule="nonzero"/></clipPath><clipPath id="ecd3f9dcf8"><path d="M 575.242188 -14.527344 L 689.140625 82.46875 L 594.085938 194.085938 L 480.1875 97.09375 Z M 575.242188 -14.527344 " clip-rule="nonzero"/></clipPath><clipPath id="b824c45bbe"><path d="M 563 129 L 571 129 L 571 140 L 563 140 Z M 563 129 " clip-rule="nonzero"/></clipPath><clipPath id="9ebe8e8d7b"><path d="M 575.242188 -14.527344 L 689.140625 82.46875 L 594.085938 194.085938 L 480.1875 97.09375 Z M 575.242188 -14.527344 " clip-rule="nonzero"/></clipPath><clipPath id="b8a09ebb00"><path d="M 575.242188 -14.527344 L 689.140625 82.46875 L 594.085938 194.085938 L 480.1875 97.09375 Z M 575.242188 -14.527344 " clip-rule="nonzero"/></clipPath><clipPath id="22d92d1297"><path d="M 575.242188 -14.527344 L 689.140625 82.46875 L 594.085938 194.085938 L 480.1875 97.09375 Z M 575.242188 -14.527344 " clip-rule="nonzero"/></clipPath><clipPath id="4feb89704d"><path d="M 559 120 L 568 120 L 568 134 L 559 134 Z M 559 120 " clip-rule="nonzero"/></clipPath><clipPath id="e0966ee7f4"><path d="M 575.242188 -14.527344 L 689.140625 82.46875 L 594.085938 194.085938 L 480.1875 97.09375 Z M 575.242188 -14.527344 " clip-rule="nonzero"/></clipPath><clipPath id="e6241eba42"><path d="M 575.242188 -14.527344 L 689.140625 82.46875 L 594.085938 194.085938 L 480.1875 97.09375 Z M 575.242188 -14.527344 " clip-rule="nonzero"/></clipPath><clipPath id="3c4629a8bc"><path d="M 575.242188 -14.527344 L 689.140625 82.46875 L 594.085938 194.085938 L 480.1875 97.09375 Z M 575.242188 -14.527344 " clip-rule="nonzero"/></clipPath><clipPath id="49487882ba"><path d="M 553 110 L 562 110 L 562 124 L 553 124 Z M 553 110 " clip-rule="nonzero"/></clipPath><clipPath id="1f8980e3f6"><path d="M 575.242188 -14.527344 L 689.140625 82.46875 L 594.085938 194.085938 L 480.1875 97.09375 Z M 575.242188 -14.527344 " clip-rule="nonzero"/></clipPath><clipPath id="de57d8b003"><path d="M 575.242188 -14.527344 L 689.140625 82.46875 L 594.085938 194.085938 L 480.1875 97.09375 Z M 575.242188 -14.527344 " clip-rule="nonzero"/></clipPath><clipPath id="1d3f223e12"><path d="M 575.242188 -14.527344 L 689.140625 82.46875 L 594.085938 194.085938 L 480.1875 97.09375 Z M 575.242188 -14.527344 " clip-rule="nonzero"/></clipPath><clipPath id="7ce4584210"><path d="M 550 102 L 563 102 L 563 112 L 550 112 Z M 550 102 " clip-rule="nonzero"/></clipPath><clipPath id="2d77800d15"><path d="M 575.242188 -14.527344 L 689.140625 82.46875 L 594.085938 194.085938 L 480.1875 97.09375 Z M 575.242188 -14.527344 " clip-rule="nonzero"/></clipPath><clipPath id="c50a65e0c4"><path d="M 575.242188 -14.527344 L 689.140625 82.46875 L 594.085938 194.085938 L 480.1875 97.09375 Z M 575.242188 -14.527344 " clip-rule="nonzero"/></clipPath><clipPath id="79ebf6e49b"><path d="M 575.242188 -14.527344 L 689.140625 82.46875 L 594.085938 194.085938 L 480.1875 97.09375 Z M 575.242188 -14.527344 " clip-rule="nonzero"/></clipPath><clipPath id="8341cb28aa"><path d="M 567 95 L 575 95 L 575 105 L 567 105 Z M 567 95 " clip-rule="nonzero"/></clipPath><clipPath id="6afadb90d1"><path d="M 575.242188 -14.527344 L 689.140625 82.46875 L 594.085938 194.085938 L 480.1875 97.09375 Z M 575.242188 -14.527344 " clip-rule="nonzero"/></clipPath><clipPath id="0cb4d2eaaf"><path d="M 575.242188 -14.527344 L 689.140625 82.46875 L 594.085938 194.085938 L 480.1875 97.09375 Z M 575.242188 -14.527344 " clip-rule="nonzero"/></clipPath><clipPath id="c3146b84fe"><path d="M 575.242188 -14.527344 L 689.140625 82.46875 L 594.085938 194.085938 L 480.1875 97.09375 Z M 575.242188 -14.527344 " clip-rule="nonzero"/></clipPath><clipPath id="2fe5d7c935"><path d="M 543 116 L 552 116 L 552 127 L 543 127 Z M 543 116 " clip-rule="nonzero"/></clipPath><clipPath id="ad8479b174"><path d="M 575.242188 -14.527344 L 689.140625 82.46875 L 594.085938 194.085938 L 480.1875 97.09375 Z M 575.242188 -14.527344 " clip-rule="nonzero"/></clipPath><clipPath id="011404e82b"><path d="M 575.242188 -14.527344 L 689.140625 82.46875 L 594.085938 194.085938 L 480.1875 97.09375 Z M 575.242188 -14.527344 " clip-rule="nonzero"/></clipPath><clipPath id="40ca0694ce"><path d="M 575.242188 -14.527344 L 689.140625 82.46875 L 594.085938 194.085938 L 480.1875 97.09375 Z M 575.242188 -14.527344 " clip-rule="nonzero"/></clipPath><clipPath id="cec8203dd2"><path d="M 556 94 L 568 94 L 568 100 L 556 100 Z M 556 94 " clip-rule="nonzero"/></clipPath><clipPath id="e5798f453f"><path d="M 575.242188 -14.527344 L 689.140625 82.46875 L 594.085938 194.085938 L 480.1875 97.09375 Z M 575.242188 -14.527344 " clip-rule="nonzero"/></clipPath><clipPath id="cfee1a65c5"><path d="M 575.242188 -14.527344 L 689.140625 82.46875 L 594.085938 194.085938 L 480.1875 97.09375 Z M 575.242188 -14.527344 " clip-rule="nonzero"/></clipPath><clipPath id="7df39bcb67"><path d="M 575.242188 -14.527344 L 689.140625 82.46875 L 594.085938 194.085938 L 480.1875 97.09375 Z M 575.242188 -14.527344 " clip-rule="nonzero"/></clipPath><clipPath id="2d6e8c611f"><path d="M 535 108 L 547 108 L 547 114 L 535 114 Z M 535 108 " clip-rule="nonzero"/></clipPath><clipPath id="0491ce0451"><path d="M 575.242188 -14.527344 L 689.140625 82.46875 L 594.085938 194.085938 L 480.1875 97.09375 Z M 575.242188 -14.527344 " clip-rule="nonzero"/></clipPath><clipPath id="c1445c1b36"><path d="M 575.242188 -14.527344 L 689.140625 82.46875 L 594.085938 194.085938 L 480.1875 97.09375 Z M 575.242188 -14.527344 " clip-rule="nonzero"/></clipPath><clipPath id="4faef47836"><path d="M 575.242188 -14.527344 L 689.140625 82.46875 L 594.085938 194.085938 L 480.1875 97.09375 Z M 575.242188 -14.527344 " clip-rule="nonzero"/></clipPath><clipPath id="9aed7e9aad"><path d="M 538 99 L 553 99 L 553 107 L 538 107 Z M 538 99 " clip-rule="nonzero"/></clipPath><clipPath id="984988895d"><path d="M 575.242188 -14.527344 L 689.140625 82.46875 L 594.085938 194.085938 L 480.1875 97.09375 Z M 575.242188 -14.527344 " clip-rule="nonzero"/></clipPath><clipPath id="bec515448f"><path d="M 575.242188 -14.527344 L 689.140625 82.46875 L 594.085938 194.085938 L 480.1875 97.09375 Z M 575.242188 -14.527344 " clip-rule="nonzero"/></clipPath><clipPath id="277707afc4"><path d="M 575.242188 -14.527344 L 689.140625 82.46875 L 594.085938 194.085938 L 480.1875 97.09375 Z M 575.242188 -14.527344 " clip-rule="nonzero"/></clipPath><clipPath id="f6a381e285"><path d="M 542 86 L 557 86 L 557 92 L 542 92 Z M 542 86 " clip-rule="nonzero"/></clipPath><clipPath id="3f4edf685d"><path d="M 575.242188 -14.527344 L 689.140625 82.46875 L 594.085938 194.085938 L 480.1875 97.09375 Z M 575.242188 -14.527344 " clip-rule="nonzero"/></clipPath><clipPath id="dca50a6daa"><path d="M 575.242188 -14.527344 L 689.140625 82.46875 L 594.085938 194.085938 L 480.1875 97.09375 Z M 575.242188 -14.527344 " clip-rule="nonzero"/></clipPath><clipPath id="a4f0cc4393"><path d="M 575.242188 -14.527344 L 689.140625 82.46875 L 594.085938 194.085938 L 480.1875 97.09375 Z M 575.242188 -14.527344 " clip-rule="nonzero"/></clipPath><clipPath id="08741080a6"><path d="M 555 81 L 568 81 L 568 86 L 555 86 Z M 555 81 " clip-rule="nonzero"/></clipPath><clipPath id="01eb978c12"><path d="M 575.242188 -14.527344 L 689.140625 82.46875 L 594.085938 194.085938 L 480.1875 97.09375 Z M 575.242188 -14.527344 " clip-rule="nonzero"/></clipPath><clipPath id="d9ad2fa0aa"><path d="M 575.242188 -14.527344 L 689.140625 82.46875 L 594.085938 194.085938 L 480.1875 97.09375 Z M 575.242188 -14.527344 " clip-rule="nonzero"/></clipPath><clipPath id="3b3385ffd6"><path d="M 575.242188 -14.527344 L 689.140625 82.46875 L 594.085938 194.085938 L 480.1875 97.09375 Z M 575.242188 -14.527344 " clip-rule="nonzero"/></clipPath><clipPath id="938190f68e"><path d="M 529 84 L 542 84 L 542 88 L 529 88 Z M 529 84 " clip-rule="nonzero"/></clipPath><clipPath id="b68417ae6b"><path d="M 575.242188 -14.527344 L 689.140625 82.46875 L 594.085938 194.085938 L 480.1875 97.09375 Z M 575.242188 -14.527344 " clip-rule="nonzero"/></clipPath><clipPath id="88f53f7065"><path d="M 575.242188 -14.527344 L 689.140625 82.46875 L 594.085938 194.085938 L 480.1875 97.09375 Z M 575.242188 -14.527344 " clip-rule="nonzero"/></clipPath><clipPath id="c2905e45ee"><path d="M 575.242188 -14.527344 L 689.140625 82.46875 L 594.085938 194.085938 L 480.1875 97.09375 Z M 575.242188 -14.527344 " clip-rule="nonzero"/></clipPath><clipPath id="01c98bb224"><path d="M 533 77 L 548 77 L 548 82 L 533 82 Z M 533 77 " clip-rule="nonzero"/></clipPath><clipPath id="d6b29c6852"><path d="M 575.242188 -14.527344 L 689.140625 82.46875 L 594.085938 194.085938 L 480.1875 97.09375 Z M 575.242188 -14.527344 " clip-rule="nonzero"/></clipPath><clipPath id="64b89efe99"><path d="M 575.242188 -14.527344 L 689.140625 82.46875 L 594.085938 194.085938 L 480.1875 97.09375 Z M 575.242188 -14.527344 " clip-rule="nonzero"/></clipPath><clipPath id="60811c9b90"><path d="M 575.242188 -14.527344 L 689.140625 82.46875 L 594.085938 194.085938 L 480.1875 97.09375 Z M 575.242188 -14.527344 " clip-rule="nonzero"/></clipPath><clipPath id="b824d20497"><path d="M 547 60 L 561 60 L 561 69 L 547 69 Z M 547 60 " clip-rule="nonzero"/></clipPath><clipPath id="015092fdab"><path d="M 575.242188 -14.527344 L 689.140625 82.46875 L 594.085938 194.085938 L 480.1875 97.09375 Z M 575.242188 -14.527344 " clip-rule="nonzero"/></clipPath><clipPath id="76e8aa4a2e"><path d="M 575.242188 -14.527344 L 689.140625 82.46875 L 594.085938 194.085938 L 480.1875 97.09375 Z M 575.242188 -14.527344 " clip-rule="nonzero"/></clipPath><clipPath id="de84b6396d"><path d="M 575.242188 -14.527344 L 689.140625 82.46875 L 594.085938 194.085938 L 480.1875 97.09375 Z M 575.242188 -14.527344 " clip-rule="nonzero"/></clipPath><clipPath id="23911c404e"><path d="M 563 67 L 573 67 L 573 76 L 563 76 Z M 563 67 " clip-rule="nonzero"/></clipPath><clipPath id="4b80a98ea4"><path d="M 575.242188 -14.527344 L 689.140625 82.46875 L 594.085938 194.085938 L 480.1875 97.09375 Z M 575.242188 -14.527344 " clip-rule="nonzero"/></clipPath><clipPath id="ebb8260c81"><path d="M 575.242188 -14.527344 L 689.140625 82.46875 L 594.085938 194.085938 L 480.1875 97.09375 Z M 575.242188 -14.527344 " clip-rule="nonzero"/></clipPath><clipPath id="27c815bf73"><path d="M 575.242188 -14.527344 L 689.140625 82.46875 L 594.085938 194.085938 L 480.1875 97.09375 Z M 575.242188 -14.527344 " clip-rule="nonzero"/></clipPath><clipPath id="c931382df0"><path d="M 544 49 L 557 49 L 557 60 L 544 60 Z M 544 49 " clip-rule="nonzero"/></clipPath><clipPath id="beb088efa6"><path d="M 575.242188 -14.527344 L 689.140625 82.46875 L 594.085938 194.085938 L 480.1875 97.09375 Z M 575.242188 -14.527344 " clip-rule="nonzero"/></clipPath><clipPath id="dc96436912"><path d="M 575.242188 -14.527344 L 689.140625 82.46875 L 594.085938 194.085938 L 480.1875 97.09375 Z M 575.242188 -14.527344 " clip-rule="nonzero"/></clipPath><clipPath id="7eb1bb181c"><path d="M 575.242188 -14.527344 L 689.140625 82.46875 L 594.085938 194.085938 L 480.1875 97.09375 Z M 575.242188 -14.527344 " clip-rule="nonzero"/></clipPath><clipPath id="ff38371942"><path d="M 536 63 L 550 63 L 550 71 L 536 71 Z M 536 63 " clip-rule="nonzero"/></clipPath><clipPath id="ac045bebeb"><path d="M 575.242188 -14.527344 L 689.140625 82.46875 L 594.085938 194.085938 L 480.1875 97.09375 Z M 575.242188 -14.527344 " clip-rule="nonzero"/></clipPath><clipPath id="283eb151a6"><path d="M 575.242188 -14.527344 L 689.140625 82.46875 L 594.085938 194.085938 L 480.1875 97.09375 Z M 575.242188 -14.527344 " clip-rule="nonzero"/></clipPath><clipPath id="f28c07f98c"><path d="M 575.242188 -14.527344 L 689.140625 82.46875 L 594.085938 194.085938 L 480.1875 97.09375 Z M 575.242188 -14.527344 " clip-rule="nonzero"/></clipPath></defs><g clip-path="url(#09b8f179cb)"><path fill="#ffffff" d="M 0.476562 0 L 1436.644531 0 L 1436.644531 239.363281 L 0.476562 239.363281 Z M 0.476562 0 " fill-opacity="1" fill-rule="nonzero"/><path fill="#cb6ce6" d="M 0.476562 0 L 1436.644531 0 L 1436.644531 239.363281 L 0.476562 239.363281 Z M 0.476562 0 " fill-opacity="1" fill-rule="nonzero"/></g><g clip-path="url(#97469955a0)"><g clip-path="url(#0a3dd92b89)"><g clip-path="url(#c2c19357bf)"><g clip-path="url(#52b70a9482)"><path fill="#f2c91d" d="M 613.511719 21.628906 C 621.460938 25.539062 628.820312 31.128906 635.230469 38.007812 C 643.027344 46.363281 649.625 55.945312 653.804688 66.578125 C 666.933594 100.003906 641.71875 138.128906 612.261719 153.429688 C 607.714844 155.769531 601.234375 158.902344 592.183594 159.722656 C 558.230469 162.777344 518.605469 129.785156 515.859375 90.898438 C 514.382812 70.039062 524.003906 54.421875 527.257812 49.304688 C 528.421875 47.476562 548.820312 16.488281 583.773438 15.402344 C 598.453125 14.945312 609.96875 19.882812 613.511719 21.628906 Z M 613.511719 21.628906 " fill-opacity="1" fill-rule="nonzero"/></g></g></g></g><g clip-path="url(#b6c698eec4)"><g clip-path="url(#76131d26d9)"><g clip-path="url(#b32be9c5ac)"><g clip-path="url(#8ec53115ca)"><path fill="#f0efeb" d="M 650.328125 81.144531 C 649.03125 67.261719 642.328125 54.371094 632.058594 45.011719 C 616.832031 31.132812 599.558594 20.242188 578.089844 22.601562 C 553.605469 25.292969 534.886719 44.585938 527.125 63.515625 C 523.894531 71.378906 522.308594 79.558594 522.363281 88.058594 C 522.585938 106.195312 531.257812 122.652344 544.5625 134.898438 C 557.898438 147.175781 575.792969 155.425781 594.140625 152.394531 C 625.210938 147.261719 653.269531 112.628906 650.328125 81.144531 Z M 650.328125 81.144531 " fill-opacity="1" fill-rule="nonzero"/></g></g></g></g><g clip-path="url(#0ed062b613)"><g clip-path="url(#ffc39b893f)"><g clip-path="url(#7740421042)"><g clip-path="url(#f959052f86)"><path fill="#f2ad11" d="M 587.117188 32.046875 C 587.121094 31.6875 587.085938 31.328125 587.019531 30.976562 C 586.949219 30.625 586.847656 30.28125 586.710938 29.945312 C 586.574219 29.613281 586.40625 29.296875 586.207031 28.996094 C 586.007812 28.699219 585.78125 28.421875 585.527344 28.164062 C 585.273438 27.910156 584.996094 27.683594 584.695312 27.484375 C 584.398438 27.285156 584.082031 27.113281 583.75 26.976562 C 583.417969 26.839844 583.074219 26.738281 582.71875 26.667969 C 582.367188 26.597656 582.011719 26.566406 581.652344 26.566406 C 575.734375 26.570312 569.832031 27.617188 564.175781 29.964844 C 560.0625 31.691406 556.242188 33.914062 552.710938 36.636719 C 552.40625 36.867188 552.125 37.128906 551.875 37.421875 C 551.625 37.710938 551.40625 38.027344 551.222656 38.363281 C 551.039062 38.703125 550.894531 39.054688 550.785156 39.421875 C 550.675781 39.792969 550.609375 40.167969 550.578125 40.550781 C 550.550781 40.933594 550.5625 41.316406 550.613281 41.699219 C 550.667969 42.078125 550.757812 42.449219 550.890625 42.8125 C 551.019531 43.171875 551.1875 43.515625 551.394531 43.84375 C 551.597656 44.167969 551.835938 44.46875 552.101562 44.746094 C 561.105469 53.992188 580.71875 74.097656 583.726562 76.777344 C 584.375 77.351562 585.316406 78.066406 586.003906 77.78125 C 587.007812 77.367188 586.933594 75.058594 586.914062 74.363281 C 586.824219 70.679688 586.929688 54.625 587.117188 32.046875 Z M 587.117188 32.046875 " fill-opacity="1" fill-rule="nonzero"/></g></g></g></g><g clip-path="url(#5cfc11f393)"><g clip-path="url(#c62c6b34b2)"><g clip-path="url(#8e594dab57)"><g clip-path="url(#9b1e6aceaa)"><path fill="#f2ad11" d="M 580.347656 88.808594 C 577.742188 89.589844 560.519531 94.410156 535.875 101.273438 C 535.34375 101.421875 534.835938 101.628906 534.351562 101.890625 C 533.867188 102.152344 533.414062 102.460938 533 102.824219 C 532.582031 103.1875 532.210938 103.589844 531.886719 104.035156 C 531.5625 104.476562 531.289062 104.953125 531.066406 105.457031 C 530.847656 105.964844 530.6875 106.488281 530.582031 107.03125 C 530.480469 107.570312 530.4375 108.117188 530.453125 108.667969 C 530.472656 109.21875 530.550781 109.761719 530.691406 110.296875 C 530.832031 110.828125 531.027344 111.34375 531.28125 111.832031 C 534.480469 118.023438 538.679688 123.445312 543.878906 128.09375 C 544.261719 128.4375 544.671875 128.738281 545.117188 128.996094 C 545.558594 129.253906 546.023438 129.464844 546.511719 129.625 C 546.996094 129.789062 547.496094 129.898438 548.003906 129.957031 C 548.511719 130.015625 549.023438 130.023438 549.535156 129.976562 C 550.042969 129.929688 550.542969 129.832031 551.035156 129.683594 C 551.523438 129.535156 551.992188 129.335938 552.441406 129.089844 C 552.890625 128.839844 553.3125 128.550781 553.699219 128.21875 C 554.089844 127.886719 554.441406 127.515625 554.753906 127.109375 C 564.160156 114.847656 580.445312 93.554688 582.191406 90.824219 C 582.449219 90.417969 583.179688 89.277344 582.792969 88.753906 C 582.375 88.1875 580.820312 88.667969 580.347656 88.808594 Z M 580.347656 88.808594 " fill-opacity="1" fill-rule="nonzero"/></g></g></g></g><g clip-path="url(#79bc831812)"><g clip-path="url(#1aac152dd3)"><g clip-path="url(#7a3f5366d7)"><g clip-path="url(#5d2defee12)"><path fill="#f2ad11" d="M 579.324219 83.449219 C 575.9375 82.0625 550.238281 76.738281 533.550781 73.34375 C 533.222656 73.277344 532.890625 73.242188 532.554688 73.242188 C 532.21875 73.238281 531.882812 73.269531 531.554688 73.332031 C 531.222656 73.394531 530.902344 73.488281 530.589844 73.613281 C 530.277344 73.738281 529.980469 73.894531 529.699219 74.078125 C 529.417969 74.261719 529.15625 74.46875 528.917969 74.707031 C 528.675781 74.941406 528.460938 75.195312 528.269531 75.472656 C 528.078125 75.75 527.917969 76.042969 527.785156 76.351562 C 527.652344 76.660156 527.546875 76.976562 527.476562 77.304688 C 526.28125 82.742188 525.847656 88.242188 526.175781 93.800781 C 526.203125 94.183594 526.269531 94.558594 526.378906 94.925781 C 526.488281 95.296875 526.636719 95.648438 526.824219 95.984375 C 527.007812 96.316406 527.230469 96.628906 527.488281 96.914062 C 527.746094 97.199219 528.027344 97.453125 528.339844 97.675781 C 528.65625 97.898438 528.988281 98.085938 529.34375 98.234375 C 529.695312 98.382812 530.0625 98.488281 530.441406 98.554688 C 530.820312 98.621094 531.199219 98.648438 531.582031 98.628906 C 531.964844 98.609375 532.34375 98.550781 532.714844 98.449219 C 558.289062 91.394531 575.355469 86.757812 578.539062 86.078125 C 579.070312 85.964844 581.09375 85.554688 581.136719 84.828125 C 581.179688 84.210938 579.816406 83.652344 579.324219 83.449219 Z M 579.324219 83.449219 " fill-opacity="1" fill-rule="nonzero"/></g></g></g></g><g clip-path="url(#9a458943e1)"><g clip-path="url(#65d13dfa9f)"><g clip-path="url(#f7524c8029)"><g clip-path="url(#d952da6913)"><path fill="#f2ad11" d="M 623.4375 52.945312 C 623.808594 52.660156 624.144531 52.332031 624.445312 51.972656 C 624.746094 51.609375 625 51.21875 625.214844 50.800781 C 625.425781 50.378906 625.59375 49.941406 625.707031 49.484375 C 625.824219 49.03125 625.886719 48.566406 625.898438 48.097656 C 625.914062 47.625 625.875 47.160156 625.785156 46.699219 C 625.691406 46.238281 625.550781 45.789062 625.363281 45.359375 C 625.171875 44.929688 624.9375 44.523438 624.65625 44.144531 C 624.378906 43.765625 624.058594 43.425781 623.703125 43.117188 C 620.246094 40.148438 616.53125 37.542969 612.5625 35.304688 C 608.15625 32.800781 603.53125 30.789062 598.695312 29.269531 C 598.230469 29.125 597.753906 29.039062 597.265625 29.003906 C 596.777344 28.972656 596.292969 28.996094 595.8125 29.074219 C 595.332031 29.152344 594.867188 29.285156 594.414062 29.46875 C 593.964844 29.65625 593.539062 29.890625 593.140625 30.171875 C 592.746094 30.453125 592.386719 30.777344 592.0625 31.144531 C 591.738281 31.511719 591.464844 31.90625 591.230469 32.335938 C 591 32.765625 590.820312 33.21875 590.695312 33.6875 C 590.566406 34.160156 590.496094 34.636719 590.476562 35.125 C 590.015625 47.730469 589.5625 57.195312 589.171875 64.367188 C 588.929688 68.847656 588.441406 77.476562 591.050781 78.285156 C 592.242188 78.648438 593.636719 77.269531 594.132812 76.78125 C 598.074219 72.9375 608.390625 64.636719 623.4375 52.945312 Z M 623.4375 52.945312 " fill-opacity="1" fill-rule="nonzero"/></g></g></g></g><g clip-path="url(#7021513733)"><g clip-path="url(#ecd76292ba)"><g clip-path="url(#baf052c010)"><g clip-path="url(#4a6531fd43)"><path fill="#f2ad11" d="M 581.332031 78.683594 C 572.121094 67.683594 555.941406 52.644531 555.941406 52.644531 C 548.867188 46.070312 546.910156 43.136719 543.777344 43.757812 C 541.570312 44.191406 539.472656 47.65625 535.367188 54.570312 C 530 63.613281 530.125 65.230469 530.558594 66.324219 C 531.214844 67.972656 532.820312 69.054688 540.472656 71.4375 C 546.96875 73.460938 549.738281 73.902344 554.484375 75.171875 C 554.484375 75.171875 569.902344 79.296875 580.4375 80.632812 C 580.878906 80.691406 581.828125 80.789062 582.066406 80.359375 C 582.332031 79.898438 581.644531 79.050781 581.332031 78.683594 Z M 581.332031 78.683594 " fill-opacity="1" fill-rule="nonzero"/></g></g></g></g><g clip-path="url(#357d3a6158)"><g clip-path="url(#9f421e21b0)"><g clip-path="url(#d6c029f3d9)"><g clip-path="url(#d577da9813)"><path fill="#f2ad11" d="M 590.46875 93.363281 C 590.339844 99.90625 590.246094 106.507812 590.191406 113.171875 C 590.117188 121.953125 590.109375 130.636719 590.171875 139.222656 C 590.175781 139.714844 590.230469 140.199219 590.339844 140.679688 C 590.449219 141.15625 590.609375 141.621094 590.824219 142.0625 C 591.035156 142.507812 591.289062 142.925781 591.59375 143.3125 C 591.894531 143.699219 592.238281 144.050781 592.617188 144.363281 C 592.996094 144.675781 593.40625 144.945312 593.84375 145.167969 C 594.28125 145.390625 594.738281 145.5625 595.214844 145.6875 C 595.691406 145.808594 596.175781 145.878906 596.667969 145.894531 C 597.160156 145.910156 597.648438 145.875 598.128906 145.785156 C 600.8125 145.289062 603.4375 144.589844 606.007812 143.683594 C 611.011719 141.875 615.621094 139.347656 619.832031 136.101562 C 620.183594 135.832031 620.503906 135.527344 620.792969 135.195312 C 621.082031 134.859375 621.335938 134.5 621.554688 134.117188 C 621.769531 133.730469 621.949219 133.328125 622.089844 132.910156 C 622.226562 132.488281 622.324219 132.058594 622.375 131.621094 C 622.429688 131.179688 622.441406 130.742188 622.40625 130.300781 C 622.371094 129.859375 622.296875 129.425781 622.175781 129 C 622.058594 128.570312 621.898438 128.160156 621.695312 127.765625 C 621.496094 127.371094 621.257812 127 620.984375 126.652344 C 612.195312 115.460938 595.332031 94.046875 593.007812 91.5625 C 592.683594 91.21875 591.804688 90.28125 591.175781 90.511719 C 590.457031 90.769531 590.429688 92.40625 590.46875 93.363281 Z M 590.46875 93.363281 " fill-opacity="1" fill-rule="nonzero"/></g></g></g></g><g clip-path="url(#b618b126c4)"><g clip-path="url(#f80a38a3ed)"><g clip-path="url(#c5cc15763d)"><g clip-path="url(#f5a8db4b7a)"><path fill="#f2ad11" d="M 587.601562 93.128906 C 587.59375 92.464844 587.546875 91.03125 586.867188 90.785156 C 586.019531 90.460938 584.636719 92.152344 583.921875 93.066406 C 580.746094 97.125 565.132812 118.59375 557.265625 129.414062 C 556.984375 129.800781 556.746094 130.214844 556.550781 130.652344 C 556.355469 131.089844 556.203125 131.542969 556.101562 132.007812 C 556 132.476562 555.949219 132.953125 555.945312 133.429688 C 555.941406 133.910156 555.988281 134.386719 556.082031 134.855469 C 556.179688 135.324219 556.320312 135.78125 556.511719 136.21875 C 556.699219 136.660156 556.933594 137.078125 557.207031 137.46875 C 557.484375 137.863281 557.796875 138.222656 558.148438 138.550781 C 558.5 138.875 558.878906 139.164062 559.289062 139.414062 L 559.367188 139.460938 C 562.101562 141.105469 564.964844 142.480469 567.957031 143.585938 C 571.535156 144.90625 575.210938 145.824219 578.988281 146.335938 C 579.46875 146.402344 579.953125 146.414062 580.441406 146.375 C 580.925781 146.335938 581.402344 146.25 581.871094 146.109375 C 582.339844 145.96875 582.785156 145.785156 583.214844 145.550781 C 583.640625 145.316406 584.039062 145.042969 584.410156 144.722656 C 584.777344 144.40625 585.109375 144.054688 585.40625 143.664062 C 585.699219 143.277344 585.949219 142.863281 586.15625 142.421875 C 586.363281 141.980469 586.523438 141.523438 586.632812 141.046875 C 586.746094 140.574219 586.804688 140.089844 586.8125 139.605469 C 587.089844 125.804688 587.660156 97.304688 587.601562 93.128906 Z M 587.601562 93.128906 " fill-opacity="1" fill-rule="nonzero"/></g></g></g></g><g clip-path="url(#a657e6ebb1)"><g clip-path="url(#c24d7ea193)"><g clip-path="url(#ae2f150aad)"><g clip-path="url(#b2993ad01c)"><path fill="#f2ad11" d="M 596.875 90.667969 L 622.589844 122.984375 C 622.882812 123.355469 623.21875 123.6875 623.589844 123.980469 C 623.964844 124.273438 624.367188 124.519531 624.796875 124.71875 C 625.226562 124.914062 625.675781 125.0625 626.140625 125.15625 C 626.605469 125.246094 627.074219 125.285156 627.550781 125.269531 C 628.023438 125.25 628.488281 125.179688 628.945312 125.054688 C 629.402344 124.925781 629.839844 124.75 630.253906 124.519531 C 630.667969 124.289062 631.050781 124.015625 631.402344 123.695312 C 631.75 123.375 632.058594 123.019531 632.324219 122.628906 C 637.039062 115.652344 639.855469 108.566406 641.460938 103.457031 C 641.585938 103.0625 641.667969 102.660156 641.707031 102.246094 C 641.746094 101.835938 641.746094 101.421875 641.703125 101.011719 C 641.65625 100.601562 641.570312 100.199219 641.445312 99.804688 C 641.316406 99.410156 641.152344 99.03125 640.949219 98.671875 C 640.746094 98.3125 640.507812 97.976562 640.234375 97.664062 C 639.960938 97.355469 639.660156 97.074219 639.328125 96.824219 C 638.996094 96.574219 638.644531 96.363281 638.269531 96.183594 C 637.898438 96.007812 637.507812 95.871094 637.105469 95.773438 C 615.171875 90.429688 599.515625 86.648438 596.652344 85.976562 C 596.179688 85.867188 595.085938 85.625 594.703125 86.125 C 594.109375 86.894531 595.570312 89.023438 596.875 90.667969 Z M 596.875 90.667969 " fill-opacity="1" fill-rule="nonzero"/></g></g></g></g><g clip-path="url(#6cfa6ef5fc)"><g clip-path="url(#9e57ef0561)"><g clip-path="url(#0dc13c8c19)"><g clip-path="url(#80af01c35d)"><path fill="#f2ad11" d="M 636.988281 92.363281 C 637.421875 92.445312 637.859375 92.484375 638.300781 92.472656 C 638.742188 92.460938 639.175781 92.398438 639.601562 92.289062 C 640.03125 92.183594 640.441406 92.027344 640.832031 91.828125 C 641.226562 91.628906 641.59375 91.390625 641.929688 91.109375 C 642.269531 90.828125 642.574219 90.511719 642.84375 90.164062 C 643.113281 89.816406 643.339844 89.441406 643.527344 89.042969 C 643.714844 88.640625 643.855469 88.226562 643.949219 87.796875 C 644.042969 87.367188 644.085938 86.929688 644.082031 86.488281 C 644.085938 81.890625 643.546875 77.355469 642.460938 72.882812 C 640.992188 66.953125 638.59375 61.421875 635.269531 56.292969 C 635.046875 55.953125 634.792969 55.636719 634.507812 55.347656 C 634.222656 55.0625 633.910156 54.804688 633.574219 54.582031 C 633.234375 54.355469 632.878906 54.167969 632.5 54.015625 C 632.125 53.867188 631.734375 53.753906 631.335938 53.683594 C 630.9375 53.613281 630.535156 53.582031 630.128906 53.59375 C 629.722656 53.601562 629.324219 53.65625 628.929688 53.746094 C 628.535156 53.839844 628.152344 53.972656 627.785156 54.144531 C 627.417969 54.316406 627.070312 54.523438 626.746094 54.761719 C 616.808594 62.152344 597.144531 76.894531 595.242188 79.332031 C 595.0625 79.566406 594.574219 80.195312 594.65625 80.945312 C 594.835938 82.652344 597.769531 83.636719 598.828125 83.996094 C 603.769531 85.660156 625.625 90.101562 636.988281 92.363281 Z M 636.988281 92.363281 " fill-opacity="1" fill-rule="nonzero"/></g></g></g></g><g clip-path="url(#500a877565)"><g clip-path="url(#5912fa6003)"><g clip-path="url(#8491760638)"><g clip-path="url(#d7d278c372)"><path fill="#f2c91d" d="M 562.949219 43.546875 C 563.300781 43.871094 563.640625 44.199219 563.96875 44.539062 C 564.292969 44.875 564.597656 45.214844 564.886719 45.554688 C 565.171875 45.894531 565.433594 46.230469 565.671875 46.558594 C 565.910156 46.890625 566.117188 47.207031 566.292969 47.511719 C 566.472656 47.820312 566.617188 48.105469 566.730469 48.378906 C 566.839844 48.648438 566.917969 48.894531 566.960938 49.121094 C 567 49.347656 567.007812 49.542969 566.976562 49.714844 C 566.949219 49.886719 566.882812 50.027344 566.78125 50.136719 C 566.679688 50.246094 566.546875 50.324219 566.378906 50.367188 C 566.210938 50.414062 566.015625 50.425781 565.785156 50.402344 C 565.558594 50.382812 565.304688 50.324219 565.023438 50.238281 C 564.746094 50.152344 564.445312 50.03125 564.125 49.882812 C 563.804688 49.730469 563.46875 49.550781 563.121094 49.34375 C 562.773438 49.136719 562.417969 48.90625 562.050781 48.648438 C 561.6875 48.394531 561.324219 48.117188 560.957031 47.824219 C 560.59375 47.527344 560.234375 47.21875 559.882812 46.898438 C 559.53125 46.574219 559.191406 46.242188 558.863281 45.90625 C 558.539062 45.566406 558.234375 45.230469 557.945312 44.890625 C 557.660156 44.550781 557.398438 44.214844 557.160156 43.886719 C 556.921875 43.554688 556.714844 43.238281 556.539062 42.933594 C 556.359375 42.625 556.214844 42.335938 556.101562 42.066406 C 555.992188 41.796875 555.914062 41.546875 555.871094 41.324219 C 555.832031 41.097656 555.824219 40.902344 555.855469 40.730469 C 555.886719 40.558594 555.949219 40.417969 556.050781 40.308594 C 556.152344 40.199219 556.285156 40.121094 556.453125 40.078125 C 556.621094 40.03125 556.820312 40.019531 557.046875 40.042969 C 557.273438 40.0625 557.527344 40.117188 557.808594 40.207031 C 558.085938 40.292969 558.386719 40.414062 558.707031 40.5625 C 559.027344 40.714844 559.363281 40.894531 559.710938 41.101562 C 560.058594 41.308594 560.417969 41.539062 560.78125 41.796875 C 561.144531 42.050781 561.507812 42.328125 561.875 42.621094 C 562.238281 42.917969 562.597656 43.226562 562.949219 43.546875 Z M 562.949219 43.546875 " fill-opacity="1" fill-rule="nonzero"/></g></g></g></g><g clip-path="url(#3275e61c0c)"><g clip-path="url(#e977e7a7a8)"><g clip-path="url(#1ef71b3d85)"><g clip-path="url(#743017a86a)"><path fill="#f2c91d" d="M 574.210938 43.890625 C 575.816406 47.574219 576.183594 50.96875 575.039062 51.460938 C 573.890625 51.957031 571.652344 49.382812 570.046875 45.699219 C 568.441406 42.019531 568.074219 38.625 569.222656 38.128906 C 570.367188 37.632812 572.605469 40.210938 574.210938 43.890625 Z M 574.210938 43.890625 " fill-opacity="1" fill-rule="nonzero"/></g></g></g></g><g clip-path="url(#9886cfa82b)"><g clip-path="url(#bcb3fad426)"><g clip-path="url(#c854e75447)"><g clip-path="url(#b7a29a50da)"><path fill="#f2c91d" d="M 578.371094 62.300781 C 580.40625 64.691406 581.445312 67.144531 580.699219 67.777344 C 579.953125 68.414062 577.695312 66.980469 575.667969 64.59375 C 573.644531 62.210938 572.59375 59.75 573.34375 59.117188 C 574.09375 58.484375 576.339844 59.910156 578.371094 62.300781 Z M 578.371094 62.300781 " fill-opacity="1" fill-rule="nonzero"/></g></g></g></g><g clip-path="url(#bc4c11b49c)"><g clip-path="url(#624f872444)"><g clip-path="url(#fae628342d)"><g clip-path="url(#a6b023b918)"><path fill="#f2c91d" d="M 583.265625 55.007812 C 583.882812 58.082031 583.601562 60.730469 582.644531 60.925781 C 581.691406 61.125 580.398438 58.785156 579.785156 55.699219 C 579.171875 52.613281 579.449219 49.976562 580.40625 49.777344 C 581.359375 49.582031 582.652344 51.933594 583.265625 55.007812 Z M 583.265625 55.007812 " fill-opacity="1" fill-rule="nonzero"/></g></g></g></g><g clip-path="url(#49168fc58f)"><g clip-path="url(#32b4a501d6)"><g clip-path="url(#5bf0e6429c)"><g clip-path="url(#d99a61eb19)"><path fill="#f2c91d" d="M 581.898438 36.546875 C 582.5 40.519531 581.980469 43.890625 580.738281 44.074219 C 579.496094 44.261719 578.003906 41.195312 577.402344 37.222656 C 576.800781 33.25 577.324219 29.882812 578.5625 29.695312 C 579.804688 29.507812 581.308594 32.578125 581.898438 36.546875 Z M 581.898438 36.546875 " fill-opacity="1" fill-rule="nonzero"/></g></g></g></g><g clip-path="url(#e4c3bc91d5)"><g clip-path="url(#75e30c6939)"><g clip-path="url(#fc1b5e806c)"><g clip-path="url(#046074269e)"><path fill="#f2c91d" d="M 597.761719 43.734375 C 597.757812 44.210938 597.742188 44.683594 597.710938 45.152344 C 597.679688 45.621094 597.632812 46.074219 597.574219 46.515625 C 597.515625 46.957031 597.441406 47.375 597.355469 47.773438 C 597.269531 48.167969 597.175781 48.535156 597.066406 48.871094 C 596.960938 49.207031 596.84375 49.507812 596.71875 49.773438 C 596.59375 50.039062 596.460938 50.261719 596.320312 50.441406 C 596.183594 50.625 596.039062 50.761719 595.894531 50.851562 C 595.746094 50.945312 595.597656 50.992188 595.449219 50.988281 C 595.300781 50.988281 595.152344 50.941406 595.007812 50.847656 C 594.859375 50.753906 594.71875 50.613281 594.582031 50.429688 C 594.445312 50.246094 594.316406 50.023438 594.191406 49.753906 C 594.070312 49.488281 593.957031 49.1875 593.855469 48.847656 C 593.75 48.511719 593.65625 48.144531 593.578125 47.746094 C 593.496094 47.347656 593.429688 46.929688 593.375 46.488281 C 593.320312 46.046875 593.28125 45.589844 593.253906 45.121094 C 593.226562 44.65625 593.214844 44.179688 593.21875 43.703125 C 593.21875 43.226562 593.238281 42.753906 593.269531 42.285156 C 593.300781 41.816406 593.347656 41.363281 593.40625 40.921875 C 593.464844 40.484375 593.539062 40.0625 593.621094 39.667969 C 593.707031 39.269531 593.804688 38.90625 593.910156 38.566406 C 594.019531 38.230469 594.136719 37.929688 594.261719 37.667969 C 594.386719 37.402344 594.519531 37.179688 594.65625 36.996094 C 594.796875 36.816406 594.941406 36.679688 595.085938 36.585938 C 595.234375 36.496094 595.382812 36.449219 595.53125 36.449219 C 595.679688 36.449219 595.828125 36.5 595.972656 36.59375 C 596.117188 36.6875 596.261719 36.824219 596.398438 37.007812 C 596.535156 37.191406 596.664062 37.417969 596.785156 37.683594 C 596.910156 37.949219 597.023438 38.25 597.125 38.589844 C 597.230469 38.929688 597.320312 39.296875 597.402344 39.695312 C 597.484375 40.089844 597.550781 40.511719 597.605469 40.953125 C 597.660156 41.394531 597.699219 41.847656 597.726562 42.316406 C 597.753906 42.785156 597.765625 43.257812 597.761719 43.734375 Z M 597.761719 43.734375 " fill-opacity="1" fill-rule="nonzero"/></g></g></g></g><g clip-path="url(#68b741b539)"><g clip-path="url(#9c4772f634)"><g clip-path="url(#aa9fdeae65)"><g clip-path="url(#6f6e999fd9)"><path fill="#f2c91d" d="M 606.035156 44.636719 C 604.585938 48.378906 602.464844 51.046875 601.296875 50.59375 C 600.125 50.140625 600.347656 46.738281 601.792969 42.992188 C 603.238281 39.25 605.359375 36.582031 606.53125 37.035156 C 607.703125 37.488281 607.484375 40.886719 606.035156 44.636719 Z M 606.035156 44.636719 " fill-opacity="1" fill-rule="nonzero"/></g></g></g></g><g clip-path="url(#673dd70eca)"><g clip-path="url(#7f739dd157)"><g clip-path="url(#37f99c7dc5)"><g clip-path="url(#dc9e3632ee)"><path fill="#f2c91d" d="M 595.867188 63.660156 C 595.632812 66.789062 594.652344 69.261719 593.675781 69.1875 C 592.695312 69.113281 592.09375 66.519531 592.335938 63.386719 C 592.574219 60.253906 593.550781 57.785156 594.527344 57.859375 C 595.507812 57.933594 596.101562 60.53125 595.867188 63.660156 Z M 595.867188 63.660156 " fill-opacity="1" fill-rule="nonzero"/></g></g></g></g><g clip-path="url(#99b08982ee)"><g clip-path="url(#417bc43f75)"><g clip-path="url(#ed238b5a30)"><g clip-path="url(#8da77108fb)"><path fill="#f2c91d" d="M 603.164062 61.59375 C 601.441406 64.210938 599.378906 65.894531 598.558594 65.355469 C 597.742188 64.820312 598.476562 62.257812 600.199219 59.640625 C 601.921875 57.023438 603.984375 55.339844 604.804688 55.878906 C 605.625 56.417969 604.890625 58.976562 603.164062 61.59375 Z M 603.164062 61.59375 " fill-opacity="1" fill-rule="nonzero"/></g></g></g></g><g clip-path="url(#ad334f6ecd)"><g clip-path="url(#128f7bd30e)"><g clip-path="url(#1ce81106f0)"><g clip-path="url(#884d904ddd)"><path fill="#f2c91d" d="M 615.660156 57.152344 C 613.132812 59.003906 610.613281 59.867188 610.035156 59.074219 C 609.453125 58.28125 611.03125 56.140625 613.5625 54.289062 C 616.09375 52.4375 618.605469 51.585938 619.191406 52.367188 C 619.773438 53.152344 618.191406 55.300781 615.660156 57.152344 Z M 615.660156 57.152344 " fill-opacity="1" fill-rule="nonzero"/></g></g></g></g><g clip-path="url(#88d1d3bd28)"><g clip-path="url(#67326e8b69)"><g clip-path="url(#9fa1d081da)"><g clip-path="url(#e683db6017)"><path fill="#f2c91d" d="M 615.4375 48.152344 C 613.070312 51.394531 610.332031 53.421875 609.316406 52.683594 C 608.304688 51.945312 609.398438 48.714844 611.761719 45.472656 C 614.125 42.230469 616.863281 40.199219 617.878906 40.9375 C 618.890625 41.679688 617.796875 44.910156 615.4375 48.152344 Z M 615.4375 48.152344 " fill-opacity="1" fill-rule="nonzero"/></g></g></g></g><g clip-path="url(#2b52bf8248)"><g clip-path="url(#6eb30695a9)"><g clip-path="url(#d5b8e929ab)"><g clip-path="url(#d53c269099)"><path fill="#f2c91d" d="M 623.679688 66.699219 C 620.585938 69.253906 617.429688 70.546875 616.628906 69.578125 C 615.832031 68.609375 617.679688 65.746094 620.78125 63.195312 C 623.878906 60.640625 627.027344 59.347656 627.828125 60.316406 C 628.632812 61.285156 626.769531 64.140625 623.679688 66.699219 Z M 623.679688 66.699219 " fill-opacity="1" fill-rule="nonzero"/></g></g></g></g><g clip-path="url(#a6f5042078)"><g clip-path="url(#94dceb11cc)"><g clip-path="url(#bd2a0b3aee)"><g clip-path="url(#72dc981902)"><path fill="#f2c91d" d="M 628.550781 73.609375 C 624.6875 74.6875 621.277344 74.582031 620.9375 73.371094 C 620.597656 72.164062 623.457031 70.3125 627.328125 69.230469 C 631.195312 68.152344 634.605469 68.261719 634.941406 69.46875 C 635.28125 70.675781 632.421875 72.53125 628.550781 73.609375 Z M 628.550781 73.609375 " fill-opacity="1" fill-rule="nonzero"/></g></g></g></g><g clip-path="url(#76f067d4b8)"><g clip-path="url(#04daa9e77d)"><g clip-path="url(#464a3c25d6)"><g clip-path="url(#72b5054107)"><path fill="#f2c91d" d="M 605.023438 77.914062 C 602.375 79.582031 599.8125 80.285156 599.285156 79.460938 C 598.761719 78.636719 600.480469 76.601562 603.125 74.921875 C 605.773438 73.242188 608.339844 72.546875 608.863281 73.375 C 609.390625 74.203125 607.671875 76.234375 605.023438 77.914062 Z M 605.023438 77.914062 " fill-opacity="1" fill-rule="nonzero"/></g></g></g></g><g clip-path="url(#9fd7767478)"><g clip-path="url(#7f027f401e)"><g clip-path="url(#4c0b0d1ae9)"><g clip-path="url(#1e4a084f80)"><path fill="#f2c91d" d="M 614.964844 80.050781 C 611.890625 80.664062 609.242188 80.378906 609.042969 79.425781 C 608.847656 78.46875 611.191406 77.191406 614.265625 76.578125 C 617.335938 75.964844 619.988281 76.25 620.1875 77.203125 C 620.382812 78.160156 618.042969 79.441406 614.964844 80.050781 Z M 614.964844 80.050781 " fill-opacity="1" fill-rule="nonzero"/></g></g></g></g><g clip-path="url(#875934d08d)"><g clip-path="url(#4a81efa5df)"><g clip-path="url(#f04bdd8616)"><g clip-path="url(#e02c137519)"><path fill="#f2c91d" d="M 624.894531 86.023438 C 621.898438 85.097656 619.703125 83.585938 619.992188 82.652344 C 620.28125 81.714844 622.945312 81.707031 625.941406 82.636719 C 628.941406 83.5625 631.136719 85.074219 630.847656 86.007812 C 630.558594 86.945312 627.894531 86.949219 624.894531 86.023438 Z M 624.894531 86.023438 " fill-opacity="1" fill-rule="nonzero"/></g></g></g></g><g clip-path="url(#c825273d3c)"><g clip-path="url(#0cf1703f6c)"><g clip-path="url(#2a6d76558b)"><g clip-path="url(#da52a116fc)"><path fill="#f2c91d" d="M 634.042969 81.230469 C 630.027344 81.273438 626.761719 80.292969 626.746094 79.035156 C 626.730469 77.78125 629.972656 76.730469 633.988281 76.6875 C 638.003906 76.644531 641.273438 77.625 641.289062 78.878906 C 641.300781 80.136719 638.058594 81.1875 634.042969 81.230469 Z M 634.042969 81.230469 " fill-opacity="1" fill-rule="nonzero"/></g></g></g></g><g clip-path="url(#f4a5b0800d)"><g clip-path="url(#4e6b1e0a8f)"><g clip-path="url(#90d21500e2)"><g clip-path="url(#8366c75423)"><path fill="#f2c91d" d="M 627.441406 100.300781 C 623.449219 99.847656 620.335938 98.457031 620.476562 97.210938 C 620.621094 95.964844 623.972656 95.328125 627.960938 95.789062 C 631.949219 96.25 635.070312 97.632812 634.925781 98.878906 C 634.785156 100.125 631.429688 100.769531 627.441406 100.300781 Z M 627.441406 100.300781 " fill-opacity="1" fill-rule="nonzero"/></g></g></g></g><g clip-path="url(#bb66f42860)"><g clip-path="url(#bfff6db300)"><g clip-path="url(#8fa3a7dba8)"><g clip-path="url(#c9a34bbbba)"><path fill="#f2c91d" d="M 624.050781 108.089844 C 620.589844 106.046875 618.300781 103.515625 618.941406 102.433594 C 619.578125 101.351562 622.902344 102.128906 626.359375 104.179688 C 629.8125 106.226562 632.105469 108.753906 631.46875 109.832031 C 630.832031 110.914062 627.507812 110.132812 624.050781 108.089844 Z M 624.050781 108.089844 " fill-opacity="1" fill-rule="nonzero"/></g></g></g></g><g clip-path="url(#826f0052af)"><g clip-path="url(#1d9045964e)"><g clip-path="url(#1ad290fb7d)"><g clip-path="url(#57817029fe)"><path fill="#f2c91d" d="M 608.078125 94.59375 C 605.152344 93.460938 603.070312 91.796875 603.421875 90.886719 C 603.769531 89.976562 606.433594 90.152344 609.359375 91.285156 C 612.285156 92.417969 614.367188 94.078125 614.015625 94.988281 C 613.667969 95.898438 611.003906 95.726562 608.078125 94.59375 Z M 608.078125 94.59375 " fill-opacity="1" fill-rule="nonzero"/></g></g></g></g><g clip-path="url(#f489e8aac6)"><g clip-path="url(#e6de2344e1)"><g clip-path="url(#ed3515799f)"><g clip-path="url(#ca8856ca99)"><path fill="#f2c91d" d="M 609.441406 102.949219 C 607.136719 100.816406 605.808594 98.503906 606.472656 97.78125 C 607.132812 97.0625 609.542969 98.210938 611.84375 100.339844 C 614.144531 102.46875 615.476562 104.785156 614.8125 105.507812 C 614.152344 106.226562 611.742188 105.078125 609.441406 102.949219 Z M 609.441406 102.949219 " fill-opacity="1" fill-rule="nonzero"/></g></g></g></g><g clip-path="url(#5b3b164748)"><g clip-path="url(#839eeeeefe)"><g clip-path="url(#0d55bad4ab)"><g clip-path="url(#559a8ee2af)"><path fill="#f2c91d" d="M 622.488281 117.660156 C 619.671875 114.796875 618.117188 111.757812 619.011719 110.882812 C 619.90625 110.003906 622.914062 111.613281 625.730469 114.476562 C 628.546875 117.34375 630.105469 120.382812 629.210938 121.257812 C 628.316406 122.136719 625.3125 120.53125 622.488281 117.660156 Z M 622.488281 117.660156 " fill-opacity="1" fill-rule="nonzero"/></g></g></g></g><g clip-path="url(#79723ac33e)"><g clip-path="url(#f5c84e9d6f)"><g clip-path="url(#065fc1a746)"><g clip-path="url(#2a62a1bca8)"><path fill="#f2c91d" d="M 611.921875 125.085938 C 609.074219 122.253906 607.480469 119.234375 608.367188 118.347656 C 609.25 117.457031 612.277344 119.035156 615.125 121.867188 C 617.976562 124.703125 619.566406 127.71875 618.683594 128.609375 C 617.796875 129.5 614.769531 127.921875 611.921875 125.085938 Z M 611.921875 125.085938 " fill-opacity="1" fill-rule="nonzero"/></g></g></g></g><g clip-path="url(#903897b1a3)"><g clip-path="url(#cf5a2725f1)"><g clip-path="url(#d3699cd06f)"><g clip-path="url(#12027c8fcf)"><path fill="#f2c91d" d="M 601.632812 122.695312 C 600.179688 118.949219 599.949219 115.546875 601.121094 115.09375 C 602.292969 114.644531 604.417969 117.3125 605.867188 121.058594 C 607.320312 124.800781 607.546875 128.203125 606.378906 128.660156 C 605.207031 129.113281 603.085938 126.445312 601.632812 122.695312 Z M 601.632812 122.695312 " fill-opacity="1" fill-rule="nonzero"/></g></g></g></g><g clip-path="url(#d3ca2613af)"><g clip-path="url(#c8dd93c9e2)"><g clip-path="url(#36e828ddd2)"><g clip-path="url(#6aeb369640)"><path fill="#f2c91d" d="M 596.789062 104.890625 C 594.859375 102.417969 593.921875 99.921875 594.691406 99.320312 C 595.460938 98.71875 597.65625 100.234375 599.585938 102.707031 C 601.519531 105.183594 602.457031 107.675781 601.6875 108.277344 C 600.914062 108.882812 598.722656 107.363281 596.789062 104.890625 Z M 596.789062 104.890625 " fill-opacity="1" fill-rule="nonzero"/></g></g></g></g><g clip-path="url(#ca4d73473d)"><g clip-path="url(#fd02695cbb)"><g clip-path="url(#cb430175ea)"><g clip-path="url(#7109c2cc54)"><path fill="#f2c91d" d="M 592.882812 111.871094 C 592.394531 108.777344 592.78125 106.144531 593.75 105.992188 C 594.722656 105.835938 595.898438 108.226562 596.386719 111.324219 C 596.875 114.425781 596.488281 117.054688 595.519531 117.207031 C 594.546875 117.363281 593.371094 114.964844 592.882812 111.871094 Z M 592.882812 111.871094 " fill-opacity="1" fill-rule="nonzero"/></g></g></g></g><g clip-path="url(#5160ee8dcd)"><g clip-path="url(#85f2425f26)"><g clip-path="url(#a734d60cfb)"><g clip-path="url(#be914c1381)"><path fill="#f2c91d" d="M 602.898438 136.59375 C 601.765625 133.664062 601.585938 131.011719 602.5 130.65625 C 603.414062 130.304688 605.074219 132.390625 606.210938 135.316406 C 607.34375 138.242188 607.519531 140.898438 606.605469 141.25 C 605.695312 141.605469 604.035156 139.519531 602.898438 136.59375 Z M 602.898438 136.59375 " fill-opacity="1" fill-rule="nonzero"/></g></g></g></g><g clip-path="url(#b99831e7fa)"><g clip-path="url(#901d05fcc5)"><g clip-path="url(#eaf4093cf1)"><g clip-path="url(#e53df5bee1)"><path fill="#f2c91d" d="M 593.34375 128.660156 C 592.90625 124.667969 593.566406 121.320312 594.8125 121.1875 C 596.058594 121.050781 597.421875 124.175781 597.859375 128.171875 C 598.296875 132.164062 597.640625 135.507812 596.390625 135.640625 C 595.144531 135.777344 593.777344 132.648438 593.34375 128.660156 Z M 593.34375 128.660156 " fill-opacity="1" fill-rule="nonzero"/></g></g></g></g><g clip-path="url(#d8d22d5ea9)"><g clip-path="url(#f73f73d1b9)"><g clip-path="url(#e06f24f1a6)"><g clip-path="url(#6e207dc909)"><path fill="#f2c91d" d="M 579.332031 133.425781 C 578.851562 129.4375 579.472656 126.085938 580.71875 125.9375 C 581.964844 125.789062 583.367188 128.902344 583.84375 132.886719 C 584.324219 136.871094 583.703125 140.226562 582.457031 140.375 C 581.210938 140.523438 579.816406 137.40625 579.332031 133.425781 Z M 579.332031 133.425781 " fill-opacity="1" fill-rule="nonzero"/></g></g></g></g><g clip-path="url(#50385978dd)"><g clip-path="url(#5a29321f1e)"><g clip-path="url(#fb41628b6f)"><g clip-path="url(#ea0d4e1df6)"><path fill="#f2c91d" d="M 573.960938 122.355469 C 575.144531 118.519531 577.074219 115.714844 578.273438 116.085938 C 579.472656 116.457031 579.488281 119.867188 578.304688 123.703125 C 577.121094 127.539062 575.1875 130.34375 573.988281 129.972656 C 572.789062 129.601562 572.777344 126.191406 573.960938 122.355469 Z M 573.960938 122.355469 " fill-opacity="1" fill-rule="nonzero"/></g></g></g></g><g clip-path="url(#edb5eac087)"><g clip-path="url(#34f2dd5503)"><g clip-path="url(#83bfcddd52)"><g clip-path="url(#095e6dba66)"><path fill="#f2c91d" d="M 580.878906 108.433594 C 580.894531 105.296875 581.707031 102.761719 582.683594 102.765625 C 583.664062 102.773438 584.441406 105.316406 584.429688 108.457031 C 584.414062 111.597656 583.601562 114.128906 582.621094 114.125 C 581.640625 114.117188 580.859375 111.570312 580.878906 108.433594 Z M 580.878906 108.433594 " fill-opacity="1" fill-rule="nonzero"/></g></g></g></g><g clip-path="url(#0083d5655a)"><g clip-path="url(#0998024f3d)"><g clip-path="url(#d50c794d79)"><g clip-path="url(#ecd3f9dcf8)"><path fill="#f2c91d" d="M 573.855469 110.011719 C 575.398438 107.28125 577.335938 105.460938 578.1875 105.941406 C 579.042969 106.421875 578.488281 109.027344 576.953125 111.753906 C 575.414062 114.484375 573.472656 116.308594 572.621094 115.828125 C 571.765625 115.34375 572.316406 112.734375 573.855469 110.011719 Z M 573.855469 110.011719 " fill-opacity="1" fill-rule="nonzero"/></g></g></g></g><g clip-path="url(#b824c45bbe)"><g clip-path="url(#9ebe8e8d7b)"><g clip-path="url(#b8a09ebb00)"><g clip-path="url(#22d92d1297)"><path fill="#f2c91d" d="M 565.433594 133.460938 C 566.972656 130.730469 568.910156 128.90625 569.765625 129.386719 C 570.617188 129.871094 570.0625 132.472656 568.527344 135.203125 C 566.988281 137.929688 565.050781 139.757812 564.195312 139.273438 C 563.339844 138.792969 563.890625 136.1875 565.433594 133.460938 Z M 565.433594 133.460938 " fill-opacity="1" fill-rule="nonzero"/></g></g></g></g><g clip-path="url(#4feb89704d)"><g clip-path="url(#e0966ee7f4)"><g clip-path="url(#e6241eba42)"><g clip-path="url(#3c4629a8bc)"><path fill="#f2c91d" d="M 561.636719 125.828125 C 563.773438 122.429688 566.363281 120.214844 567.425781 120.882812 C 568.492188 121.550781 567.625 124.847656 565.488281 128.246094 C 563.351562 131.644531 560.765625 133.859375 559.699219 133.191406 C 558.636719 132.523438 559.503906 129.226562 561.636719 125.828125 Z M 561.636719 125.828125 " fill-opacity="1" fill-rule="nonzero"/></g></g></g></g><g clip-path="url(#49487882ba)"><g clip-path="url(#1f8980e3f6)"><g clip-path="url(#de57d8b003)"><g clip-path="url(#1d3f223e12)"><path fill="#f2c91d" d="M 559.589844 118.46875 C 559.355469 118.882812 559.105469 119.289062 558.851562 119.679688 C 558.59375 120.070312 558.328125 120.445312 558.0625 120.796875 C 557.792969 121.152344 557.523438 121.480469 557.253906 121.785156 C 556.984375 122.089844 556.722656 122.359375 556.464844 122.601562 C 556.203125 122.839844 555.953125 123.046875 555.714844 123.214844 C 555.476562 123.382812 555.25 123.511719 555.042969 123.601562 C 554.832031 123.691406 554.640625 123.742188 554.464844 123.75 C 554.292969 123.757812 554.140625 123.722656 554.011719 123.648438 C 553.882812 123.574219 553.777344 123.460938 553.695312 123.308594 C 553.613281 123.15625 553.558594 122.964844 553.53125 122.738281 C 553.503906 122.511719 553.5 122.25 553.523438 121.960938 C 553.546875 121.667969 553.597656 121.347656 553.671875 121.003906 C 553.75 120.65625 553.847656 120.292969 553.972656 119.90625 C 554.097656 119.519531 554.246094 119.121094 554.414062 118.710938 C 554.585938 118.300781 554.773438 117.886719 554.980469 117.464844 C 555.1875 117.042969 555.40625 116.625 555.644531 116.210938 C 555.882812 115.796875 556.128906 115.394531 556.386719 115.003906 C 556.644531 114.609375 556.90625 114.238281 557.175781 113.882812 C 557.441406 113.527344 557.710938 113.199219 557.980469 112.898438 C 558.25 112.59375 558.511719 112.320312 558.773438 112.082031 C 559.03125 111.839844 559.28125 111.636719 559.519531 111.46875 C 559.757812 111.300781 559.984375 111.171875 560.195312 111.082031 C 560.40625 110.992188 560.597656 110.941406 560.769531 110.933594 C 560.941406 110.925781 561.09375 110.957031 561.222656 111.03125 C 561.355469 111.105469 561.460938 111.21875 561.539062 111.375 C 561.621094 111.527344 561.675781 111.71875 561.703125 111.945312 C 561.734375 112.171875 561.738281 112.429688 561.710938 112.722656 C 561.6875 113.015625 561.640625 113.332031 561.5625 113.679688 C 561.488281 114.023438 561.386719 114.390625 561.261719 114.773438 C 561.136719 115.160156 560.992188 115.558594 560.820312 115.96875 C 560.652344 116.382812 560.464844 116.796875 560.257812 117.21875 C 560.050781 117.636719 559.828125 118.054688 559.589844 118.46875 Z M 559.589844 118.46875 " fill-opacity="1" fill-rule="nonzero"/></g></g></g></g><g clip-path="url(#7ce4584210)"><g clip-path="url(#2d77800d15)"><g clip-path="url(#c50a65e0c4)"><g clip-path="url(#79ebf6e49b)"><path fill="#f2c91d" d="M 555.625 104.984375 C 558.863281 102.609375 562.089844 101.511719 562.832031 102.523438 C 563.574219 103.535156 561.558594 106.285156 558.3125 108.65625 C 555.0625 111.027344 551.851562 112.125 551.109375 111.109375 C 550.371094 110.09375 552.390625 107.355469 555.625 104.984375 Z M 555.625 104.984375 " fill-opacity="1" fill-rule="nonzero"/></g></g></g></g><g clip-path="url(#8341cb28aa)"><g clip-path="url(#6afadb90d1)"><g clip-path="url(#0cb4d2eaaf)"><g clip-path="url(#c3146b84fe)"><path fill="#f2c91d" d="M 569.589844 98.636719 C 571.472656 96.132812 573.636719 94.578125 574.417969 95.167969 C 575.199219 95.757812 574.308594 98.265625 572.425781 100.773438 C 570.542969 103.277344 568.382812 104.828125 567.597656 104.238281 C 566.8125 103.648438 567.699219 101.148438 569.589844 98.636719 Z M 569.589844 98.636719 " fill-opacity="1" fill-rule="nonzero"/></g></g></g></g><g clip-path="url(#2fe5d7c935)"><g clip-path="url(#ad8479b174)"><g clip-path="url(#011404e82b)"><g clip-path="url(#40ca0694ce)"><path fill="#f2c91d" d="M 546.203125 120.488281 C 548.089844 117.984375 550.246094 116.429688 551.03125 117.019531 C 551.816406 117.609375 550.925781 120.117188 549.039062 122.625 C 547.15625 125.128906 544.992188 126.679688 544.210938 126.082031 C 543.425781 125.484375 544.320312 122.988281 546.203125 120.488281 Z M 546.203125 120.488281 " fill-opacity="1" fill-rule="nonzero"/></g></g></g></g><g clip-path="url(#cec8203dd2)"><g clip-path="url(#e5798f453f)"><g clip-path="url(#cfee1a65c5)"><g clip-path="url(#7df39bcb67)"><path fill="#f2c91d" d="M 561.386719 95.46875 C 564.25 94.195312 566.902344 93.894531 567.292969 94.785156 C 567.6875 95.675781 565.695312 97.4375 562.828125 98.710938 C 559.964844 99.984375 557.3125 100.285156 556.921875 99.394531 C 556.527344 98.503906 558.519531 96.742188 561.386719 95.46875 Z M 561.386719 95.46875 " fill-opacity="1" fill-rule="nonzero"/></g></g></g></g><g clip-path="url(#2d6e8c611f)"><g clip-path="url(#0491ce0451)"><g clip-path="url(#c1445c1b36)"><g clip-path="url(#4faef47836)"><path fill="#f2c91d" d="M 540.371094 109.390625 C 543.238281 108.113281 545.886719 107.8125 546.28125 108.703125 C 546.675781 109.59375 544.679688 111.359375 541.816406 112.632812 C 538.953125 113.902344 536.300781 114.207031 535.90625 113.316406 C 535.515625 112.425781 537.507812 110.664062 540.371094 109.390625 Z M 540.371094 109.390625 " fill-opacity="1" fill-rule="nonzero"/></g></g></g></g><g clip-path="url(#9aed7e9aad)"><g clip-path="url(#984988895d)"><g clip-path="url(#bec515448f)"><g clip-path="url(#277707afc4)"><path fill="#f2c91d" d="M 544.964844 100.734375 C 548.703125 99.28125 552.109375 99.046875 552.5625 100.21875 C 553.019531 101.386719 550.359375 103.515625 546.617188 104.964844 C 542.878906 106.417969 539.476562 106.652344 539.019531 105.484375 C 538.5625 104.316406 541.21875 102.195312 544.964844 100.734375 Z M 544.964844 100.734375 " fill-opacity="1" fill-rule="nonzero"/></g></g></g></g><g clip-path="url(#f6a381e285)"><g clip-path="url(#3f4edf685d)"><g clip-path="url(#dca50a6daa)"><g clip-path="url(#a4f0cc4393)"><path fill="#f2c91d" d="M 549.035156 86.753906 C 553.011719 86.199219 556.378906 86.753906 556.550781 88 C 556.71875 89.25 553.644531 90.703125 549.667969 91.257812 C 545.691406 91.8125 542.324219 91.257812 542.152344 90.007812 C 541.980469 88.761719 545.054688 87.308594 549.035156 86.753906 Z M 549.035156 86.753906 " fill-opacity="1" fill-rule="nonzero"/></g></g></g></g><g clip-path="url(#08741080a6)"><g clip-path="url(#01eb978c12)"><g clip-path="url(#d9ad2fa0aa)"><g clip-path="url(#3b3385ffd6)"><path fill="#f2c91d" d="M 561.574219 81.710938 C 564.699219 81.949219 567.171875 82.925781 567.105469 83.90625 C 567.039062 84.890625 564.441406 85.484375 561.3125 85.25 C 558.183594 85.015625 555.714844 84.039062 555.777344 83.058594 C 555.84375 82.074219 558.445312 81.476562 561.574219 81.710938 Z M 561.574219 81.710938 " fill-opacity="1" fill-rule="nonzero"/></g></g></g></g><g clip-path="url(#938190f68e)"><g clip-path="url(#b68417ae6b)"><g clip-path="url(#88f53f7065)"><g clip-path="url(#c2905e45ee)"><path fill="#f2c91d" d="M 535.632812 84.402344 C 538.765625 84.375 541.320312 85.136719 541.335938 86.117188 C 541.347656 87.097656 538.816406 87.921875 535.675781 87.953125 C 532.535156 87.984375 529.988281 87.21875 529.976562 86.238281 C 529.964844 85.257812 532.496094 84.4375 535.632812 84.402344 Z M 535.632812 84.402344 " fill-opacity="1" fill-rule="nonzero"/></g></g></g></g><g clip-path="url(#01c98bb224)"><g clip-path="url(#d6b29c6852)"><g clip-path="url(#64b89efe99)"><g clip-path="url(#60811c9b90)"><path fill="#f2c91d" d="M 540.566406 77.214844 C 544.550781 77.703125 547.660156 79.109375 547.511719 80.355469 C 547.359375 81.601562 544.003906 82.214844 540.015625 81.726562 C 536.03125 81.234375 532.921875 79.828125 533.082031 78.585938 C 533.246094 77.34375 536.578125 76.726562 540.566406 77.214844 Z M 540.566406 77.214844 " fill-opacity="1" fill-rule="nonzero"/></g></g></g></g><g clip-path="url(#b824d20497)"><g clip-path="url(#015092fdab)"><g clip-path="url(#76e8aa4a2e)"><g clip-path="url(#de84b6396d)"><path fill="#f2c91d" d="M 555.207031 62.488281 C 558.851562 64.179688 561.386719 66.480469 560.851562 67.613281 C 560.316406 68.746094 556.941406 68.300781 553.296875 66.609375 C 549.652344 64.921875 547.125 62.625 547.652344 61.484375 C 548.179688 60.347656 551.5625 60.792969 555.207031 62.488281 Z M 555.207031 62.488281 " fill-opacity="1" fill-rule="nonzero"/></g></g></g></g><g clip-path="url(#23911c404e)"><g clip-path="url(#4b80a98ea4)"><g clip-path="url(#ebb8260c81)"><g clip-path="url(#27c815bf73)"><path fill="#f2c91d" d="M 569.335938 69.96875 C 571.84375 71.859375 573.386719 74.03125 572.792969 74.8125 C 572.203125 75.597656 569.703125 74.695312 567.195312 72.796875 C 564.6875 70.894531 563.144531 68.730469 563.734375 67.953125 C 564.328125 67.171875 566.839844 68.070312 569.335938 69.96875 Z M 569.335938 69.96875 " fill-opacity="1" fill-rule="nonzero"/></g></g></g></g><g clip-path="url(#c931382df0)"><g clip-path="url(#beb088efa6)"><g clip-path="url(#dc96436912)"><g clip-path="url(#7eb1bb181c)"><path fill="#f2c91d" d="M 552.082031 52.851562 C 555.164062 55.429688 557.019531 58.300781 556.207031 59.253906 C 555.394531 60.207031 552.253906 58.910156 549.167969 56.335938 C 546.082031 53.761719 544.230469 50.886719 545.039062 49.933594 C 545.851562 48.980469 548.996094 50.277344 552.082031 52.851562 Z M 552.082031 52.851562 " fill-opacity="1" fill-rule="nonzero"/></g></g></g></g><g clip-path="url(#ff38371942)"><g clip-path="url(#ac045bebeb)"><g clip-path="url(#283eb151a6)"><g clip-path="url(#f28c07f98c)"><path fill="#f2c91d" d="M 543.769531 65.011719 C 547.519531 66.460938 550.1875 68.585938 549.738281 69.757812 C 549.285156 70.925781 545.882812 70.699219 542.136719 69.25 C 538.386719 67.796875 535.71875 65.675781 536.167969 64.503906 C 536.621094 63.332031 540.023438 63.5625 543.769531 65.011719 Z M 543.769531 65.011719 " fill-opacity="1" fill-rule="nonzero"/></g></g></g></g></svg>