<svg xmlns="http://www.w3.org/2000/svg" xmlns:xlink="http://www.w3.org/1999/xlink" width="1920" zoomAndPan="magnify" viewBox="0 0 638.25 187.5" height="500" preserveAspectRatio="xMidYMid meet" version="1.0"><defs><clipPath id="6e68f84f49"><path d="M 0.476562 0 L 637.027344 0 L 637.027344 187 L 0.476562 187 Z M 0.476562 0 " clip-rule="nonzero"/></clipPath><clipPath id="4ca5e63ed6"><path d="M 502 67 L 637.027344 67 L 637.027344 187 L 502 187 Z M 502 67 " clip-rule="nonzero"/></clipPath><clipPath id="716f2a00f4"><path d="M 585.273438 25.675781 L 743.023438 160.015625 L 611.109375 314.914062 L 453.363281 180.578125 Z M 585.273438 25.675781 " clip-rule="nonzero"/></clipPath><clipPath id="2c57493461"><path d="M 585.273438 25.675781 L 743.023438 160.015625 L 611.109375 314.914062 L 453.363281 180.578125 Z M 585.273438 25.675781 " clip-rule="nonzero"/></clipPath><clipPath id="ad2e76b0cd"><path d="M 585.273438 25.675781 L 743.023438 160.015625 L 611.109375 314.914062 L 453.363281 180.578125 Z M 585.273438 25.675781 " clip-rule="nonzero"/></clipPath><clipPath id="e548537de2"><path d="M 511 76 L 637.027344 76 L 637.027344 187 L 511 187 Z M 511 76 " clip-rule="nonzero"/></clipPath><clipPath id="57d8d6a5bc"><path d="M 585.273438 25.675781 L 743.023438 160.015625 L 611.109375 314.914062 L 453.363281 180.578125 Z M 585.273438 25.675781 " clip-rule="nonzero"/></clipPath><clipPath id="f43e2e1883"><path d="M 585.273438 25.675781 L 743.023438 160.015625 L 611.109375 314.914062 L 453.363281 180.578125 Z M 585.273438 25.675781 " clip-rule="nonzero"/></clipPath><clipPath id="be342e3aeb"><path d="M 585.273438 25.675781 L 743.023438 160.015625 L 611.109375 314.914062 L 453.363281 180.578125 Z M 585.273438 25.675781 " clip-rule="nonzero"/></clipPath><clipPath id="5c2d759264"><path d="M 550 82 L 602 82 L 602 154 L 550 154 Z M 550 82 " clip-rule="nonzero"/></clipPath><clipPath id="6d76cfb109"><path d="M 585.273438 25.675781 L 743.023438 160.015625 L 611.109375 314.914062 L 453.363281 180.578125 Z M 585.273438 25.675781 " clip-rule="nonzero"/></clipPath><clipPath id="94abe40050"><path d="M 585.273438 25.675781 L 743.023438 160.015625 L 611.109375 314.914062 L 453.363281 180.578125 Z M 585.273438 25.675781 " clip-rule="nonzero"/></clipPath><clipPath id="5ea7f1782a"><path d="M 585.273438 25.675781 L 743.023438 160.015625 L 611.109375 314.914062 L 453.363281 180.578125 Z M 585.273438 25.675781 " clip-rule="nonzero"/></clipPath><clipPath id="2b6c2e3e4b"><path d="M 523 168 L 596 168 L 596 187 L 523 187 Z M 523 168 " clip-rule="nonzero"/></clipPath><clipPath id="a948100f21"><path d="M 585.273438 25.675781 L 743.023438 160.015625 L 611.109375 314.914062 L 453.363281 180.578125 Z M 585.273438 25.675781 " clip-rule="nonzero"/></clipPath><clipPath id="6f8c643bde"><path d="M 585.273438 25.675781 L 743.023438 160.015625 L 611.109375 314.914062 L 453.363281 180.578125 Z M 585.273438 25.675781 " clip-rule="nonzero"/></clipPath><clipPath id="b61a084a8c"><path d="M 585.273438 25.675781 L 743.023438 160.015625 L 611.109375 314.914062 L 453.363281 180.578125 Z M 585.273438 25.675781 " clip-rule="nonzero"/></clipPath><clipPath id="e915f729d5"><path d="M 516 147 L 594 147 L 594 183 L 516 183 Z M 516 147 " clip-rule="nonzero"/></clipPath><clipPath id="23ea58ef59"><path d="M 585.273438 25.675781 L 743.023438 160.015625 L 611.109375 314.914062 L 453.363281 180.578125 Z M 585.273438 25.675781 " clip-rule="nonzero"/></clipPath><clipPath id="d09d66582c"><path d="M 585.273438 25.675781 L 743.023438 160.015625 L 611.109375 314.914062 L 453.363281 180.578125 Z M 585.273438 25.675781 " clip-rule="nonzero"/></clipPath><clipPath id="ece909a77f"><path d="M 585.273438 25.675781 L 743.023438 160.015625 L 611.109375 314.914062 L 453.363281 180.578125 Z M 585.273438 25.675781 " clip-rule="nonzero"/></clipPath><clipPath id="59f302adae"><path d="M 604 85 L 637.027344 85 L 637.027344 155 L 604 155 Z M 604 85 " clip-rule="nonzero"/></clipPath><clipPath id="17c330732b"><path d="M 585.273438 25.675781 L 743.023438 160.015625 L 611.109375 314.914062 L 453.363281 180.578125 Z M 585.273438 25.675781 " clip-rule="nonzero"/></clipPath><clipPath id="c99eafc789"><path d="M 585.273438 25.675781 L 743.023438 160.015625 L 611.109375 314.914062 L 453.363281 180.578125 Z M 585.273438 25.675781 " clip-rule="nonzero"/></clipPath><clipPath id="0cfe50b168"><path d="M 585.273438 25.675781 L 743.023438 160.015625 L 611.109375 314.914062 L 453.363281 180.578125 Z M 585.273438 25.675781 " clip-rule="nonzero"/></clipPath><clipPath id="72bfb17fe5"><path d="M 522 106 L 595 106 L 595 158 L 522 158 Z M 522 106 " clip-rule="nonzero"/></clipPath><clipPath id="d68584dc2a"><path d="M 585.273438 25.675781 L 743.023438 160.015625 L 611.109375 314.914062 L 453.363281 180.578125 Z M 585.273438 25.675781 " clip-rule="nonzero"/></clipPath><clipPath id="af0b1fbf09"><path d="M 585.273438 25.675781 L 743.023438 160.015625 L 611.109375 314.914062 L 453.363281 180.578125 Z M 585.273438 25.675781 " clip-rule="nonzero"/></clipPath><clipPath id="7cfa884aa6"><path d="M 585.273438 25.675781 L 743.023438 160.015625 L 611.109375 314.914062 L 453.363281 180.578125 Z M 585.273438 25.675781 " clip-rule="nonzero"/></clipPath><clipPath id="bb70d8d45e"><path d="M 605 171 L 637.027344 171 L 637.027344 187 L 605 187 Z M 605 171 " clip-rule="nonzero"/></clipPath><clipPath id="492d80d7dc"><path d="M 585.273438 25.675781 L 743.023438 160.015625 L 611.109375 314.914062 L 453.363281 180.578125 Z M 585.273438 25.675781 " clip-rule="nonzero"/></clipPath><clipPath id="9b9a9214fa"><path d="M 585.273438 25.675781 L 743.023438 160.015625 L 611.109375 314.914062 L 453.363281 180.578125 Z M 585.273438 25.675781 " clip-rule="nonzero"/></clipPath><clipPath id="ea0626915b"><path d="M 585.273438 25.675781 L 743.023438 160.015625 L 611.109375 314.914062 L 453.363281 180.578125 Z M 585.273438 25.675781 " clip-rule="nonzero"/></clipPath><clipPath id="76c1826c95"><path d="M 558 171 L 603 171 L 603 187 L 558 187 Z M 558 171 " clip-rule="nonzero"/></clipPath><clipPath id="4cc21fbccd"><path d="M 585.273438 25.675781 L 743.023438 160.015625 L 611.109375 314.914062 L 453.363281 180.578125 Z M 585.273438 25.675781 " clip-rule="nonzero"/></clipPath><clipPath id="913dca03fa"><path d="M 585.273438 25.675781 L 743.023438 160.015625 L 611.109375 314.914062 L 453.363281 180.578125 Z M 585.273438 25.675781 " clip-rule="nonzero"/></clipPath><clipPath id="63f82a19f4"><path d="M 585.273438 25.675781 L 743.023438 160.015625 L 611.109375 314.914062 L 453.363281 180.578125 Z M 585.273438 25.675781 " clip-rule="nonzero"/></clipPath><clipPath id="cc37389e01"><path d="M 611 164 L 637.027344 164 L 637.027344 187 L 611 187 Z M 611 164 " clip-rule="nonzero"/></clipPath><clipPath id="46e651bdbb"><path d="M 585.273438 25.675781 L 743.023438 160.015625 L 611.109375 314.914062 L 453.363281 180.578125 Z M 585.273438 25.675781 " clip-rule="nonzero"/></clipPath><clipPath id="03026b99d9"><path d="M 585.273438 25.675781 L 743.023438 160.015625 L 611.109375 314.914062 L 453.363281 180.578125 Z M 585.273438 25.675781 " clip-rule="nonzero"/></clipPath><clipPath id="0a897037af"><path d="M 585.273438 25.675781 L 743.023438 160.015625 L 611.109375 314.914062 L 453.363281 180.578125 Z M 585.273438 25.675781 " clip-rule="nonzero"/></clipPath><clipPath id="6b599bd29c"><path d="M 612 120 L 637.027344 120 L 637.027344 174 L 612 174 Z M 612 120 " clip-rule="nonzero"/></clipPath><clipPath id="6a087e5b12"><path d="M 585.273438 25.675781 L 743.023438 160.015625 L 611.109375 314.914062 L 453.363281 180.578125 Z M 585.273438 25.675781 " clip-rule="nonzero"/></clipPath><clipPath id="c90a005bdf"><path d="M 585.273438 25.675781 L 743.023438 160.015625 L 611.109375 314.914062 L 453.363281 180.578125 Z M 585.273438 25.675781 " clip-rule="nonzero"/></clipPath><clipPath id="8d0e456bf2"><path d="M 585.273438 25.675781 L 743.023438 160.015625 L 611.109375 314.914062 L 453.363281 180.578125 Z M 585.273438 25.675781 " clip-rule="nonzero"/></clipPath><clipPath id="a9dbb63311"><path d="M 558 101 L 574 101 L 574 116 L 558 116 Z M 558 101 " clip-rule="nonzero"/></clipPath><clipPath id="04627e2c9b"><path d="M 585.273438 25.675781 L 743.023438 160.015625 L 611.109375 314.914062 L 453.363281 180.578125 Z M 585.273438 25.675781 " clip-rule="nonzero"/></clipPath><clipPath id="cd82636c8f"><path d="M 585.273438 25.675781 L 743.023438 160.015625 L 611.109375 314.914062 L 453.363281 180.578125 Z M 585.273438 25.675781 " clip-rule="nonzero"/></clipPath><clipPath id="c80f59143b"><path d="M 585.273438 25.675781 L 743.023438 160.015625 L 611.109375 314.914062 L 453.363281 180.578125 Z M 585.273438 25.675781 " clip-rule="nonzero"/></clipPath><clipPath id="99c06c554b"><path d="M 575 98 L 586 98 L 586 118 L 575 118 Z M 575 98 " clip-rule="nonzero"/></clipPath><clipPath id="1d76dcc465"><path d="M 585.273438 25.675781 L 743.023438 160.015625 L 611.109375 314.914062 L 453.363281 180.578125 Z M 585.273438 25.675781 " clip-rule="nonzero"/></clipPath><clipPath id="1964803ff6"><path d="M 585.273438 25.675781 L 743.023438 160.015625 L 611.109375 314.914062 L 453.363281 180.578125 Z M 585.273438 25.675781 " clip-rule="nonzero"/></clipPath><clipPath id="0a8e2d61a1"><path d="M 585.273438 25.675781 L 743.023438 160.015625 L 611.109375 314.914062 L 453.363281 180.578125 Z M 585.273438 25.675781 " clip-rule="nonzero"/></clipPath><clipPath id="af5723767b"><path d="M 582 127 L 594 127 L 594 141 L 582 141 Z M 582 127 " clip-rule="nonzero"/></clipPath><clipPath id="d0ed91b6a9"><path d="M 585.273438 25.675781 L 743.023438 160.015625 L 611.109375 314.914062 L 453.363281 180.578125 Z M 585.273438 25.675781 " clip-rule="nonzero"/></clipPath><clipPath id="e843301e8d"><path d="M 585.273438 25.675781 L 743.023438 160.015625 L 611.109375 314.914062 L 453.363281 180.578125 Z M 585.273438 25.675781 " clip-rule="nonzero"/></clipPath><clipPath id="b2f4934e00"><path d="M 585.273438 25.675781 L 743.023438 160.015625 L 611.109375 314.914062 L 453.363281 180.578125 Z M 585.273438 25.675781 " clip-rule="nonzero"/></clipPath><clipPath id="5c9e6e2690"><path d="M 591 114 L 597 114 L 597 131 L 591 131 Z M 591 114 " clip-rule="nonzero"/></clipPath><clipPath id="d5cf68fdff"><path d="M 585.273438 25.675781 L 743.023438 160.015625 L 611.109375 314.914062 L 453.363281 180.578125 Z M 585.273438 25.675781 " clip-rule="nonzero"/></clipPath><clipPath id="27d20f0b69"><path d="M 585.273438 25.675781 L 743.023438 160.015625 L 611.109375 314.914062 L 453.363281 180.578125 Z M 585.273438 25.675781 " clip-rule="nonzero"/></clipPath><clipPath id="c2bb616234"><path d="M 585.273438 25.675781 L 743.023438 160.015625 L 611.109375 314.914062 L 453.363281 180.578125 Z M 585.273438 25.675781 " clip-rule="nonzero"/></clipPath><clipPath id="00cb227b29"><path d="M 587 86 L 595 86 L 595 107 L 587 107 Z M 587 86 " clip-rule="nonzero"/></clipPath><clipPath id="a68ab64ff6"><path d="M 585.273438 25.675781 L 743.023438 160.015625 L 611.109375 314.914062 L 453.363281 180.578125 Z M 585.273438 25.675781 " clip-rule="nonzero"/></clipPath><clipPath id="82ebe1aff9"><path d="M 585.273438 25.675781 L 743.023438 160.015625 L 611.109375 314.914062 L 453.363281 180.578125 Z M 585.273438 25.675781 " clip-rule="nonzero"/></clipPath><clipPath id="2fd9b799e4"><path d="M 585.273438 25.675781 L 743.023438 160.015625 L 611.109375 314.914062 L 453.363281 180.578125 Z M 585.273438 25.675781 " clip-rule="nonzero"/></clipPath><clipPath id="b377f56018"><path d="M 610 96 L 617 96 L 617 117 L 610 117 Z M 610 96 " clip-rule="nonzero"/></clipPath><clipPath id="16142ee79b"><path d="M 585.273438 25.675781 L 743.023438 160.015625 L 611.109375 314.914062 L 453.363281 180.578125 Z M 585.273438 25.675781 " clip-rule="nonzero"/></clipPath><clipPath id="7bbbbdba89"><path d="M 585.273438 25.675781 L 743.023438 160.015625 L 611.109375 314.914062 L 453.363281 180.578125 Z M 585.273438 25.675781 " clip-rule="nonzero"/></clipPath><clipPath id="a035632704"><path d="M 585.273438 25.675781 L 743.023438 160.015625 L 611.109375 314.914062 L 453.363281 180.578125 Z M 585.273438 25.675781 " clip-rule="nonzero"/></clipPath><clipPath id="7bc460842f"><path d="M 620 97 L 630 97 L 630 117 L 620 117 Z M 620 97 " clip-rule="nonzero"/></clipPath><clipPath id="a056a37c27"><path d="M 585.273438 25.675781 L 743.023438 160.015625 L 611.109375 314.914062 L 453.363281 180.578125 Z M 585.273438 25.675781 " clip-rule="nonzero"/></clipPath><clipPath id="6ef4b5bf15"><path d="M 585.273438 25.675781 L 743.023438 160.015625 L 611.109375 314.914062 L 453.363281 180.578125 Z M 585.273438 25.675781 " clip-rule="nonzero"/></clipPath><clipPath id="d176620211"><path d="M 585.273438 25.675781 L 743.023438 160.015625 L 611.109375 314.914062 L 453.363281 180.578125 Z M 585.273438 25.675781 " clip-rule="nonzero"/></clipPath><clipPath id="bdfdaa9be9"><path d="M 608 126 L 614 126 L 614 142 L 608 142 Z M 608 126 " clip-rule="nonzero"/></clipPath><clipPath id="148a06cc60"><path d="M 585.273438 25.675781 L 743.023438 160.015625 L 611.109375 314.914062 L 453.363281 180.578125 Z M 585.273438 25.675781 " clip-rule="nonzero"/></clipPath><clipPath id="674e502f65"><path d="M 585.273438 25.675781 L 743.023438 160.015625 L 611.109375 314.914062 L 453.363281 180.578125 Z M 585.273438 25.675781 " clip-rule="nonzero"/></clipPath><clipPath id="f20eb00f53"><path d="M 585.273438 25.675781 L 743.023438 160.015625 L 611.109375 314.914062 L 453.363281 180.578125 Z M 585.273438 25.675781 " clip-rule="nonzero"/></clipPath><clipPath id="ed7ea52cc9"><path d="M 617 123 L 627 123 L 627 137 L 617 137 Z M 617 123 " clip-rule="nonzero"/></clipPath><clipPath id="8de1780747"><path d="M 585.273438 25.675781 L 743.023438 160.015625 L 611.109375 314.914062 L 453.363281 180.578125 Z M 585.273438 25.675781 " clip-rule="nonzero"/></clipPath><clipPath id="e14ba2b126"><path d="M 585.273438 25.675781 L 743.023438 160.015625 L 611.109375 314.914062 L 453.363281 180.578125 Z M 585.273438 25.675781 " clip-rule="nonzero"/></clipPath><clipPath id="63032f67b5"><path d="M 585.273438 25.675781 L 743.023438 160.015625 L 611.109375 314.914062 L 453.363281 180.578125 Z M 585.273438 25.675781 " clip-rule="nonzero"/></clipPath><clipPath id="98b4fca8c4"><path d="M 633 117 L 637.027344 117 L 637.027344 129 L 633 129 Z M 633 117 " clip-rule="nonzero"/></clipPath><clipPath id="dfea1ca3ab"><path d="M 585.273438 25.675781 L 743.023438 160.015625 L 611.109375 314.914062 L 453.363281 180.578125 Z M 585.273438 25.675781 " clip-rule="nonzero"/></clipPath><clipPath id="43ede808c7"><path d="M 585.273438 25.675781 L 743.023438 160.015625 L 611.109375 314.914062 L 453.363281 180.578125 Z M 585.273438 25.675781 " clip-rule="nonzero"/></clipPath><clipPath id="1c663e5a79"><path d="M 585.273438 25.675781 L 743.023438 160.015625 L 611.109375 314.914062 L 453.363281 180.578125 Z M 585.273438 25.675781 " clip-rule="nonzero"/></clipPath><clipPath id="2815a86dc6"><path d="M 631 102 L 637.027344 102 L 637.027344 120 L 631 120 Z M 631 102 " clip-rule="nonzero"/></clipPath><clipPath id="eaa1b45dcb"><path d="M 585.273438 25.675781 L 743.023438 160.015625 L 611.109375 314.914062 L 453.363281 180.578125 Z M 585.273438 25.675781 " clip-rule="nonzero"/></clipPath><clipPath id="b6f605503e"><path d="M 585.273438 25.675781 L 743.023438 160.015625 L 611.109375 314.914062 L 453.363281 180.578125 Z M 585.273438 25.675781 " clip-rule="nonzero"/></clipPath><clipPath id="2730b1632d"><path d="M 585.273438 25.675781 L 743.023438 160.015625 L 611.109375 314.914062 L 453.363281 180.578125 Z M 585.273438 25.675781 " clip-rule="nonzero"/></clipPath><clipPath id="412b6551e4"><path d="M 618 147 L 632 147 L 632 157 L 618 157 Z M 618 147 " clip-rule="nonzero"/></clipPath><clipPath id="7581def0ec"><path d="M 585.273438 25.675781 L 743.023438 160.015625 L 611.109375 314.914062 L 453.363281 180.578125 Z M 585.273438 25.675781 " clip-rule="nonzero"/></clipPath><clipPath id="3d9f477581"><path d="M 585.273438 25.675781 L 743.023438 160.015625 L 611.109375 314.914062 L 453.363281 180.578125 Z M 585.273438 25.675781 " clip-rule="nonzero"/></clipPath><clipPath id="3332e9026c"><path d="M 585.273438 25.675781 L 743.023438 160.015625 L 611.109375 314.914062 L 453.363281 180.578125 Z M 585.273438 25.675781 " clip-rule="nonzero"/></clipPath><clipPath id="2f88b8d7ad"><path d="M 631 151 L 637.027344 151 L 637.027344 158 L 631 158 Z M 631 151 " clip-rule="nonzero"/></clipPath><clipPath id="a614f108a8"><path d="M 585.273438 25.675781 L 743.023438 160.015625 L 611.109375 314.914062 L 453.363281 180.578125 Z M 585.273438 25.675781 " clip-rule="nonzero"/></clipPath><clipPath id="2f0525d271"><path d="M 585.273438 25.675781 L 743.023438 160.015625 L 611.109375 314.914062 L 453.363281 180.578125 Z M 585.273438 25.675781 " clip-rule="nonzero"/></clipPath><clipPath id="b7badd3beb"><path d="M 585.273438 25.675781 L 743.023438 160.015625 L 611.109375 314.914062 L 453.363281 180.578125 Z M 585.273438 25.675781 " clip-rule="nonzero"/></clipPath><clipPath id="23f3e4e205"><path d="M 624 170 L 637.027344 170 L 637.027344 179 L 624 179 Z M 624 170 " clip-rule="nonzero"/></clipPath><clipPath id="ea0cd03fa9"><path d="M 585.273438 25.675781 L 743.023438 160.015625 L 611.109375 314.914062 L 453.363281 180.578125 Z M 585.273438 25.675781 " clip-rule="nonzero"/></clipPath><clipPath id="09fbd9e570"><path d="M 585.273438 25.675781 L 743.023438 160.015625 L 611.109375 314.914062 L 453.363281 180.578125 Z M 585.273438 25.675781 " clip-rule="nonzero"/></clipPath><clipPath id="2493294b2f"><path d="M 585.273438 25.675781 L 743.023438 160.015625 L 611.109375 314.914062 L 453.363281 180.578125 Z M 585.273438 25.675781 " clip-rule="nonzero"/></clipPath><clipPath id="c3135b98a1"><path d="M 628 181 L 637.027344 181 L 637.027344 187 L 628 187 Z M 628 181 " clip-rule="nonzero"/></clipPath><clipPath id="3aede216c3"><path d="M 585.273438 25.675781 L 743.023438 160.015625 L 611.109375 314.914062 L 453.363281 180.578125 Z M 585.273438 25.675781 " clip-rule="nonzero"/></clipPath><clipPath id="ba37101c1f"><path d="M 585.273438 25.675781 L 743.023438 160.015625 L 611.109375 314.914062 L 453.363281 180.578125 Z M 585.273438 25.675781 " clip-rule="nonzero"/></clipPath><clipPath id="24ca3715ea"><path d="M 585.273438 25.675781 L 743.023438 160.015625 L 611.109375 314.914062 L 453.363281 180.578125 Z M 585.273438 25.675781 " clip-rule="nonzero"/></clipPath><clipPath id="5eaa8daf46"><path d="M 611 183 L 623 183 L 623 187 L 611 187 Z M 611 183 " clip-rule="nonzero"/></clipPath><clipPath id="2f38d8871a"><path d="M 585.273438 25.675781 L 743.023438 160.015625 L 611.109375 314.914062 L 453.363281 180.578125 Z M 585.273438 25.675781 " clip-rule="nonzero"/></clipPath><clipPath id="864f708edc"><path d="M 585.273438 25.675781 L 743.023438 160.015625 L 611.109375 314.914062 L 453.363281 180.578125 Z M 585.273438 25.675781 " clip-rule="nonzero"/></clipPath><clipPath id="1f5321be50"><path d="M 585.273438 25.675781 L 743.023438 160.015625 L 611.109375 314.914062 L 453.363281 180.578125 Z M 585.273438 25.675781 " clip-rule="nonzero"/></clipPath><clipPath id="723efe9e61"><path d="M 574 177 L 585 177 L 585 187 L 574 187 Z M 574 177 " clip-rule="nonzero"/></clipPath><clipPath id="a8e43c62c0"><path d="M 585.273438 25.675781 L 743.023438 160.015625 L 611.109375 314.914062 L 453.363281 180.578125 Z M 585.273438 25.675781 " clip-rule="nonzero"/></clipPath><clipPath id="e7f2a4aa77"><path d="M 585.273438 25.675781 L 743.023438 160.015625 L 611.109375 314.914062 L 453.363281 180.578125 Z M 585.273438 25.675781 " clip-rule="nonzero"/></clipPath><clipPath id="76600667f6"><path d="M 585.273438 25.675781 L 743.023438 160.015625 L 611.109375 314.914062 L 453.363281 180.578125 Z M 585.273438 25.675781 " clip-rule="nonzero"/></clipPath><clipPath id="dfaad21d8c"><path d="M 559 176 L 575 176 L 575 185 L 559 185 Z M 559 176 " clip-rule="nonzero"/></clipPath><clipPath id="af35870482"><path d="M 585.273438 25.675781 L 743.023438 160.015625 L 611.109375 314.914062 L 453.363281 180.578125 Z M 585.273438 25.675781 " clip-rule="nonzero"/></clipPath><clipPath id="36f5723f7f"><path d="M 585.273438 25.675781 L 743.023438 160.015625 L 611.109375 314.914062 L 453.363281 180.578125 Z M 585.273438 25.675781 " clip-rule="nonzero"/></clipPath><clipPath id="287486e8a6"><path d="M 585.273438 25.675781 L 743.023438 160.015625 L 611.109375 314.914062 L 453.363281 180.578125 Z M 585.273438 25.675781 " clip-rule="nonzero"/></clipPath><clipPath id="28f0589550"><path d="M 534 183 L 554 183 L 554 187 L 534 187 Z M 534 183 " clip-rule="nonzero"/></clipPath><clipPath id="1d9de2ddfe"><path d="M 585.273438 25.675781 L 743.023438 160.015625 L 611.109375 314.914062 L 453.363281 180.578125 Z M 585.273438 25.675781 " clip-rule="nonzero"/></clipPath><clipPath id="0a43a6aff9"><path d="M 585.273438 25.675781 L 743.023438 160.015625 L 611.109375 314.914062 L 453.363281 180.578125 Z M 585.273438 25.675781 " clip-rule="nonzero"/></clipPath><clipPath id="2a62990339"><path d="M 585.273438 25.675781 L 743.023438 160.015625 L 611.109375 314.914062 L 453.363281 180.578125 Z M 585.273438 25.675781 " clip-rule="nonzero"/></clipPath><clipPath id="a770381b2a"><path d="M 539 165 L 560 165 L 560 173 L 539 173 Z M 539 165 " clip-rule="nonzero"/></clipPath><clipPath id="bd0cd72a0e"><path d="M 585.273438 25.675781 L 743.023438 160.015625 L 611.109375 314.914062 L 453.363281 180.578125 Z M 585.273438 25.675781 " clip-rule="nonzero"/></clipPath><clipPath id="558c9b2101"><path d="M 585.273438 25.675781 L 743.023438 160.015625 L 611.109375 314.914062 L 453.363281 180.578125 Z M 585.273438 25.675781 " clip-rule="nonzero"/></clipPath><clipPath id="9766a95da8"><path d="M 585.273438 25.675781 L 743.023438 160.015625 L 611.109375 314.914062 L 453.363281 180.578125 Z M 585.273438 25.675781 " clip-rule="nonzero"/></clipPath><clipPath id="c3fefa91f1"><path d="M 558 159 L 574 159 L 574 165 L 558 165 Z M 558 159 " clip-rule="nonzero"/></clipPath><clipPath id="9425cff613"><path d="M 585.273438 25.675781 L 743.023438 160.015625 L 611.109375 314.914062 L 453.363281 180.578125 Z M 585.273438 25.675781 " clip-rule="nonzero"/></clipPath><clipPath id="5f8d4f49ee"><path d="M 585.273438 25.675781 L 743.023438 160.015625 L 611.109375 314.914062 L 453.363281 180.578125 Z M 585.273438 25.675781 " clip-rule="nonzero"/></clipPath><clipPath id="e57a3609d3"><path d="M 585.273438 25.675781 L 743.023438 160.015625 L 611.109375 314.914062 L 453.363281 180.578125 Z M 585.273438 25.675781 " clip-rule="nonzero"/></clipPath><clipPath id="5e4b6c6b0c"><path d="M 522 162 L 539 162 L 539 168 L 522 168 Z M 522 162 " clip-rule="nonzero"/></clipPath><clipPath id="a1a74ca061"><path d="M 585.273438 25.675781 L 743.023438 160.015625 L 611.109375 314.914062 L 453.363281 180.578125 Z M 585.273438 25.675781 " clip-rule="nonzero"/></clipPath><clipPath id="977976667e"><path d="M 585.273438 25.675781 L 743.023438 160.015625 L 611.109375 314.914062 L 453.363281 180.578125 Z M 585.273438 25.675781 " clip-rule="nonzero"/></clipPath><clipPath id="71a6c9557d"><path d="M 585.273438 25.675781 L 743.023438 160.015625 L 611.109375 314.914062 L 453.363281 180.578125 Z M 585.273438 25.675781 " clip-rule="nonzero"/></clipPath><clipPath id="6ce31e371e"><path d="M 526 152 L 547 152 L 547 160 L 526 160 Z M 526 152 " clip-rule="nonzero"/></clipPath><clipPath id="b1d220ba1e"><path d="M 585.273438 25.675781 L 743.023438 160.015625 L 611.109375 314.914062 L 453.363281 180.578125 Z M 585.273438 25.675781 " clip-rule="nonzero"/></clipPath><clipPath id="432bfef5b5"><path d="M 585.273438 25.675781 L 743.023438 160.015625 L 611.109375 314.914062 L 453.363281 180.578125 Z M 585.273438 25.675781 " clip-rule="nonzero"/></clipPath><clipPath id="dcad5f0ba0"><path d="M 585.273438 25.675781 L 743.023438 160.015625 L 611.109375 314.914062 L 453.363281 180.578125 Z M 585.273438 25.675781 " clip-rule="nonzero"/></clipPath><clipPath id="4c65cb3ef8"><path d="M 546 130 L 566 130 L 566 141 L 546 141 Z M 546 130 " clip-rule="nonzero"/></clipPath><clipPath id="de1d086191"><path d="M 585.273438 25.675781 L 743.023438 160.015625 L 611.109375 314.914062 L 453.363281 180.578125 Z M 585.273438 25.675781 " clip-rule="nonzero"/></clipPath><clipPath id="bc6463aed3"><path d="M 585.273438 25.675781 L 743.023438 160.015625 L 611.109375 314.914062 L 453.363281 180.578125 Z M 585.273438 25.675781 " clip-rule="nonzero"/></clipPath><clipPath id="ef8bf2949d"><path d="M 585.273438 25.675781 L 743.023438 160.015625 L 611.109375 314.914062 L 453.363281 180.578125 Z M 585.273438 25.675781 " clip-rule="nonzero"/></clipPath><clipPath id="1dc97fcb82"><path d="M 569 139 L 582 139 L 582 150 L 569 150 Z M 569 139 " clip-rule="nonzero"/></clipPath><clipPath id="33171a843c"><path d="M 585.273438 25.675781 L 743.023438 160.015625 L 611.109375 314.914062 L 453.363281 180.578125 Z M 585.273438 25.675781 " clip-rule="nonzero"/></clipPath><clipPath id="9698c65584"><path d="M 585.273438 25.675781 L 743.023438 160.015625 L 611.109375 314.914062 L 453.363281 180.578125 Z M 585.273438 25.675781 " clip-rule="nonzero"/></clipPath><clipPath id="1f33a23bfc"><path d="M 585.273438 25.675781 L 743.023438 160.015625 L 611.109375 314.914062 L 453.363281 180.578125 Z M 585.273438 25.675781 " clip-rule="nonzero"/></clipPath><clipPath id="87c41d973a"><path d="M 543 114 L 560 114 L 560 129 L 543 129 Z M 543 114 " clip-rule="nonzero"/></clipPath><clipPath id="c2a2c8ab82"><path d="M 585.273438 25.675781 L 743.023438 160.015625 L 611.109375 314.914062 L 453.363281 180.578125 Z M 585.273438 25.675781 " clip-rule="nonzero"/></clipPath><clipPath id="83284efa27"><path d="M 585.273438 25.675781 L 743.023438 160.015625 L 611.109375 314.914062 L 453.363281 180.578125 Z M 585.273438 25.675781 " clip-rule="nonzero"/></clipPath><clipPath id="f7f0e4e68a"><path d="M 585.273438 25.675781 L 743.023438 160.015625 L 611.109375 314.914062 L 453.363281 180.578125 Z M 585.273438 25.675781 " clip-rule="nonzero"/></clipPath><clipPath id="7406bf9902"><path d="M 530 134 L 550 134 L 550 144 L 530 144 Z M 530 134 " clip-rule="nonzero"/></clipPath><clipPath id="73f6af3605"><path d="M 585.273438 25.675781 L 743.023438 160.015625 L 611.109375 314.914062 L 453.363281 180.578125 Z M 585.273438 25.675781 " clip-rule="nonzero"/></clipPath><clipPath id="67e4701073"><path d="M 585.273438 25.675781 L 743.023438 160.015625 L 611.109375 314.914062 L 453.363281 180.578125 Z M 585.273438 25.675781 " clip-rule="nonzero"/></clipPath><clipPath id="06674bf965"><path d="M 585.273438 25.675781 L 743.023438 160.015625 L 611.109375 314.914062 L 453.363281 180.578125 Z M 585.273438 25.675781 " clip-rule="nonzero"/></clipPath></defs><g clip-path="url(#6e68f84f49)"><path fill="#ffffff" d="M 0.476562 0 L 1436.644531 0 L 1436.644531 374.003906 L 0.476562 374.003906 Z M 0.476562 0 " fill-opacity="1" fill-rule="nonzero"/><path fill="#cb6ce6" d="M 0.476562 0 L 1436.644531 0 L 1436.644531 374.003906 L 0.476562 374.003906 Z M 0.476562 0 " fill-opacity="1" fill-rule="nonzero"/></g><g clip-path="url(#4ca5e63ed6)"><g clip-path="url(#716f2a00f4)"><g clip-path="url(#2c57493461)"><g clip-path="url(#ad2e76b0cd)"><path fill="#f2c91d" d="M 638.273438 75.761719 C 649.28125 81.175781 659.476562 88.914062 668.355469 98.441406 C 679.148438 110.015625 688.28125 123.296875 694.058594 138.03125 C 712.21875 184.359375 677.214844 237.257812 636.359375 258.511719 C 630.054688 261.765625 621.066406 266.117188 608.519531 267.269531 C 561.449219 271.546875 506.566406 225.855469 502.8125 171.941406 C 500.796875 143.019531 514.15625 121.351562 518.671875 114.253906 C 520.285156 111.714844 548.605469 68.71875 597.054688 67.167969 C 617.40625 66.515625 633.363281 73.34375 638.273438 75.761719 Z M 638.273438 75.761719 " fill-opacity="1" fill-rule="nonzero"/></g></g></g></g><g clip-path="url(#e548537de2)"><g clip-path="url(#57d8d6a5bc)"><g clip-path="url(#f43e2e1883)"><g clip-path="url(#be342e3aeb)"><path fill="#f0efeb" d="M 689.222656 158.238281 C 687.445312 138.988281 678.167969 121.121094 663.949219 108.160156 C 642.855469 88.933594 618.929688 73.855469 589.167969 77.15625 C 555.222656 80.925781 529.253906 107.699219 518.46875 133.957031 C 516.246094 139.355469 514.578125 144.917969 513.460938 150.648438 C 512.347656 156.375 511.804688 162.15625 511.835938 167.992188 C 512.121094 193.140625 524.117188 215.949219 542.542969 232.910156 C 561.011719 249.917969 585.804688 261.332031 611.242188 257.101562 C 654.316406 249.941406 693.257812 201.886719 689.222656 158.238281 Z M 689.222656 158.238281 " fill-opacity="1" fill-rule="nonzero"/></g></g></g></g><g clip-path="url(#5c2d759264)"><g clip-path="url(#6d76cfb109)"><g clip-path="url(#94abe40050)"><g clip-path="url(#5ea7f1782a)"><path fill="#f2ad11" d="M 601.667969 90.238281 C 601.671875 89.742188 601.628906 89.246094 601.535156 88.757812 C 601.4375 88.265625 601.296875 87.792969 601.109375 87.332031 C 600.921875 86.867188 600.6875 86.429688 600.410156 86.015625 C 600.136719 85.597656 599.824219 85.214844 599.46875 84.863281 C 599.117188 84.507812 598.734375 84.195312 598.320312 83.917969 C 597.90625 83.640625 597.46875 83.40625 597.007812 83.21875 C 596.546875 83.027344 596.070312 82.882812 595.582031 82.789062 C 595.089844 82.695312 594.597656 82.648438 594.097656 82.648438 C 585.898438 82.664062 577.714844 84.125 569.867188 87.382812 C 564.167969 89.785156 558.871094 92.875 553.96875 96.652344 C 553.546875 96.972656 553.160156 97.335938 552.8125 97.742188 C 552.464844 98.144531 552.164062 98.582031 551.90625 99.050781 C 551.652344 99.515625 551.449219 100.007812 551.296875 100.519531 C 551.148438 101.03125 551.050781 101.550781 551.011719 102.082031 C 550.96875 102.613281 550.984375 103.144531 551.058594 103.671875 C 551.128906 104.199219 551.257812 104.714844 551.4375 105.214844 C 551.621094 105.71875 551.851562 106.191406 552.136719 106.644531 C 552.417969 107.097656 552.746094 107.511719 553.117188 107.894531 C 565.582031 120.707031 592.742188 148.554688 596.910156 152.265625 C 597.808594 153.066406 599.109375 154.054688 600.0625 153.660156 C 601.457031 153.082031 601.355469 149.882812 601.332031 148.914062 C 601.210938 143.808594 601.378906 121.546875 601.667969 90.238281 Z M 601.667969 90.238281 " fill-opacity="1" fill-rule="nonzero"/></g></g></g></g><g clip-path="url(#2b6c2e3e4b)"><g clip-path="url(#a948100f21)"><g clip-path="url(#6f8c643bde)"><g clip-path="url(#b61a084a8c)"><path fill="#f2ad11" d="M 592.207031 168.957031 C 588.59375 170.042969 564.71875 176.746094 530.546875 186.300781 C 530.179688 186.402344 529.820312 186.527344 529.46875 186.667969 C 529.113281 186.8125 528.769531 186.972656 528.433594 187.15625 C 528.097656 187.335938 527.773438 187.535156 527.460938 187.75 C 527.148438 187.96875 526.847656 188.203125 526.558594 188.453125 C 526.269531 188.703125 526 188.96875 525.742188 189.25 C 525.480469 189.53125 525.242188 189.824219 525.015625 190.132812 C 524.789062 190.4375 524.582031 190.757812 524.390625 191.085938 C 524.203125 191.417969 524.03125 191.757812 523.878906 192.109375 C 523.726562 192.457031 523.59375 192.8125 523.480469 193.179688 C 523.367188 193.542969 523.273438 193.910156 523.203125 194.285156 C 523.132812 194.660156 523.082031 195.039062 523.050781 195.417969 C 523.019531 195.796875 523.011719 196.179688 523.023438 196.558594 C 523.035156 196.941406 523.070312 197.320312 523.125 197.695312 C 523.179688 198.074219 523.253906 198.445312 523.347656 198.816406 C 523.445312 199.183594 523.5625 199.546875 523.695312 199.902344 C 523.832031 200.257812 523.988281 200.605469 524.164062 200.945312 C 528.59375 209.527344 534.40625 217.039062 541.605469 223.476562 C 542.132812 223.949219 542.703125 224.367188 543.320312 224.722656 C 543.933594 225.082031 544.578125 225.371094 545.25 225.597656 C 545.925781 225.820312 546.613281 225.972656 547.320312 226.054688 C 548.027344 226.136719 548.734375 226.144531 549.441406 226.078125 C 550.148438 226.015625 550.84375 225.878906 551.523438 225.667969 C 552.203125 225.460938 552.851562 225.1875 553.476562 224.84375 C 554.097656 224.5 554.679688 224.097656 555.21875 223.636719 C 555.757812 223.171875 556.246094 222.660156 556.679688 222.097656 C 569.738281 205.082031 592.339844 175.535156 594.761719 171.75 C 595.121094 171.183594 596.132812 169.601562 595.597656 168.875 C 595.019531 168.089844 592.867188 168.757812 592.207031 168.957031 Z M 592.207031 168.957031 " fill-opacity="1" fill-rule="nonzero"/></g></g></g></g><g clip-path="url(#e915f729d5)"><g clip-path="url(#23ea58ef59)"><g clip-path="url(#d09d66582c)"><g clip-path="url(#ece909a77f)"><path fill="#f2ad11" d="M 590.796875 161.527344 C 586.105469 159.609375 550.488281 152.257812 527.367188 147.578125 C 526.910156 147.484375 526.445312 147.4375 525.980469 147.433594 C 525.515625 147.429688 525.050781 147.472656 524.59375 147.558594 C 524.136719 147.648438 523.691406 147.777344 523.257812 147.953125 C 522.828125 148.128906 522.414062 148.34375 522.023438 148.597656 C 521.632812 148.851562 521.273438 149.144531 520.9375 149.46875 C 520.605469 149.792969 520.304688 150.148438 520.039062 150.535156 C 519.777344 150.917969 519.550781 151.324219 519.367188 151.75 C 519.179688 152.179688 519.039062 152.621094 518.9375 153.078125 C 517.273438 160.617188 516.667969 168.242188 517.113281 175.949219 C 517.148438 176.480469 517.242188 177 517.390625 177.511719 C 517.542969 178.023438 517.746094 178.507812 518.007812 178.972656 C 518.265625 179.4375 518.570312 179.867188 518.925781 180.265625 C 519.28125 180.660156 519.675781 181.011719 520.109375 181.320312 C 520.542969 181.628906 521.003906 181.886719 521.496094 182.089844 C 521.988281 182.296875 522.496094 182.445312 523.019531 182.539062 C 523.542969 182.628906 524.070312 182.664062 524.601562 182.636719 C 525.132812 182.613281 525.65625 182.527344 526.167969 182.386719 C 561.628906 172.570312 585.289062 166.121094 589.707031 165.171875 C 590.445312 165.011719 593.246094 164.441406 593.308594 163.433594 C 593.371094 162.578125 591.480469 161.804688 590.796875 161.527344 Z M 590.796875 161.527344 " fill-opacity="1" fill-rule="nonzero"/></g></g></g></g><g clip-path="url(#59f302adae)"><g clip-path="url(#17c330732b)"><g clip-path="url(#c99eafc789)"><g clip-path="url(#0cfe50b168)"><path fill="#f2ad11" d="M 651.984375 119.171875 C 652.503906 118.773438 652.96875 118.320312 653.382812 117.816406 C 653.800781 117.316406 654.15625 116.773438 654.453125 116.191406 C 654.75 115.609375 654.976562 115.003906 655.136719 114.371094 C 655.296875 113.738281 655.386719 113.097656 655.40625 112.445312 C 655.425781 111.792969 655.371094 111.144531 655.246094 110.503906 C 655.121094 109.867188 654.925781 109.246094 654.664062 108.648438 C 654.402344 108.054688 654.078125 107.492188 653.6875 106.96875 C 653.300781 106.441406 652.863281 105.96875 652.367188 105.539062 C 647.578125 101.429688 642.433594 97.824219 636.933594 94.726562 C 630.828125 91.257812 624.425781 88.472656 617.722656 86.375 C 617.402344 86.277344 617.074219 86.195312 616.742188 86.136719 C 616.410156 86.074219 616.078125 86.035156 615.742188 86.011719 C 615.402344 85.988281 615.066406 85.984375 614.730469 86 C 614.394531 86.015625 614.058594 86.050781 613.726562 86.105469 C 613.394531 86.160156 613.066406 86.234375 612.742188 86.328125 C 612.417969 86.417969 612.097656 86.527344 611.789062 86.65625 C 611.476562 86.785156 611.171875 86.929688 610.875 87.09375 C 610.582031 87.257812 610.296875 87.4375 610.023438 87.632812 C 609.746094 87.828125 609.484375 88.039062 609.234375 88.265625 C 608.984375 88.492188 608.746094 88.730469 608.523438 88.984375 C 608.300781 89.238281 608.09375 89.5 607.902344 89.777344 C 607.707031 90.054688 607.53125 90.34375 607.371094 90.640625 C 607.210938 90.9375 607.070312 91.242188 606.945312 91.554688 C 606.820312 91.867188 606.714844 92.1875 606.625 92.511719 C 606.535156 92.835938 606.46875 93.167969 606.417969 93.5 C 606.367188 93.832031 606.335938 94.167969 606.324219 94.503906 C 605.664062 111.984375 605.023438 125.105469 604.476562 135.050781 C 604.132812 141.265625 603.441406 153.234375 607.0625 154.347656 C 608.707031 154.851562 610.644531 152.9375 611.335938 152.257812 C 616.804688 146.921875 631.113281 135.398438 651.984375 119.171875 Z M 651.984375 119.171875 " fill-opacity="1" fill-rule="nonzero"/></g></g></g></g><g clip-path="url(#72bfb17fe5)"><g clip-path="url(#d68584dc2a)"><g clip-path="url(#af0b1fbf09)"><g clip-path="url(#7cfa884aa6)"><path fill="#f2ad11" d="M 593.589844 154.910156 C 580.835938 139.675781 558.429688 118.84375 558.429688 118.84375 C 548.632812 109.738281 545.917969 105.671875 541.578125 106.535156 C 538.519531 107.140625 535.609375 111.953125 529.90625 121.542969 C 522.453125 134.085938 522.625 136.328125 523.226562 137.847656 C 524.132812 140.132812 526.359375 141.628906 536.960938 144.921875 C 545.960938 147.714844 549.800781 148.328125 556.378906 150.078125 C 556.378906 150.078125 577.746094 155.78125 592.34375 157.617188 C 592.957031 157.699219 594.269531 157.835938 594.605469 157.238281 C 594.972656 156.597656 594.019531 155.425781 593.589844 154.910156 Z M 593.589844 154.910156 " fill-opacity="1" fill-rule="nonzero"/></g></g></g></g><g clip-path="url(#bb70d8d45e)"><g clip-path="url(#492d80d7dc)"><g clip-path="url(#9b9a9214fa)"><g clip-path="url(#ea0626915b)"><path fill="#f2ad11" d="M 606.234375 175.253906 C 606.046875 184.328125 605.910156 193.484375 605.820312 202.726562 C 605.703125 214.902344 605.683594 226.941406 605.757812 238.84375 C 605.761719 239.523438 605.839844 240.199219 605.992188 240.863281 C 606.144531 241.527344 606.363281 242.167969 606.65625 242.78125 C 606.949219 243.398438 607.304688 243.976562 607.722656 244.511719 C 608.144531 245.050781 608.617188 245.535156 609.140625 245.96875 C 609.667969 246.402344 610.234375 246.773438 610.839844 247.082031 C 611.449219 247.390625 612.082031 247.628906 612.742188 247.800781 C 613.402344 247.96875 614.074219 248.066406 614.753906 248.085938 C 615.4375 248.109375 616.113281 248.058594 616.78125 247.929688 C 620.5 247.242188 624.140625 246.269531 627.703125 245.011719 C 634.644531 242.496094 641.035156 238.984375 646.878906 234.476562 C 647.363281 234.101562 647.804688 233.679688 648.207031 233.21875 C 648.609375 232.753906 648.960938 232.253906 649.265625 231.722656 C 649.566406 231.1875 649.816406 230.628906 650.007812 230.046875 C 650.203125 229.464844 650.335938 228.867188 650.410156 228.257812 C 650.484375 227.652344 650.5 227.039062 650.453125 226.429688 C 650.40625 225.816406 650.300781 225.214844 650.136719 224.625 C 649.972656 224.035156 649.75 223.464844 649.472656 222.917969 C 649.195312 222.371094 648.867188 221.855469 648.488281 221.375 C 636.320312 205.867188 612.976562 176.195312 609.753906 172.757812 C 609.304688 172.28125 608.089844 170.980469 607.21875 171.300781 C 606.21875 171.660156 606.179688 173.929688 606.234375 175.253906 Z M 606.234375 175.253906 " fill-opacity="1" fill-rule="nonzero"/></g></g></g></g><g clip-path="url(#76c1826c95)"><g clip-path="url(#4cc21fbccd)"><g clip-path="url(#913dca03fa)"><g clip-path="url(#63f82a19f4)"><path fill="#f2ad11" d="M 602.261719 174.933594 C 602.246094 174.015625 602.1875 172.03125 601.242188 171.683594 C 600.070312 171.238281 598.148438 173.585938 597.15625 174.855469 C 592.75 180.484375 571.078125 210.273438 560.15625 225.289062 C 559.769531 225.824219 559.4375 226.398438 559.164062 227.003906 C 558.894531 227.613281 558.6875 228.238281 558.546875 228.890625 C 558.402344 229.539062 558.332031 230.195312 558.324219 230.859375 C 558.320312 231.523438 558.382812 232.183594 558.515625 232.835938 C 558.644531 233.484375 558.839844 234.117188 559.105469 234.726562 C 559.367188 235.335938 559.6875 235.914062 560.070312 236.457031 C 560.453125 237.003906 560.886719 237.5 561.371094 237.953125 C 561.855469 238.40625 562.382812 238.808594 562.953125 239.152344 L 563.058594 239.214844 C 566.84375 241.492188 570.8125 243.398438 574.960938 244.925781 C 579.917969 246.75 585.011719 248.015625 590.246094 248.722656 C 590.914062 248.8125 591.585938 248.828125 592.261719 248.777344 C 592.933594 248.722656 593.59375 248.597656 594.242188 248.40625 C 594.890625 248.210938 595.511719 247.953125 596.105469 247.628906 C 596.699219 247.304688 597.25 246.921875 597.761719 246.480469 C 598.277344 246.039062 598.738281 245.550781 599.144531 245.011719 C 599.554688 244.472656 599.902344 243.898438 600.191406 243.285156 C 600.480469 242.671875 600.699219 242.039062 600.851562 241.378906 C 601.007812 240.722656 601.089844 240.054688 601.101562 239.378906 C 601.503906 220.242188 602.335938 180.722656 602.261719 174.933594 Z M 602.261719 174.933594 " fill-opacity="1" fill-rule="nonzero"/></g></g></g></g><g clip-path="url(#cc37389e01)"><g clip-path="url(#46e651bdbb)"><g clip-path="url(#03026b99d9)"><g clip-path="url(#0a897037af)"><path fill="#f2ad11" d="M 615.117188 171.511719 L 650.714844 216.285156 C 650.917969 216.539062 651.136719 216.785156 651.367188 217.015625 C 651.601562 217.246094 651.847656 217.460938 652.101562 217.664062 C 652.359375 217.867188 652.628906 218.054688 652.910156 218.222656 C 653.1875 218.394531 653.476562 218.546875 653.773438 218.683594 C 654.070312 218.820312 654.375 218.941406 654.6875 219.042969 C 655 219.144531 655.316406 219.226562 655.636719 219.289062 C 655.957031 219.355469 656.28125 219.398438 656.609375 219.425781 C 656.933594 219.453125 657.261719 219.457031 657.589844 219.445312 C 657.917969 219.433594 658.242188 219.402344 658.566406 219.351562 C 658.890625 219.300781 659.210938 219.234375 659.523438 219.144531 C 659.839844 219.058594 660.148438 218.953125 660.453125 218.828125 C 660.757812 218.703125 661.050781 218.5625 661.335938 218.402344 C 661.625 218.246094 661.902344 218.070312 662.167969 217.878906 C 662.433594 217.6875 662.6875 217.480469 662.929688 217.261719 C 663.171875 217.039062 663.398438 216.804688 663.613281 216.558594 C 663.828125 216.308594 664.027344 216.050781 664.214844 215.78125 C 670.753906 206.101562 674.667969 196.273438 676.902344 189.183594 C 677.074219 188.636719 677.1875 188.078125 677.242188 187.507812 C 677.300781 186.933594 677.296875 186.363281 677.238281 185.792969 C 677.175781 185.222656 677.058594 184.664062 676.882812 184.117188 C 676.710938 183.574219 676.480469 183.050781 676.199219 182.550781 C 675.914062 182.050781 675.585938 181.585938 675.207031 181.15625 C 674.828125 180.722656 674.410156 180.335938 673.953125 179.992188 C 673.496094 179.644531 673.007812 179.347656 672.488281 179.105469 C 671.972656 178.859375 671.433594 178.667969 670.875 178.535156 C 640.480469 171.15625 618.785156 165.933594 614.816406 165.007812 C 614.160156 164.855469 612.640625 164.519531 612.109375 165.214844 C 611.285156 166.285156 613.3125 169.234375 615.117188 171.511719 Z M 615.117188 171.511719 " fill-opacity="1" fill-rule="nonzero"/></g></g></g></g><g clip-path="url(#6b599bd29c)"><g clip-path="url(#6a087e5b12)"><g clip-path="url(#c90a005bdf)"><g clip-path="url(#8d0e456bf2)"><path fill="#f2ad11" d="M 670.71875 173.804688 C 671.320312 173.921875 671.925781 173.972656 672.535156 173.957031 C 673.144531 173.9375 673.746094 173.855469 674.339844 173.703125 C 674.933594 173.554688 675.5 173.339844 676.046875 173.0625 C 676.589844 172.785156 677.097656 172.449219 677.570312 172.058594 C 678.039062 171.671875 678.464844 171.234375 678.835938 170.75 C 679.210938 170.265625 679.527344 169.746094 679.785156 169.191406 C 680.042969 168.636719 680.238281 168.0625 680.371094 167.464844 C 680.5 166.867188 680.5625 166.265625 680.558594 165.652344 C 680.570312 159.277344 679.828125 152.988281 678.332031 146.789062 C 676.300781 138.566406 672.984375 130.902344 668.382812 123.792969 C 668.078125 123.324219 667.726562 122.886719 667.328125 122.488281 C 666.933594 122.089844 666.5 121.734375 666.035156 121.421875 C 665.566406 121.113281 665.070312 120.851562 664.546875 120.644531 C 664.027344 120.433594 663.488281 120.28125 662.933594 120.183594 C 662.382812 120.082031 661.824219 120.042969 661.261719 120.058594 C 660.699219 120.074219 660.144531 120.144531 659.597656 120.273438 C 659.050781 120.40625 658.523438 120.589844 658.011719 120.824219 C 657.503906 121.0625 657.023438 121.351562 656.570312 121.6875 C 642.785156 131.941406 615.503906 152.410156 612.871094 155.796875 C 612.617188 156.121094 611.941406 156.992188 612.054688 158.035156 C 612.300781 160.398438 616.363281 161.757812 617.835938 162.257812 C 624.679688 164.558594 654.96875 170.683594 670.71875 173.804688 Z M 670.71875 173.804688 " fill-opacity="1" fill-rule="nonzero"/></g></g></g></g><g clip-path="url(#a9dbb63311)"><g clip-path="url(#04627e2c9b)"><g clip-path="url(#cd82636c8f)"><g clip-path="url(#c80f59143b)"><path fill="#f2c91d" d="M 568.15625 106.222656 C 568.640625 106.667969 569.113281 107.125 569.5625 107.59375 C 570.015625 108.0625 570.4375 108.53125 570.835938 109.003906 C 571.234375 109.472656 571.597656 109.9375 571.921875 110.394531 C 572.25 110.851562 572.539062 111.289062 572.785156 111.714844 C 573.03125 112.136719 573.230469 112.539062 573.386719 112.914062 C 573.542969 113.289062 573.648438 113.632812 573.707031 113.945312 C 573.761719 114.253906 573.769531 114.53125 573.730469 114.765625 C 573.6875 115.003906 573.597656 115.199219 573.457031 115.351562 C 573.316406 115.503906 573.128906 115.609375 572.898438 115.671875 C 572.667969 115.734375 572.390625 115.753906 572.078125 115.722656 C 571.761719 115.691406 571.410156 115.617188 571.023438 115.496094 C 570.632812 115.375 570.21875 115.207031 569.773438 115 C 569.332031 114.792969 568.867188 114.546875 568.382812 114.257812 C 567.902344 113.972656 567.40625 113.652344 566.902344 113.296875 C 566.398438 112.941406 565.894531 112.558594 565.386719 112.152344 C 564.882812 111.742188 564.386719 111.316406 563.898438 110.867188 C 563.410156 110.421875 562.941406 109.964844 562.488281 109.496094 C 562.039062 109.027344 561.613281 108.558594 561.214844 108.085938 C 560.820312 107.617188 560.457031 107.152344 560.128906 106.695312 C 559.800781 106.238281 559.511719 105.800781 559.265625 105.375 C 559.019531 104.953125 558.820312 104.550781 558.664062 104.175781 C 558.511719 103.800781 558.402344 103.457031 558.347656 103.144531 C 558.289062 102.835938 558.28125 102.558594 558.324219 102.324219 C 558.363281 102.085938 558.457031 101.890625 558.59375 101.738281 C 558.734375 101.585938 558.921875 101.480469 559.152344 101.417969 C 559.386719 101.355469 559.660156 101.335938 559.976562 101.367188 C 560.292969 101.398438 560.644531 101.472656 561.03125 101.59375 C 561.417969 101.714844 561.832031 101.878906 562.277344 102.089844 C 562.722656 102.296875 563.183594 102.542969 563.667969 102.832031 C 564.152344 103.117188 564.644531 103.4375 565.148438 103.792969 C 565.652344 104.148438 566.15625 104.527344 566.664062 104.9375 C 567.167969 105.347656 567.667969 105.773438 568.15625 106.222656 Z M 568.15625 106.222656 " fill-opacity="1" fill-rule="nonzero"/></g></g></g></g><g clip-path="url(#99c06c554b)"><g clip-path="url(#1d76dcc465)"><g clip-path="url(#1964803ff6)"><g clip-path="url(#0a8e2d61a1)"><path fill="#f2c91d" d="M 583.761719 106.679688 C 585.984375 111.785156 586.488281 116.492188 584.898438 117.179688 C 583.308594 117.867188 580.207031 114.296875 577.988281 109.195312 C 575.769531 104.09375 575.265625 99.386719 576.855469 98.699219 C 578.445312 98.011719 581.542969 101.578125 583.761719 106.679688 Z M 583.761719 106.679688 " fill-opacity="1" fill-rule="nonzero"/></g></g></g></g><g clip-path="url(#af5723767b)"><g clip-path="url(#d0ed91b6a9)"><g clip-path="url(#e843301e8d)"><g clip-path="url(#b2f4934e00)"><path fill="#f2c91d" d="M 589.507812 132.199219 C 592.320312 135.515625 593.761719 138.914062 592.726562 139.792969 C 591.6875 140.675781 588.5625 138.691406 585.753906 135.386719 C 582.949219 132.082031 581.503906 128.675781 582.539062 127.796875 C 583.578125 126.917969 586.695312 128.890625 589.507812 132.199219 Z M 589.507812 132.199219 " fill-opacity="1" fill-rule="nonzero"/></g></g></g></g><g clip-path="url(#5c9e6e2690)"><g clip-path="url(#d5cf68fdff)"><g clip-path="url(#27d20f0b69)"><g clip-path="url(#c2bb616234)"><path fill="#f2c91d" d="M 596.300781 122.082031 C 597.148438 126.347656 596.757812 130.019531 595.433594 130.292969 C 594.105469 130.566406 592.320312 127.324219 591.472656 123.046875 C 590.625 118.769531 591.015625 115.113281 592.339844 114.835938 C 593.667969 114.5625 595.453125 117.820312 596.300781 122.082031 Z M 596.300781 122.082031 " fill-opacity="1" fill-rule="nonzero"/></g></g></g></g><g clip-path="url(#00cb227b29)"><g clip-path="url(#a68ab64ff6)"><g clip-path="url(#82ebe1aff9)"><g clip-path="url(#2fd9b799e4)"><path fill="#f2c91d" d="M 594.429688 96.492188 C 595.257812 101.996094 594.53125 106.667969 592.8125 106.929688 C 591.089844 107.1875 589.027344 102.9375 588.199219 97.429688 C 587.371094 91.925781 588.09375 87.253906 589.816406 86.992188 C 591.535156 86.730469 593.617188 90.984375 594.429688 96.492188 Z M 594.429688 96.492188 " fill-opacity="1" fill-rule="nonzero"/></g></g></g></g><g clip-path="url(#b377f56018)"><g clip-path="url(#16142ee79b)"><g clip-path="url(#7bbbbdba89)"><g clip-path="url(#a035632704)"><path fill="#f2c91d" d="M 616.410156 106.433594 C 616.40625 107.097656 616.378906 107.75 616.335938 108.398438 C 616.289062 109.050781 616.226562 109.679688 616.144531 110.289062 C 616.058594 110.902344 615.960938 111.480469 615.839844 112.03125 C 615.722656 112.582031 615.589844 113.089844 615.4375 113.554688 C 615.289062 114.023438 615.128906 114.441406 614.953125 114.808594 C 614.777344 115.175781 614.59375 115.484375 614.402344 115.734375 C 614.210938 115.988281 614.011719 116.175781 613.808594 116.304688 C 613.605469 116.433594 613.398438 116.496094 613.191406 116.496094 C 612.984375 116.496094 612.78125 116.429688 612.578125 116.296875 C 612.378906 116.167969 612.179688 115.976562 611.992188 115.722656 C 611.800781 115.46875 611.625 115.15625 611.453125 114.785156 C 611.285156 114.417969 611.128906 114 610.984375 113.53125 C 610.839844 113.0625 610.714844 112.550781 610.601562 112 C 610.492188 111.449219 610.398438 110.867188 610.324219 110.253906 C 610.25 109.644531 610.191406 109.011719 610.15625 108.363281 C 610.121094 107.714844 610.105469 107.058594 610.109375 106.398438 C 610.113281 105.734375 610.136719 105.078125 610.183594 104.429688 C 610.226562 103.78125 610.289062 103.152344 610.375 102.539062 C 610.457031 101.929688 610.558594 101.347656 610.675781 100.800781 C 610.796875 100.25 610.929688 99.742188 611.078125 99.273438 C 611.226562 98.808594 611.390625 98.390625 611.5625 98.023438 C 611.738281 97.65625 611.921875 97.347656 612.113281 97.09375 C 612.308594 96.84375 612.503906 96.652344 612.710938 96.523438 C 612.914062 96.398438 613.117188 96.332031 613.324219 96.335938 C 613.53125 96.335938 613.738281 96.402344 613.9375 96.53125 C 614.140625 96.664062 614.335938 96.855469 614.527344 97.109375 C 614.714844 97.363281 614.894531 97.675781 615.0625 98.042969 C 615.234375 98.414062 615.390625 98.832031 615.53125 99.300781 C 615.675781 99.769531 615.804688 100.28125 615.914062 100.832031 C 616.027344 101.382812 616.121094 101.964844 616.195312 102.574219 C 616.269531 103.1875 616.324219 103.816406 616.359375 104.46875 C 616.398438 105.117188 616.414062 105.773438 616.410156 106.433594 Z M 616.410156 106.433594 " fill-opacity="1" fill-rule="nonzero"/></g></g></g></g><g clip-path="url(#7bc460842f)"><g clip-path="url(#a056a37c27)"><g clip-path="url(#6ef4b5bf15)"><g clip-path="url(#d176620211)"><path fill="#f2c91d" d="M 627.875 107.671875 C 625.863281 112.863281 622.921875 116.566406 621.296875 115.941406 C 619.675781 115.3125 619.988281 110.59375 621.996094 105.398438 C 624.007812 100.203125 626.953125 96.507812 628.574219 97.132812 C 630.199219 97.761719 629.886719 102.472656 627.875 107.671875 Z M 627.875 107.671875 " fill-opacity="1" fill-rule="nonzero"/></g></g></g></g><g clip-path="url(#bdfdaa9be9)"><g clip-path="url(#148a06cc60)"><g clip-path="url(#674e502f65)"><g clip-path="url(#f20eb00f53)"><path fill="#f2c91d" d="M 613.757812 134.066406 C 613.429688 138.402344 612.0625 141.832031 610.707031 141.730469 C 609.351562 141.628906 608.523438 138.03125 608.859375 133.691406 C 609.195312 129.347656 610.554688 125.921875 611.90625 126.023438 C 613.261719 126.125 614.082031 129.726562 613.757812 134.066406 Z M 613.757812 134.066406 " fill-opacity="1" fill-rule="nonzero"/></g></g></g></g><g clip-path="url(#ed7ea52cc9)"><g clip-path="url(#8de1780747)"><g clip-path="url(#e14ba2b126)"><g clip-path="url(#63032f67b5)"><path fill="#f2c91d" d="M 623.875 131.1875 C 621.480469 134.820312 618.621094 137.15625 617.484375 136.414062 C 616.351562 135.667969 617.371094 132.117188 619.765625 128.484375 C 622.160156 124.851562 625.019531 122.515625 626.152344 123.261719 C 627.289062 124.011719 626.265625 127.558594 623.875 131.1875 Z M 623.875 131.1875 " fill-opacity="1" fill-rule="nonzero"/></g></g></g></g><g clip-path="url(#98b4fca8c4)"><g clip-path="url(#dfea1ca3ab)"><g clip-path="url(#43ede808c7)"><g clip-path="url(#1c663e5a79)"><path fill="#f2c91d" d="M 641.203125 125.015625 C 637.695312 127.585938 634.203125 128.78125 633.398438 127.6875 C 632.59375 126.589844 634.789062 123.617188 638.296875 121.046875 C 641.804688 118.476562 645.289062 117.289062 646.097656 118.375 C 646.910156 119.460938 644.710938 122.441406 641.203125 125.015625 Z M 641.203125 125.015625 " fill-opacity="1" fill-rule="nonzero"/></g></g></g></g><g clip-path="url(#2815a86dc6)"><g clip-path="url(#eaa1b45dcb)"><g clip-path="url(#b6f605503e)"><g clip-path="url(#2730b1632d)"><path fill="#f2c91d" d="M 640.902344 112.53125 C 637.621094 117.03125 633.820312 119.847656 632.414062 118.824219 C 631.011719 117.804688 632.53125 113.320312 635.808594 108.824219 C 639.089844 104.324219 642.890625 101.503906 644.296875 102.53125 C 645.703125 103.554688 644.179688 108.035156 640.902344 112.53125 Z M 640.902344 112.53125 " fill-opacity="1" fill-rule="nonzero"/></g></g></g></g><g clip-path="url(#412b6551e4)"><g clip-path="url(#7581def0ec)"><g clip-path="url(#3d9f477581)"><g clip-path="url(#3332e9026c)"><path fill="#f2c91d" d="M 626.429688 153.8125 C 622.757812 156.128906 619.199219 157.113281 618.472656 155.96875 C 617.746094 154.824219 620.132812 152 623.800781 149.667969 C 627.472656 147.339844 631.03125 146.371094 631.757812 147.515625 C 632.484375 148.660156 630.097656 151.480469 626.429688 153.8125 Z M 626.429688 153.8125 " fill-opacity="1" fill-rule="nonzero"/></g></g></g></g><g clip-path="url(#2f88b8d7ad)"><g clip-path="url(#a614f108a8)"><g clip-path="url(#2f0525d271)"><g clip-path="url(#b7badd3beb)"><path fill="#f2c91d" d="M 640.207031 156.765625 C 635.941406 157.617188 632.273438 157.230469 632 155.90625 C 631.726562 154.578125 634.980469 152.804688 639.238281 151.949219 C 643.496094 151.09375 647.171875 151.488281 647.445312 152.8125 C 647.71875 154.136719 644.46875 155.914062 640.207031 156.765625 Z M 640.207031 156.765625 " fill-opacity="1" fill-rule="nonzero"/></g></g></g></g><g clip-path="url(#23f3e4e205)"><g clip-path="url(#ea0cd03fa9)"><g clip-path="url(#09fbd9e570)"><g clip-path="url(#2493294b2f)"><path fill="#f2c91d" d="M 630.640625 176.9375 C 626.589844 175.371094 623.703125 173.070312 624.1875 171.808594 C 624.675781 170.542969 628.363281 170.78125 632.417969 172.347656 C 636.472656 173.914062 639.359375 176.214844 638.871094 177.480469 C 638.382812 178.742188 634.695312 178.503906 630.640625 176.9375 Z M 630.640625 176.9375 " fill-opacity="1" fill-rule="nonzero"/></g></g></g></g><g clip-path="url(#c3135b98a1)"><g clip-path="url(#3aede216c3)"><g clip-path="url(#ba37101c1f)"><g clip-path="url(#24ca3715ea)"><path fill="#f2c91d" d="M 632.515625 188.523438 C 629.328125 185.566406 627.488281 182.367188 628.40625 181.363281 C 629.324219 180.363281 632.667969 181.953125 635.851562 184.902344 C 639.039062 187.851562 640.878906 191.058594 639.960938 192.0625 C 639.042969 193.0625 635.703125 191.472656 632.515625 188.523438 Z M 632.515625 188.523438 " fill-opacity="1" fill-rule="nonzero"/></g></g></g></g><g clip-path="url(#5eaa8daf46)"><g clip-path="url(#2f38d8871a)"><g clip-path="url(#864f708edc)"><g clip-path="url(#1f5321be50)"><path fill="#f2c91d" d="M 614.980469 191.234375 C 612.304688 187.804688 611.007812 184.347656 612.078125 183.511719 C 613.144531 182.675781 616.1875 184.773438 618.859375 188.203125 C 621.53125 191.628906 622.832031 195.085938 621.761719 195.921875 C 620.691406 196.761719 617.65625 194.65625 614.980469 191.234375 Z M 614.980469 191.234375 " fill-opacity="1" fill-rule="nonzero"/></g></g></g></g><g clip-path="url(#723efe9e61)"><g clip-path="url(#a8e43c62c0)"><g clip-path="url(#e7f2a4aa77)"><g clip-path="url(#76600667f6)"><path fill="#f2c91d" d="M 577.28125 182.597656 C 579.898438 179.125 582.898438 176.964844 583.980469 177.78125 C 585.0625 178.597656 583.828125 182.078125 581.214844 185.554688 C 578.601562 189.027344 575.601562 191.1875 574.511719 190.367188 C 573.425781 189.550781 574.660156 186.082031 577.28125 182.597656 Z M 577.28125 182.597656 " fill-opacity="1" fill-rule="nonzero"/></g></g></g></g><g clip-path="url(#dfaad21d8c)"><g clip-path="url(#af35870482)"><g clip-path="url(#36f5723f7f)"><g clip-path="url(#287486e8a6)"><path fill="#f2c91d" d="M 565.914062 178.214844 C 569.886719 176.445312 573.5625 176.023438 574.105469 177.257812 C 574.648438 178.492188 571.886719 180.941406 567.914062 182.710938 C 563.941406 184.480469 560.265625 184.898438 559.722656 183.664062 C 559.179688 182.429688 561.941406 179.984375 565.914062 178.214844 Z M 565.914062 178.214844 " fill-opacity="1" fill-rule="nonzero"/></g></g></g></g><g clip-path="url(#28f0589550)"><g clip-path="url(#1d9de2ddfe)"><g clip-path="url(#0a43a6aff9)"><g clip-path="url(#2a62990339)"><path fill="#f2c91d" d="M 543.144531 185.539062 C 548.332031 183.519531 553.050781 183.191406 553.679688 184.8125 C 554.3125 186.429688 550.621094 189.386719 545.433594 191.402344 C 540.25 193.421875 535.53125 193.753906 534.898438 192.132812 C 534.269531 190.511719 537.953125 187.570312 543.144531 185.539062 Z M 543.144531 185.539062 " fill-opacity="1" fill-rule="nonzero"/></g></g></g></g><g clip-path="url(#a770381b2a)"><g clip-path="url(#bd0cd72a0e)"><g clip-path="url(#558c9b2101)"><g clip-path="url(#9766a95da8)"><path fill="#f2c91d" d="M 548.808594 166.148438 C 554.320312 165.371094 558.988281 166.136719 559.222656 167.867188 C 559.457031 169.597656 555.191406 171.617188 549.679688 172.390625 C 544.167969 173.167969 539.5 172.398438 539.261719 170.671875 C 539.027344 168.941406 543.289062 166.925781 548.808594 166.148438 Z M 548.808594 166.148438 " fill-opacity="1" fill-rule="nonzero"/></g></g></g></g><g clip-path="url(#c3fefa91f1)"><g clip-path="url(#9425cff613)"><g clip-path="url(#5f8d4f49ee)"><g clip-path="url(#e57a3609d3)"><path fill="#f2c91d" d="M 566.195312 159.140625 C 570.53125 159.460938 573.953125 160.8125 573.859375 162.175781 C 573.769531 163.539062 570.164062 164.371094 565.828125 164.046875 C 561.496094 163.726562 558.070312 162.375 558.160156 161.011719 C 558.253906 159.652344 561.859375 158.820312 566.195312 159.140625 Z M 566.195312 159.140625 " fill-opacity="1" fill-rule="nonzero"/></g></g></g></g><g clip-path="url(#5e4b6c6b0c)"><g clip-path="url(#a1a74ca061)"><g clip-path="url(#977976667e)"><g clip-path="url(#71a6c9557d)"><path fill="#f2c91d" d="M 530.234375 162.90625 C 534.578125 162.859375 538.117188 163.914062 538.132812 165.273438 C 538.152344 166.632812 534.640625 167.777344 530.289062 167.828125 C 525.933594 167.875 522.40625 166.816406 522.390625 165.460938 C 522.378906 164.101562 525.886719 162.957031 530.234375 162.90625 Z M 530.234375 162.90625 " fill-opacity="1" fill-rule="nonzero"/></g></g></g></g><g clip-path="url(#6ce31e371e)"><g clip-path="url(#b1d220ba1e)"><g clip-path="url(#432bfef5b5)"><g clip-path="url(#dcad5f0ba0)"><path fill="#f2c91d" d="M 537.078125 152.933594 C 542.605469 153.605469 546.914062 155.550781 546.703125 157.277344 C 546.492188 159.003906 541.839844 159.859375 536.316406 159.1875 C 530.789062 158.515625 526.480469 156.566406 526.707031 154.84375 C 526.933594 153.121094 531.554688 152.261719 537.078125 152.933594 Z M 537.078125 152.933594 " fill-opacity="1" fill-rule="nonzero"/></g></g></g></g><g clip-path="url(#4c65cb3ef8)"><g clip-path="url(#de1d086191)"><g clip-path="url(#bc6463aed3)"><g clip-path="url(#ef8bf2949d)"><path fill="#f2c91d" d="M 557.398438 132.492188 C 562.445312 134.835938 565.953125 138.023438 565.210938 139.59375 C 564.46875 141.164062 559.789062 140.550781 554.742188 138.210938 C 549.691406 135.875 546.191406 132.691406 546.925781 131.113281 C 547.65625 129.535156 552.347656 130.148438 557.398438 132.492188 Z M 557.398438 132.492188 " fill-opacity="1" fill-rule="nonzero"/></g></g></g></g><g clip-path="url(#1dc97fcb82)"><g clip-path="url(#33171a843c)"><g clip-path="url(#9698c65584)"><g clip-path="url(#1f33a23bfc)"><path fill="#f2c91d" d="M 576.972656 142.847656 C 580.441406 145.460938 582.578125 148.476562 581.757812 149.5625 C 580.9375 150.644531 577.472656 149.402344 574 146.769531 C 570.527344 144.136719 568.390625 141.140625 569.210938 140.058594 C 570.03125 138.976562 573.515625 140.21875 576.972656 142.847656 Z M 576.972656 142.847656 " fill-opacity="1" fill-rule="nonzero"/></g></g></g></g><g clip-path="url(#87c41d973a)"><g clip-path="url(#c2a2c8ab82)"><g clip-path="url(#83284efa27)"><g clip-path="url(#f7f0e4e68a)"><path fill="#f2c91d" d="M 553.074219 119.136719 C 557.347656 122.703125 559.914062 126.683594 558.789062 128.007812 C 557.660156 129.332031 553.304688 127.535156 549.03125 123.972656 C 544.757812 120.40625 542.195312 116.421875 543.320312 115.101562 C 544.449219 113.777344 548.804688 115.570312 553.074219 119.136719 Z M 553.074219 119.136719 " fill-opacity="1" fill-rule="nonzero"/></g></g></g></g><g clip-path="url(#7406bf9902)"><g clip-path="url(#73f6af3605)"><g clip-path="url(#67e4701073)"><g clip-path="url(#06674bf965)"><path fill="#f2c91d" d="M 541.539062 136.007812 C 546.734375 138.011719 550.433594 140.957031 549.804688 142.578125 C 549.175781 144.203125 544.460938 143.890625 539.265625 141.882812 C 534.074219 139.875 530.378906 136.9375 531.003906 135.3125 C 531.632812 133.691406 536.351562 134 541.539062 136.007812 Z M 541.539062 136.007812 " fill-opacity="1" fill-rule="nonzero"/></g></g></g></g></svg>