<svg xmlns="http://www.w3.org/2000/svg" xmlns:xlink="http://www.w3.org/1999/xlink" width="1600" zoomAndPan="magnify" viewBox="0 0 638.25 187.49999" height="350" preserveAspectRatio="xMidYMid meet" version="1.0"><defs><clipPath id="053e56fdb0"><path d="M 0.476562 0 L 637.027344 0 L 637.027344 187 L 0.476562 187 Z M 0.476562 0 " clip-rule="nonzero"/></clipPath><clipPath id="ee567bb6d3"><path d="M 425 48 L 559 48 L 559 185 L 425 185 Z M 425 48 " clip-rule="nonzero"/></clipPath><clipPath id="770e2a49fa"><path d="M 481.804688 20.167969 L 588.867188 111.34375 L 499.148438 216.699219 L 392.085938 125.523438 Z M 481.804688 20.167969 " clip-rule="nonzero"/></clipPath><clipPath id="3ddedb98ab"><path d="M 481.804688 20.167969 L 588.867188 111.34375 L 499.148438 216.699219 L 392.085938 125.523438 Z M 481.804688 20.167969 " clip-rule="nonzero"/></clipPath><clipPath id="18b87ccd07"><path d="M 481.804688 20.167969 L 588.867188 111.34375 L 499.148438 216.699219 L 392.085938 125.523438 Z M 481.804688 20.167969 " clip-rule="nonzero"/></clipPath><clipPath id="ce7d02d0e6"><path d="M 431 54 L 553 54 L 553 179 L 431 179 Z M 431 54 " clip-rule="nonzero"/></clipPath><clipPath id="7ca755e53b"><path d="M 481.804688 20.167969 L 588.867188 111.34375 L 499.148438 216.699219 L 392.085938 125.523438 Z M 481.804688 20.167969 " clip-rule="nonzero"/></clipPath><clipPath id="cb75e9189a"><path d="M 481.804688 20.167969 L 588.867188 111.34375 L 499.148438 216.699219 L 392.085938 125.523438 Z M 481.804688 20.167969 " clip-rule="nonzero"/></clipPath><clipPath id="115bfd9496"><path d="M 481.804688 20.167969 L 588.867188 111.34375 L 499.148438 216.699219 L 392.085938 125.523438 Z M 481.804688 20.167969 " clip-rule="nonzero"/></clipPath><clipPath id="44fc478a5e"><path d="M 458 58 L 493 58 L 493 108 L 458 108 Z M 458 58 " clip-rule="nonzero"/></clipPath><clipPath id="55b0557d05"><path d="M 481.804688 20.167969 L 588.867188 111.34375 L 499.148438 216.699219 L 392.085938 125.523438 Z M 481.804688 20.167969 " clip-rule="nonzero"/></clipPath><clipPath id="25f220be25"><path d="M 481.804688 20.167969 L 588.867188 111.34375 L 499.148438 216.699219 L 392.085938 125.523438 Z M 481.804688 20.167969 " clip-rule="nonzero"/></clipPath><clipPath id="d9567351e2"><path d="M 481.804688 20.167969 L 588.867188 111.34375 L 499.148438 216.699219 L 392.085938 125.523438 Z M 481.804688 20.167969 " clip-rule="nonzero"/></clipPath><clipPath id="8d73f5dc7b"><path d="M 439 117 L 489 117 L 489 157 L 439 157 Z M 439 117 " clip-rule="nonzero"/></clipPath><clipPath id="ddde7c4127"><path d="M 481.804688 20.167969 L 588.867188 111.34375 L 499.148438 216.699219 L 392.085938 125.523438 Z M 481.804688 20.167969 " clip-rule="nonzero"/></clipPath><clipPath id="47c1129f5c"><path d="M 481.804688 20.167969 L 588.867188 111.34375 L 499.148438 216.699219 L 392.085938 125.523438 Z M 481.804688 20.167969 " clip-rule="nonzero"/></clipPath><clipPath id="6b0ee8f98c"><path d="M 481.804688 20.167969 L 588.867188 111.34375 L 499.148438 216.699219 L 392.085938 125.523438 Z M 481.804688 20.167969 " clip-rule="nonzero"/></clipPath><clipPath id="df6064630b"><path d="M 435 102 L 488 102 L 488 127 L 435 127 Z M 435 102 " clip-rule="nonzero"/></clipPath><clipPath id="961162dda7"><path d="M 481.804688 20.167969 L 588.867188 111.34375 L 499.148438 216.699219 L 392.085938 125.523438 Z M 481.804688 20.167969 " clip-rule="nonzero"/></clipPath><clipPath id="051d1b5bca"><path d="M 481.804688 20.167969 L 588.867188 111.34375 L 499.148438 216.699219 L 392.085938 125.523438 Z M 481.804688 20.167969 " clip-rule="nonzero"/></clipPath><clipPath id="424fdedeb9"><path d="M 481.804688 20.167969 L 588.867188 111.34375 L 499.148438 216.699219 L 392.085938 125.523438 Z M 481.804688 20.167969 " clip-rule="nonzero"/></clipPath><clipPath id="facac5f166"><path d="M 494 61 L 530 61 L 530 108 L 494 108 Z M 494 61 " clip-rule="nonzero"/></clipPath><clipPath id="8646600e28"><path d="M 481.804688 20.167969 L 588.867188 111.34375 L 499.148438 216.699219 L 392.085938 125.523438 Z M 481.804688 20.167969 " clip-rule="nonzero"/></clipPath><clipPath id="5a8ee241cc"><path d="M 481.804688 20.167969 L 588.867188 111.34375 L 499.148438 216.699219 L 392.085938 125.523438 Z M 481.804688 20.167969 " clip-rule="nonzero"/></clipPath><clipPath id="271cfcd4b0"><path d="M 481.804688 20.167969 L 588.867188 111.34375 L 499.148438 216.699219 L 392.085938 125.523438 Z M 481.804688 20.167969 " clip-rule="nonzero"/></clipPath><clipPath id="62deca3f6d"><path d="M 439 75 L 489 75 L 489 110 L 439 110 Z M 439 75 " clip-rule="nonzero"/></clipPath><clipPath id="d9143dbc4e"><path d="M 481.804688 20.167969 L 588.867188 111.34375 L 499.148438 216.699219 L 392.085938 125.523438 Z M 481.804688 20.167969 " clip-rule="nonzero"/></clipPath><clipPath id="c697e41c56"><path d="M 481.804688 20.167969 L 588.867188 111.34375 L 499.148438 216.699219 L 392.085938 125.523438 Z M 481.804688 20.167969 " clip-rule="nonzero"/></clipPath><clipPath id="9a9a599cb7"><path d="M 481.804688 20.167969 L 588.867188 111.34375 L 499.148438 216.699219 L 392.085938 125.523438 Z M 481.804688 20.167969 " clip-rule="nonzero"/></clipPath><clipPath id="7ee9c740a6"><path d="M 495 119 L 526 119 L 526 172 L 495 172 Z M 495 119 " clip-rule="nonzero"/></clipPath><clipPath id="89fa631fd2"><path d="M 481.804688 20.167969 L 588.867188 111.34375 L 499.148438 216.699219 L 392.085938 125.523438 Z M 481.804688 20.167969 " clip-rule="nonzero"/></clipPath><clipPath id="86fd79f4ac"><path d="M 481.804688 20.167969 L 588.867188 111.34375 L 499.148438 216.699219 L 392.085938 125.523438 Z M 481.804688 20.167969 " clip-rule="nonzero"/></clipPath><clipPath id="4596b08841"><path d="M 481.804688 20.167969 L 588.867188 111.34375 L 499.148438 216.699219 L 392.085938 125.523438 Z M 481.804688 20.167969 " clip-rule="nonzero"/></clipPath><clipPath id="4a39d6fb5b"><path d="M 463 119 L 494 119 L 494 172 L 463 172 Z M 463 119 " clip-rule="nonzero"/></clipPath><clipPath id="3895477d75"><path d="M 481.804688 20.167969 L 588.867188 111.34375 L 499.148438 216.699219 L 392.085938 125.523438 Z M 481.804688 20.167969 " clip-rule="nonzero"/></clipPath><clipPath id="cd3afe8739"><path d="M 481.804688 20.167969 L 588.867188 111.34375 L 499.148438 216.699219 L 392.085938 125.523438 Z M 481.804688 20.167969 " clip-rule="nonzero"/></clipPath><clipPath id="77cddc8bb8"><path d="M 481.804688 20.167969 L 588.867188 111.34375 L 499.148438 216.699219 L 392.085938 125.523438 Z M 481.804688 20.167969 " clip-rule="nonzero"/></clipPath><clipPath id="fd8e1fe573"><path d="M 499 114 L 545 114 L 545 152 L 499 152 Z M 499 114 " clip-rule="nonzero"/></clipPath><clipPath id="a8bc14dd17"><path d="M 481.804688 20.167969 L 588.867188 111.34375 L 499.148438 216.699219 L 392.085938 125.523438 Z M 481.804688 20.167969 " clip-rule="nonzero"/></clipPath><clipPath id="c2cee6ae10"><path d="M 481.804688 20.167969 L 588.867188 111.34375 L 499.148438 216.699219 L 392.085938 125.523438 Z M 481.804688 20.167969 " clip-rule="nonzero"/></clipPath><clipPath id="ae15d35bfd"><path d="M 481.804688 20.167969 L 588.867188 111.34375 L 499.148438 216.699219 L 392.085938 125.523438 Z M 481.804688 20.167969 " clip-rule="nonzero"/></clipPath><clipPath id="4f485dd5a9"><path d="M 499 84 L 547 84 L 547 121 L 499 121 Z M 499 84 " clip-rule="nonzero"/></clipPath><clipPath id="9921fcd14e"><path d="M 481.804688 20.167969 L 588.867188 111.34375 L 499.148438 216.699219 L 392.085938 125.523438 Z M 481.804688 20.167969 " clip-rule="nonzero"/></clipPath><clipPath id="e9e6cae877"><path d="M 481.804688 20.167969 L 588.867188 111.34375 L 499.148438 216.699219 L 392.085938 125.523438 Z M 481.804688 20.167969 " clip-rule="nonzero"/></clipPath><clipPath id="061d5ae287"><path d="M 481.804688 20.167969 L 588.867188 111.34375 L 499.148438 216.699219 L 392.085938 125.523438 Z M 481.804688 20.167969 " clip-rule="nonzero"/></clipPath><clipPath id="fd7d72fdb5"><path d="M 463 71 L 474 71 L 474 82 L 463 82 Z M 463 71 " clip-rule="nonzero"/></clipPath><clipPath id="61c5ab1c7c"><path d="M 481.804688 20.167969 L 588.867188 111.34375 L 499.148438 216.699219 L 392.085938 125.523438 Z M 481.804688 20.167969 " clip-rule="nonzero"/></clipPath><clipPath id="3b34fea39e"><path d="M 481.804688 20.167969 L 588.867188 111.34375 L 499.148438 216.699219 L 392.085938 125.523438 Z M 481.804688 20.167969 " clip-rule="nonzero"/></clipPath><clipPath id="dae314faac"><path d="M 481.804688 20.167969 L 588.867188 111.34375 L 499.148438 216.699219 L 392.085938 125.523438 Z M 481.804688 20.167969 " clip-rule="nonzero"/></clipPath><clipPath id="596b004fb6"><path d="M 475 69 L 483 69 L 483 83 L 475 83 Z M 475 69 " clip-rule="nonzero"/></clipPath><clipPath id="5079ce6c37"><path d="M 481.804688 20.167969 L 588.867188 111.34375 L 499.148438 216.699219 L 392.085938 125.523438 Z M 481.804688 20.167969 " clip-rule="nonzero"/></clipPath><clipPath id="af4b662e15"><path d="M 481.804688 20.167969 L 588.867188 111.34375 L 499.148438 216.699219 L 392.085938 125.523438 Z M 481.804688 20.167969 " clip-rule="nonzero"/></clipPath><clipPath id="17be1b30c6"><path d="M 481.804688 20.167969 L 588.867188 111.34375 L 499.148438 216.699219 L 392.085938 125.523438 Z M 481.804688 20.167969 " clip-rule="nonzero"/></clipPath><clipPath id="96579565ed"><path d="M 479 89 L 488 89 L 488 98 L 479 98 Z M 479 89 " clip-rule="nonzero"/></clipPath><clipPath id="325c122271"><path d="M 481.804688 20.167969 L 588.867188 111.34375 L 499.148438 216.699219 L 392.085938 125.523438 Z M 481.804688 20.167969 " clip-rule="nonzero"/></clipPath><clipPath id="d51ed4ec6f"><path d="M 481.804688 20.167969 L 588.867188 111.34375 L 499.148438 216.699219 L 392.085938 125.523438 Z M 481.804688 20.167969 " clip-rule="nonzero"/></clipPath><clipPath id="a31dc3e0a8"><path d="M 481.804688 20.167969 L 588.867188 111.34375 L 499.148438 216.699219 L 392.085938 125.523438 Z M 481.804688 20.167969 " clip-rule="nonzero"/></clipPath><clipPath id="90ff403985"><path d="M 485 80 L 490 80 L 490 92 L 485 92 Z M 485 80 " clip-rule="nonzero"/></clipPath><clipPath id="202bfa900f"><path d="M 481.804688 20.167969 L 588.867188 111.34375 L 499.148438 216.699219 L 392.085938 125.523438 Z M 481.804688 20.167969 " clip-rule="nonzero"/></clipPath><clipPath id="48260bf8c2"><path d="M 481.804688 20.167969 L 588.867188 111.34375 L 499.148438 216.699219 L 392.085938 125.523438 Z M 481.804688 20.167969 " clip-rule="nonzero"/></clipPath><clipPath id="99aceca720"><path d="M 481.804688 20.167969 L 588.867188 111.34375 L 499.148438 216.699219 L 392.085938 125.523438 Z M 481.804688 20.167969 " clip-rule="nonzero"/></clipPath><clipPath id="ebbdb5edab"><path d="M 483 61 L 489 61 L 489 76 L 483 76 Z M 483 61 " clip-rule="nonzero"/></clipPath><clipPath id="74660b8ae9"><path d="M 481.804688 20.167969 L 588.867188 111.34375 L 499.148438 216.699219 L 392.085938 125.523438 Z M 481.804688 20.167969 " clip-rule="nonzero"/></clipPath><clipPath id="9c4bbc5cba"><path d="M 481.804688 20.167969 L 588.867188 111.34375 L 499.148438 216.699219 L 392.085938 125.523438 Z M 481.804688 20.167969 " clip-rule="nonzero"/></clipPath><clipPath id="f5e704eab6"><path d="M 481.804688 20.167969 L 588.867188 111.34375 L 499.148438 216.699219 L 392.085938 125.523438 Z M 481.804688 20.167969 " clip-rule="nonzero"/></clipPath><clipPath id="28fe6f7ec0"><path d="M 498 68 L 503 68 L 503 82 L 498 82 Z M 498 68 " clip-rule="nonzero"/></clipPath><clipPath id="5585b43400"><path d="M 481.804688 20.167969 L 588.867188 111.34375 L 499.148438 216.699219 L 392.085938 125.523438 Z M 481.804688 20.167969 " clip-rule="nonzero"/></clipPath><clipPath id="83ac16479e"><path d="M 481.804688 20.167969 L 588.867188 111.34375 L 499.148438 216.699219 L 392.085938 125.523438 Z M 481.804688 20.167969 " clip-rule="nonzero"/></clipPath><clipPath id="6f7447b942"><path d="M 481.804688 20.167969 L 588.867188 111.34375 L 499.148438 216.699219 L 392.085938 125.523438 Z M 481.804688 20.167969 " clip-rule="nonzero"/></clipPath><clipPath id="c6239e0bcf"><path d="M 505 68 L 512 68 L 512 82 L 505 82 Z M 505 68 " clip-rule="nonzero"/></clipPath><clipPath id="b03a3cedfe"><path d="M 481.804688 20.167969 L 588.867188 111.34375 L 499.148438 216.699219 L 392.085938 125.523438 Z M 481.804688 20.167969 " clip-rule="nonzero"/></clipPath><clipPath id="9795580ce1"><path d="M 481.804688 20.167969 L 588.867188 111.34375 L 499.148438 216.699219 L 392.085938 125.523438 Z M 481.804688 20.167969 " clip-rule="nonzero"/></clipPath><clipPath id="3bb8996b36"><path d="M 481.804688 20.167969 L 588.867188 111.34375 L 499.148438 216.699219 L 392.085938 125.523438 Z M 481.804688 20.167969 " clip-rule="nonzero"/></clipPath><clipPath id="75eb2a4342"><path d="M 497 88 L 502 88 L 502 100 L 497 100 Z M 497 88 " clip-rule="nonzero"/></clipPath><clipPath id="2faef073d1"><path d="M 481.804688 20.167969 L 588.867188 111.34375 L 499.148438 216.699219 L 392.085938 125.523438 Z M 481.804688 20.167969 " clip-rule="nonzero"/></clipPath><clipPath id="68b022fc47"><path d="M 481.804688 20.167969 L 588.867188 111.34375 L 499.148438 216.699219 L 392.085938 125.523438 Z M 481.804688 20.167969 " clip-rule="nonzero"/></clipPath><clipPath id="c805ccf7c4"><path d="M 481.804688 20.167969 L 588.867188 111.34375 L 499.148438 216.699219 L 392.085938 125.523438 Z M 481.804688 20.167969 " clip-rule="nonzero"/></clipPath><clipPath id="79560ea72e"><path d="M 503 86 L 510 86 L 510 96 L 503 96 Z M 503 86 " clip-rule="nonzero"/></clipPath><clipPath id="2da2b648c2"><path d="M 481.804688 20.167969 L 588.867188 111.34375 L 499.148438 216.699219 L 392.085938 125.523438 Z M 481.804688 20.167969 " clip-rule="nonzero"/></clipPath><clipPath id="a9dbe0b1a1"><path d="M 481.804688 20.167969 L 588.867188 111.34375 L 499.148438 216.699219 L 392.085938 125.523438 Z M 481.804688 20.167969 " clip-rule="nonzero"/></clipPath><clipPath id="f782b6e15c"><path d="M 481.804688 20.167969 L 588.867188 111.34375 L 499.148438 216.699219 L 392.085938 125.523438 Z M 481.804688 20.167969 " clip-rule="nonzero"/></clipPath><clipPath id="76d3c75a92"><path d="M 514 82 L 524 82 L 524 90 L 514 90 Z M 514 82 " clip-rule="nonzero"/></clipPath><clipPath id="e731aeb2a2"><path d="M 481.804688 20.167969 L 588.867188 111.34375 L 499.148438 216.699219 L 392.085938 125.523438 Z M 481.804688 20.167969 " clip-rule="nonzero"/></clipPath><clipPath id="8f5d100d25"><path d="M 481.804688 20.167969 L 588.867188 111.34375 L 499.148438 216.699219 L 392.085938 125.523438 Z M 481.804688 20.167969 " clip-rule="nonzero"/></clipPath><clipPath id="c0df873451"><path d="M 481.804688 20.167969 L 588.867188 111.34375 L 499.148438 216.699219 L 392.085938 125.523438 Z M 481.804688 20.167969 " clip-rule="nonzero"/></clipPath><clipPath id="bf562e316f"><path d="M 513 72 L 523 72 L 523 84 L 513 84 Z M 513 72 " clip-rule="nonzero"/></clipPath><clipPath id="98b194c448"><path d="M 481.804688 20.167969 L 588.867188 111.34375 L 499.148438 216.699219 L 392.085938 125.523438 Z M 481.804688 20.167969 " clip-rule="nonzero"/></clipPath><clipPath id="ca6e6c40cb"><path d="M 481.804688 20.167969 L 588.867188 111.34375 L 499.148438 216.699219 L 392.085938 125.523438 Z M 481.804688 20.167969 " clip-rule="nonzero"/></clipPath><clipPath id="2891484d38"><path d="M 481.804688 20.167969 L 588.867188 111.34375 L 499.148438 216.699219 L 392.085938 125.523438 Z M 481.804688 20.167969 " clip-rule="nonzero"/></clipPath><clipPath id="25fca33625"><path d="M 520 90 L 532 90 L 532 100 L 520 100 Z M 520 90 " clip-rule="nonzero"/></clipPath><clipPath id="f7b6c4e0b1"><path d="M 481.804688 20.167969 L 588.867188 111.34375 L 499.148438 216.699219 L 392.085938 125.523438 Z M 481.804688 20.167969 " clip-rule="nonzero"/></clipPath><clipPath id="768a2bb64f"><path d="M 481.804688 20.167969 L 588.867188 111.34375 L 499.148438 216.699219 L 392.085938 125.523438 Z M 481.804688 20.167969 " clip-rule="nonzero"/></clipPath><clipPath id="4f9515324e"><path d="M 481.804688 20.167969 L 588.867188 111.34375 L 499.148438 216.699219 L 392.085938 125.523438 Z M 481.804688 20.167969 " clip-rule="nonzero"/></clipPath><clipPath id="5794ab095c"><path d="M 524 98 L 538 98 L 538 104 L 524 104 Z M 524 98 " clip-rule="nonzero"/></clipPath><clipPath id="f1124f2f44"><path d="M 481.804688 20.167969 L 588.867188 111.34375 L 499.148438 216.699219 L 392.085938 125.523438 Z M 481.804688 20.167969 " clip-rule="nonzero"/></clipPath><clipPath id="7b78c0a600"><path d="M 481.804688 20.167969 L 588.867188 111.34375 L 499.148438 216.699219 L 392.085938 125.523438 Z M 481.804688 20.167969 " clip-rule="nonzero"/></clipPath><clipPath id="6865347a2c"><path d="M 481.804688 20.167969 L 588.867188 111.34375 L 499.148438 216.699219 L 392.085938 125.523438 Z M 481.804688 20.167969 " clip-rule="nonzero"/></clipPath><clipPath id="7e7058b7c6"><path d="M 504 102 L 514 102 L 514 110 L 504 110 Z M 504 102 " clip-rule="nonzero"/></clipPath><clipPath id="dd513571d6"><path d="M 481.804688 20.167969 L 588.867188 111.34375 L 499.148438 216.699219 L 392.085938 125.523438 Z M 481.804688 20.167969 " clip-rule="nonzero"/></clipPath><clipPath id="d1d1908a0b"><path d="M 481.804688 20.167969 L 588.867188 111.34375 L 499.148438 216.699219 L 392.085938 125.523438 Z M 481.804688 20.167969 " clip-rule="nonzero"/></clipPath><clipPath id="f65ac35455"><path d="M 481.804688 20.167969 L 588.867188 111.34375 L 499.148438 216.699219 L 392.085938 125.523438 Z M 481.804688 20.167969 " clip-rule="nonzero"/></clipPath><clipPath id="1fc858cdd0"><path d="M 513 105 L 524 105 L 524 110 L 513 110 Z M 513 105 " clip-rule="nonzero"/></clipPath><clipPath id="4a463748ba"><path d="M 481.804688 20.167969 L 588.867188 111.34375 L 499.148438 216.699219 L 392.085938 125.523438 Z M 481.804688 20.167969 " clip-rule="nonzero"/></clipPath><clipPath id="0b996cac9f"><path d="M 481.804688 20.167969 L 588.867188 111.34375 L 499.148438 216.699219 L 392.085938 125.523438 Z M 481.804688 20.167969 " clip-rule="nonzero"/></clipPath><clipPath id="011d44a9a2"><path d="M 481.804688 20.167969 L 588.867188 111.34375 L 499.148438 216.699219 L 392.085938 125.523438 Z M 481.804688 20.167969 " clip-rule="nonzero"/></clipPath><clipPath id="604a3e4fbe"><path d="M 523 110 L 534 110 L 534 116 L 523 116 Z M 523 110 " clip-rule="nonzero"/></clipPath><clipPath id="2fe6aaba22"><path d="M 481.804688 20.167969 L 588.867188 111.34375 L 499.148438 216.699219 L 392.085938 125.523438 Z M 481.804688 20.167969 " clip-rule="nonzero"/></clipPath><clipPath id="ce38116a92"><path d="M 481.804688 20.167969 L 588.867188 111.34375 L 499.148438 216.699219 L 392.085938 125.523438 Z M 481.804688 20.167969 " clip-rule="nonzero"/></clipPath><clipPath id="094ecb5294"><path d="M 481.804688 20.167969 L 588.867188 111.34375 L 499.148438 216.699219 L 392.085938 125.523438 Z M 481.804688 20.167969 " clip-rule="nonzero"/></clipPath><clipPath id="a7cc27cb37"><path d="M 530 106 L 544 106 L 544 111 L 530 111 Z M 530 106 " clip-rule="nonzero"/></clipPath><clipPath id="1334f64de7"><path d="M 481.804688 20.167969 L 588.867188 111.34375 L 499.148438 216.699219 L 392.085938 125.523438 Z M 481.804688 20.167969 " clip-rule="nonzero"/></clipPath><clipPath id="c0896bfbbb"><path d="M 481.804688 20.167969 L 588.867188 111.34375 L 499.148438 216.699219 L 392.085938 125.523438 Z M 481.804688 20.167969 " clip-rule="nonzero"/></clipPath><clipPath id="8fb7eb5883"><path d="M 481.804688 20.167969 L 588.867188 111.34375 L 499.148438 216.699219 L 392.085938 125.523438 Z M 481.804688 20.167969 " clip-rule="nonzero"/></clipPath><clipPath id="b0bfa6c243"><path d="M 524 123 L 538 123 L 538 129 L 524 129 Z M 524 123 " clip-rule="nonzero"/></clipPath><clipPath id="1a6ace1a38"><path d="M 481.804688 20.167969 L 588.867188 111.34375 L 499.148438 216.699219 L 392.085938 125.523438 Z M 481.804688 20.167969 " clip-rule="nonzero"/></clipPath><clipPath id="047df0d4e6"><path d="M 481.804688 20.167969 L 588.867188 111.34375 L 499.148438 216.699219 L 392.085938 125.523438 Z M 481.804688 20.167969 " clip-rule="nonzero"/></clipPath><clipPath id="264f58e36d"><path d="M 481.804688 20.167969 L 588.867188 111.34375 L 499.148438 216.699219 L 392.085938 125.523438 Z M 481.804688 20.167969 " clip-rule="nonzero"/></clipPath><clipPath id="ee163389e2"><path d="M 522 129 L 535 129 L 535 138 L 522 138 Z M 522 129 " clip-rule="nonzero"/></clipPath><clipPath id="018265f6be"><path d="M 481.804688 20.167969 L 588.867188 111.34375 L 499.148438 216.699219 L 392.085938 125.523438 Z M 481.804688 20.167969 " clip-rule="nonzero"/></clipPath><clipPath id="072c2cef11"><path d="M 481.804688 20.167969 L 588.867188 111.34375 L 499.148438 216.699219 L 392.085938 125.523438 Z M 481.804688 20.167969 " clip-rule="nonzero"/></clipPath><clipPath id="01dbb514f0"><path d="M 481.804688 20.167969 L 588.867188 111.34375 L 499.148438 216.699219 L 392.085938 125.523438 Z M 481.804688 20.167969 " clip-rule="nonzero"/></clipPath><clipPath id="920ad5c299"><path d="M 508 118 L 519 118 L 519 124 L 508 124 Z M 508 118 " clip-rule="nonzero"/></clipPath><clipPath id="6393333a6f"><path d="M 481.804688 20.167969 L 588.867188 111.34375 L 499.148438 216.699219 L 392.085938 125.523438 Z M 481.804688 20.167969 " clip-rule="nonzero"/></clipPath><clipPath id="4a4c3b441e"><path d="M 481.804688 20.167969 L 588.867188 111.34375 L 499.148438 216.699219 L 392.085938 125.523438 Z M 481.804688 20.167969 " clip-rule="nonzero"/></clipPath><clipPath id="55d61781b9"><path d="M 481.804688 20.167969 L 588.867188 111.34375 L 499.148438 216.699219 L 392.085938 125.523438 Z M 481.804688 20.167969 " clip-rule="nonzero"/></clipPath><clipPath id="2c5da2c8a7"><path d="M 510 125 L 519 125 L 519 134 L 510 134 Z M 510 125 " clip-rule="nonzero"/></clipPath><clipPath id="922f16e942"><path d="M 481.804688 20.167969 L 588.867188 111.34375 L 499.148438 216.699219 L 392.085938 125.523438 Z M 481.804688 20.167969 " clip-rule="nonzero"/></clipPath><clipPath id="c3d462fbca"><path d="M 481.804688 20.167969 L 588.867188 111.34375 L 499.148438 216.699219 L 392.085938 125.523438 Z M 481.804688 20.167969 " clip-rule="nonzero"/></clipPath><clipPath id="1bf2c11147"><path d="M 481.804688 20.167969 L 588.867188 111.34375 L 499.148438 216.699219 L 392.085938 125.523438 Z M 481.804688 20.167969 " clip-rule="nonzero"/></clipPath><clipPath id="4d2c4ec2d1"><path d="M 522 138 L 533 138 L 533 149 L 522 149 Z M 522 138 " clip-rule="nonzero"/></clipPath><clipPath id="8620f91580"><path d="M 481.804688 20.167969 L 588.867188 111.34375 L 499.148438 216.699219 L 392.085938 125.523438 Z M 481.804688 20.167969 " clip-rule="nonzero"/></clipPath><clipPath id="ba99af8a69"><path d="M 481.804688 20.167969 L 588.867188 111.34375 L 499.148438 216.699219 L 392.085938 125.523438 Z M 481.804688 20.167969 " clip-rule="nonzero"/></clipPath><clipPath id="052007a10f"><path d="M 481.804688 20.167969 L 588.867188 111.34375 L 499.148438 216.699219 L 392.085938 125.523438 Z M 481.804688 20.167969 " clip-rule="nonzero"/></clipPath><clipPath id="289bc15db2"><path d="M 512 145 L 523 145 L 523 156 L 512 156 Z M 512 145 " clip-rule="nonzero"/></clipPath><clipPath id="eab3bc3b83"><path d="M 481.804688 20.167969 L 588.867188 111.34375 L 499.148438 216.699219 L 392.085938 125.523438 Z M 481.804688 20.167969 " clip-rule="nonzero"/></clipPath><clipPath id="4abc00871f"><path d="M 481.804688 20.167969 L 588.867188 111.34375 L 499.148438 216.699219 L 392.085938 125.523438 Z M 481.804688 20.167969 " clip-rule="nonzero"/></clipPath><clipPath id="d0a3bc2fb2"><path d="M 481.804688 20.167969 L 588.867188 111.34375 L 499.148438 216.699219 L 392.085938 125.523438 Z M 481.804688 20.167969 " clip-rule="nonzero"/></clipPath><clipPath id="5494d40862"><path d="M 505 142 L 512 142 L 512 156 L 505 156 Z M 505 142 " clip-rule="nonzero"/></clipPath><clipPath id="e7fab5aab1"><path d="M 481.804688 20.167969 L 588.867188 111.34375 L 499.148438 216.699219 L 392.085938 125.523438 Z M 481.804688 20.167969 " clip-rule="nonzero"/></clipPath><clipPath id="6ce35532e4"><path d="M 481.804688 20.167969 L 588.867188 111.34375 L 499.148438 216.699219 L 392.085938 125.523438 Z M 481.804688 20.167969 " clip-rule="nonzero"/></clipPath><clipPath id="e2c4296471"><path d="M 481.804688 20.167969 L 588.867188 111.34375 L 499.148438 216.699219 L 392.085938 125.523438 Z M 481.804688 20.167969 " clip-rule="nonzero"/></clipPath><clipPath id="e276e5af00"><path d="M 499 127 L 507 127 L 507 136 L 499 136 Z M 499 127 " clip-rule="nonzero"/></clipPath><clipPath id="26d0de4529"><path d="M 481.804688 20.167969 L 588.867188 111.34375 L 499.148438 216.699219 L 392.085938 125.523438 Z M 481.804688 20.167969 " clip-rule="nonzero"/></clipPath><clipPath id="0ffb6f2853"><path d="M 481.804688 20.167969 L 588.867188 111.34375 L 499.148438 216.699219 L 392.085938 125.523438 Z M 481.804688 20.167969 " clip-rule="nonzero"/></clipPath><clipPath id="4d8ea22e67"><path d="M 481.804688 20.167969 L 588.867188 111.34375 L 499.148438 216.699219 L 392.085938 125.523438 Z M 481.804688 20.167969 " clip-rule="nonzero"/></clipPath><clipPath id="4e0823ac30"><path d="M 497 133 L 502 133 L 502 145 L 497 145 Z M 497 133 " clip-rule="nonzero"/></clipPath><clipPath id="664e1f3e31"><path d="M 481.804688 20.167969 L 588.867188 111.34375 L 499.148438 216.699219 L 392.085938 125.523438 Z M 481.804688 20.167969 " clip-rule="nonzero"/></clipPath><clipPath id="0232857f2e"><path d="M 481.804688 20.167969 L 588.867188 111.34375 L 499.148438 216.699219 L 392.085938 125.523438 Z M 481.804688 20.167969 " clip-rule="nonzero"/></clipPath><clipPath id="e2c22c1767"><path d="M 481.804688 20.167969 L 588.867188 111.34375 L 499.148438 216.699219 L 392.085938 125.523438 Z M 481.804688 20.167969 " clip-rule="nonzero"/></clipPath><clipPath id="78677c20d4"><path d="M 506 156 L 512 156 L 512 167 L 506 167 Z M 506 156 " clip-rule="nonzero"/></clipPath><clipPath id="639f94d0ca"><path d="M 481.804688 20.167969 L 588.867188 111.34375 L 499.148438 216.699219 L 392.085938 125.523438 Z M 481.804688 20.167969 " clip-rule="nonzero"/></clipPath><clipPath id="15d2b8f1aa"><path d="M 481.804688 20.167969 L 588.867188 111.34375 L 499.148438 216.699219 L 392.085938 125.523438 Z M 481.804688 20.167969 " clip-rule="nonzero"/></clipPath><clipPath id="6cf8a1da91"><path d="M 481.804688 20.167969 L 588.867188 111.34375 L 499.148438 216.699219 L 392.085938 125.523438 Z M 481.804688 20.167969 " clip-rule="nonzero"/></clipPath><clipPath id="75a5285adf"><path d="M 498 148 L 503 148 L 503 162 L 498 162 Z M 498 148 " clip-rule="nonzero"/></clipPath><clipPath id="e75f289bc9"><path d="M 481.804688 20.167969 L 588.867188 111.34375 L 499.148438 216.699219 L 392.085938 125.523438 Z M 481.804688 20.167969 " clip-rule="nonzero"/></clipPath><clipPath id="87bd12a917"><path d="M 481.804688 20.167969 L 588.867188 111.34375 L 499.148438 216.699219 L 392.085938 125.523438 Z M 481.804688 20.167969 " clip-rule="nonzero"/></clipPath><clipPath id="918e33417a"><path d="M 481.804688 20.167969 L 588.867188 111.34375 L 499.148438 216.699219 L 392.085938 125.523438 Z M 481.804688 20.167969 " clip-rule="nonzero"/></clipPath><clipPath id="d22000d5f3"><path d="M 485 152 L 490 152 L 490 167 L 485 167 Z M 485 152 " clip-rule="nonzero"/></clipPath><clipPath id="165102520e"><path d="M 481.804688 20.167969 L 588.867188 111.34375 L 499.148438 216.699219 L 392.085938 125.523438 Z M 481.804688 20.167969 " clip-rule="nonzero"/></clipPath><clipPath id="c7d5d6f808"><path d="M 481.804688 20.167969 L 588.867188 111.34375 L 499.148438 216.699219 L 392.085938 125.523438 Z M 481.804688 20.167969 " clip-rule="nonzero"/></clipPath><clipPath id="40480cc44a"><path d="M 481.804688 20.167969 L 588.867188 111.34375 L 499.148438 216.699219 L 392.085938 125.523438 Z M 481.804688 20.167969 " clip-rule="nonzero"/></clipPath><clipPath id="c8a8ca72e2"><path d="M 479 143 L 486 143 L 486 157 L 479 157 Z M 479 143 " clip-rule="nonzero"/></clipPath><clipPath id="1c0f0c6741"><path d="M 481.804688 20.167969 L 588.867188 111.34375 L 499.148438 216.699219 L 392.085938 125.523438 Z M 481.804688 20.167969 " clip-rule="nonzero"/></clipPath><clipPath id="4ca012ffa9"><path d="M 481.804688 20.167969 L 588.867188 111.34375 L 499.148438 216.699219 L 392.085938 125.523438 Z M 481.804688 20.167969 " clip-rule="nonzero"/></clipPath><clipPath id="33f3afd04b"><path d="M 481.804688 20.167969 L 588.867188 111.34375 L 499.148438 216.699219 L 392.085938 125.523438 Z M 481.804688 20.167969 " clip-rule="nonzero"/></clipPath><clipPath id="80c5fe1a54"><path d="M 486 130 L 491 130 L 491 142 L 486 142 Z M 486 130 " clip-rule="nonzero"/></clipPath><clipPath id="2f4c5b61cb"><path d="M 481.804688 20.167969 L 588.867188 111.34375 L 499.148438 216.699219 L 392.085938 125.523438 Z M 481.804688 20.167969 " clip-rule="nonzero"/></clipPath><clipPath id="616fb1e8cd"><path d="M 481.804688 20.167969 L 588.867188 111.34375 L 499.148438 216.699219 L 392.085938 125.523438 Z M 481.804688 20.167969 " clip-rule="nonzero"/></clipPath><clipPath id="8cc0b6d766"><path d="M 481.804688 20.167969 L 588.867188 111.34375 L 499.148438 216.699219 L 392.085938 125.523438 Z M 481.804688 20.167969 " clip-rule="nonzero"/></clipPath><clipPath id="aac3b18323"><path d="M 478 133 L 485 133 L 485 144 L 478 144 Z M 478 133 " clip-rule="nonzero"/></clipPath><clipPath id="03edb1240e"><path d="M 481.804688 20.167969 L 588.867188 111.34375 L 499.148438 216.699219 L 392.085938 125.523438 Z M 481.804688 20.167969 " clip-rule="nonzero"/></clipPath><clipPath id="429f3dfc39"><path d="M 481.804688 20.167969 L 588.867188 111.34375 L 499.148438 216.699219 L 392.085938 125.523438 Z M 481.804688 20.167969 " clip-rule="nonzero"/></clipPath><clipPath id="b27e592e20"><path d="M 481.804688 20.167969 L 588.867188 111.34375 L 499.148438 216.699219 L 392.085938 125.523438 Z M 481.804688 20.167969 " clip-rule="nonzero"/></clipPath><clipPath id="a0cd664c91"><path d="M 470 155 L 477 155 L 477 166 L 470 166 Z M 470 155 " clip-rule="nonzero"/></clipPath><clipPath id="fd9a6911bc"><path d="M 481.804688 20.167969 L 588.867188 111.34375 L 499.148438 216.699219 L 392.085938 125.523438 Z M 481.804688 20.167969 " clip-rule="nonzero"/></clipPath><clipPath id="3cc8904b7c"><path d="M 481.804688 20.167969 L 588.867188 111.34375 L 499.148438 216.699219 L 392.085938 125.523438 Z M 481.804688 20.167969 " clip-rule="nonzero"/></clipPath><clipPath id="24ee627352"><path d="M 481.804688 20.167969 L 588.867188 111.34375 L 499.148438 216.699219 L 392.085938 125.523438 Z M 481.804688 20.167969 " clip-rule="nonzero"/></clipPath><clipPath id="0a33e7fd6b"><path d="M 466 147 L 475 147 L 475 160 L 466 160 Z M 466 147 " clip-rule="nonzero"/></clipPath><clipPath id="3269e779cf"><path d="M 481.804688 20.167969 L 588.867188 111.34375 L 499.148438 216.699219 L 392.085938 125.523438 Z M 481.804688 20.167969 " clip-rule="nonzero"/></clipPath><clipPath id="29d4fe81fd"><path d="M 481.804688 20.167969 L 588.867188 111.34375 L 499.148438 216.699219 L 392.085938 125.523438 Z M 481.804688 20.167969 " clip-rule="nonzero"/></clipPath><clipPath id="36ee96c10c"><path d="M 481.804688 20.167969 L 588.867188 111.34375 L 499.148438 216.699219 L 392.085938 125.523438 Z M 481.804688 20.167969 " clip-rule="nonzero"/></clipPath><clipPath id="11ac10ce84"><path d="M 461 138 L 469 138 L 469 151 L 461 151 Z M 461 138 " clip-rule="nonzero"/></clipPath><clipPath id="585eb18702"><path d="M 481.804688 20.167969 L 588.867188 111.34375 L 499.148438 216.699219 L 392.085938 125.523438 Z M 481.804688 20.167969 " clip-rule="nonzero"/></clipPath><clipPath id="a8e5e78c6f"><path d="M 481.804688 20.167969 L 588.867188 111.34375 L 499.148438 216.699219 L 392.085938 125.523438 Z M 481.804688 20.167969 " clip-rule="nonzero"/></clipPath><clipPath id="d7a867c53b"><path d="M 481.804688 20.167969 L 588.867188 111.34375 L 499.148438 216.699219 L 392.085938 125.523438 Z M 481.804688 20.167969 " clip-rule="nonzero"/></clipPath><clipPath id="d833794acb"><path d="M 458 130 L 471 130 L 471 139 L 458 139 Z M 458 130 " clip-rule="nonzero"/></clipPath><clipPath id="5ffcd71054"><path d="M 481.804688 20.167969 L 588.867188 111.34375 L 499.148438 216.699219 L 392.085938 125.523438 Z M 481.804688 20.167969 " clip-rule="nonzero"/></clipPath><clipPath id="47209c16bd"><path d="M 481.804688 20.167969 L 588.867188 111.34375 L 499.148438 216.699219 L 392.085938 125.523438 Z M 481.804688 20.167969 " clip-rule="nonzero"/></clipPath><clipPath id="49709c3555"><path d="M 481.804688 20.167969 L 588.867188 111.34375 L 499.148438 216.699219 L 392.085938 125.523438 Z M 481.804688 20.167969 " clip-rule="nonzero"/></clipPath><clipPath id="2d045b320d"><path d="M 474 123 L 482 123 L 482 133 L 474 133 Z M 474 123 " clip-rule="nonzero"/></clipPath><clipPath id="9f1e744956"><path d="M 481.804688 20.167969 L 588.867188 111.34375 L 499.148438 216.699219 L 392.085938 125.523438 Z M 481.804688 20.167969 " clip-rule="nonzero"/></clipPath><clipPath id="9b2dcac2ee"><path d="M 481.804688 20.167969 L 588.867188 111.34375 L 499.148438 216.699219 L 392.085938 125.523438 Z M 481.804688 20.167969 " clip-rule="nonzero"/></clipPath><clipPath id="ba99e092ec"><path d="M 481.804688 20.167969 L 588.867188 111.34375 L 499.148438 216.699219 L 392.085938 125.523438 Z M 481.804688 20.167969 " clip-rule="nonzero"/></clipPath><clipPath id="696bd7e3fc"><path d="M 452 144 L 460 144 L 460 153 L 452 153 Z M 452 144 " clip-rule="nonzero"/></clipPath><clipPath id="203f87c323"><path d="M 481.804688 20.167969 L 588.867188 111.34375 L 499.148438 216.699219 L 392.085938 125.523438 Z M 481.804688 20.167969 " clip-rule="nonzero"/></clipPath><clipPath id="8d11003e07"><path d="M 481.804688 20.167969 L 588.867188 111.34375 L 499.148438 216.699219 L 392.085938 125.523438 Z M 481.804688 20.167969 " clip-rule="nonzero"/></clipPath><clipPath id="bb89fcd114"><path d="M 481.804688 20.167969 L 588.867188 111.34375 L 499.148438 216.699219 L 392.085938 125.523438 Z M 481.804688 20.167969 " clip-rule="nonzero"/></clipPath><clipPath id="d20ba13b2f"><path d="M 464 122 L 475 122 L 475 129 L 464 129 Z M 464 122 " clip-rule="nonzero"/></clipPath><clipPath id="797775e304"><path d="M 481.804688 20.167969 L 588.867188 111.34375 L 499.148438 216.699219 L 392.085938 125.523438 Z M 481.804688 20.167969 " clip-rule="nonzero"/></clipPath><clipPath id="77ca85fa2e"><path d="M 481.804688 20.167969 L 588.867188 111.34375 L 499.148438 216.699219 L 392.085938 125.523438 Z M 481.804688 20.167969 " clip-rule="nonzero"/></clipPath><clipPath id="1567cf9dd9"><path d="M 481.804688 20.167969 L 588.867188 111.34375 L 499.148438 216.699219 L 392.085938 125.523438 Z M 481.804688 20.167969 " clip-rule="nonzero"/></clipPath><clipPath id="21510b5347"><path d="M 444 135 L 455 135 L 455 142 L 444 142 Z M 444 135 " clip-rule="nonzero"/></clipPath><clipPath id="bb20416215"><path d="M 481.804688 20.167969 L 588.867188 111.34375 L 499.148438 216.699219 L 392.085938 125.523438 Z M 481.804688 20.167969 " clip-rule="nonzero"/></clipPath><clipPath id="91e6b36caf"><path d="M 481.804688 20.167969 L 588.867188 111.34375 L 499.148438 216.699219 L 392.085938 125.523438 Z M 481.804688 20.167969 " clip-rule="nonzero"/></clipPath><clipPath id="d30f64b82d"><path d="M 481.804688 20.167969 L 588.867188 111.34375 L 499.148438 216.699219 L 392.085938 125.523438 Z M 481.804688 20.167969 " clip-rule="nonzero"/></clipPath><clipPath id="dc37250818"><path d="M 447 127 L 461 127 L 461 135 L 447 135 Z M 447 127 " clip-rule="nonzero"/></clipPath><clipPath id="a92265307c"><path d="M 481.804688 20.167969 L 588.867188 111.34375 L 499.148438 216.699219 L 392.085938 125.523438 Z M 481.804688 20.167969 " clip-rule="nonzero"/></clipPath><clipPath id="15d3d79772"><path d="M 481.804688 20.167969 L 588.867188 111.34375 L 499.148438 216.699219 L 392.085938 125.523438 Z M 481.804688 20.167969 " clip-rule="nonzero"/></clipPath><clipPath id="73c187a9e0"><path d="M 481.804688 20.167969 L 588.867188 111.34375 L 499.148438 216.699219 L 392.085938 125.523438 Z M 481.804688 20.167969 " clip-rule="nonzero"/></clipPath><clipPath id="e553ed16aa"><path d="M 450 115 L 465 115 L 465 121 L 450 121 Z M 450 115 " clip-rule="nonzero"/></clipPath><clipPath id="1d846596fc"><path d="M 481.804688 20.167969 L 588.867188 111.34375 L 499.148438 216.699219 L 392.085938 125.523438 Z M 481.804688 20.167969 " clip-rule="nonzero"/></clipPath><clipPath id="a402576c49"><path d="M 481.804688 20.167969 L 588.867188 111.34375 L 499.148438 216.699219 L 392.085938 125.523438 Z M 481.804688 20.167969 " clip-rule="nonzero"/></clipPath><clipPath id="b107a9c483"><path d="M 481.804688 20.167969 L 588.867188 111.34375 L 499.148438 216.699219 L 392.085938 125.523438 Z M 481.804688 20.167969 " clip-rule="nonzero"/></clipPath><clipPath id="62f67777da"><path d="M 463 110 L 474 110 L 474 115 L 463 115 Z M 463 110 " clip-rule="nonzero"/></clipPath><clipPath id="7ab74e615a"><path d="M 481.804688 20.167969 L 588.867188 111.34375 L 499.148438 216.699219 L 392.085938 125.523438 Z M 481.804688 20.167969 " clip-rule="nonzero"/></clipPath><clipPath id="f30ecbfd7d"><path d="M 481.804688 20.167969 L 588.867188 111.34375 L 499.148438 216.699219 L 392.085938 125.523438 Z M 481.804688 20.167969 " clip-rule="nonzero"/></clipPath><clipPath id="e2d47a1f07"><path d="M 481.804688 20.167969 L 588.867188 111.34375 L 499.148438 216.699219 L 392.085938 125.523438 Z M 481.804688 20.167969 " clip-rule="nonzero"/></clipPath><clipPath id="846c08ca9e"><path d="M 438 113 L 450 113 L 450 117 L 438 117 Z M 438 113 " clip-rule="nonzero"/></clipPath><clipPath id="975fb66b02"><path d="M 481.804688 20.167969 L 588.867188 111.34375 L 499.148438 216.699219 L 392.085938 125.523438 Z M 481.804688 20.167969 " clip-rule="nonzero"/></clipPath><clipPath id="5c42bedda5"><path d="M 481.804688 20.167969 L 588.867188 111.34375 L 499.148438 216.699219 L 392.085938 125.523438 Z M 481.804688 20.167969 " clip-rule="nonzero"/></clipPath><clipPath id="ad99bbb3f9"><path d="M 481.804688 20.167969 L 588.867188 111.34375 L 499.148438 216.699219 L 392.085938 125.523438 Z M 481.804688 20.167969 " clip-rule="nonzero"/></clipPath><clipPath id="6918c6b9b0"><path d="M 441 106 L 456 106 L 456 112 L 441 112 Z M 441 106 " clip-rule="nonzero"/></clipPath><clipPath id="a91ea36a97"><path d="M 481.804688 20.167969 L 588.867188 111.34375 L 499.148438 216.699219 L 392.085938 125.523438 Z M 481.804688 20.167969 " clip-rule="nonzero"/></clipPath><clipPath id="012241238f"><path d="M 481.804688 20.167969 L 588.867188 111.34375 L 499.148438 216.699219 L 392.085938 125.523438 Z M 481.804688 20.167969 " clip-rule="nonzero"/></clipPath><clipPath id="b5a4c0159b"><path d="M 481.804688 20.167969 L 588.867188 111.34375 L 499.148438 216.699219 L 392.085938 125.523438 Z M 481.804688 20.167969 " clip-rule="nonzero"/></clipPath><clipPath id="f768bc2617"><path d="M 455 91 L 469 91 L 469 99 L 455 99 Z M 455 91 " clip-rule="nonzero"/></clipPath><clipPath id="2b86b38d13"><path d="M 481.804688 20.167969 L 588.867188 111.34375 L 499.148438 216.699219 L 392.085938 125.523438 Z M 481.804688 20.167969 " clip-rule="nonzero"/></clipPath><clipPath id="469a127015"><path d="M 481.804688 20.167969 L 588.867188 111.34375 L 499.148438 216.699219 L 392.085938 125.523438 Z M 481.804688 20.167969 " clip-rule="nonzero"/></clipPath><clipPath id="656339ffc6"><path d="M 481.804688 20.167969 L 588.867188 111.34375 L 499.148438 216.699219 L 392.085938 125.523438 Z M 481.804688 20.167969 " clip-rule="nonzero"/></clipPath><clipPath id="eda787efd3"><path d="M 470 97 L 480 97 L 480 105 L 470 105 Z M 470 97 " clip-rule="nonzero"/></clipPath><clipPath id="cb26ae076b"><path d="M 481.804688 20.167969 L 588.867188 111.34375 L 499.148438 216.699219 L 392.085938 125.523438 Z M 481.804688 20.167969 " clip-rule="nonzero"/></clipPath><clipPath id="b3c2224315"><path d="M 481.804688 20.167969 L 588.867188 111.34375 L 499.148438 216.699219 L 392.085938 125.523438 Z M 481.804688 20.167969 " clip-rule="nonzero"/></clipPath><clipPath id="be2f0312ae"><path d="M 481.804688 20.167969 L 588.867188 111.34375 L 499.148438 216.699219 L 392.085938 125.523438 Z M 481.804688 20.167969 " clip-rule="nonzero"/></clipPath><clipPath id="83eae26067"><path d="M 453 80 L 464 80 L 464 91 L 453 91 Z M 453 80 " clip-rule="nonzero"/></clipPath><clipPath id="a42d17b4af"><path d="M 481.804688 20.167969 L 588.867188 111.34375 L 499.148438 216.699219 L 392.085938 125.523438 Z M 481.804688 20.167969 " clip-rule="nonzero"/></clipPath><clipPath id="f7a8a59919"><path d="M 481.804688 20.167969 L 588.867188 111.34375 L 499.148438 216.699219 L 392.085938 125.523438 Z M 481.804688 20.167969 " clip-rule="nonzero"/></clipPath><clipPath id="a82357e14e"><path d="M 481.804688 20.167969 L 588.867188 111.34375 L 499.148438 216.699219 L 392.085938 125.523438 Z M 481.804688 20.167969 " clip-rule="nonzero"/></clipPath><clipPath id="f087400fd0"><path d="M 444 94 L 458 94 L 458 101 L 444 101 Z M 444 94 " clip-rule="nonzero"/></clipPath><clipPath id="5fafb3eba1"><path d="M 481.804688 20.167969 L 588.867188 111.34375 L 499.148438 216.699219 L 392.085938 125.523438 Z M 481.804688 20.167969 " clip-rule="nonzero"/></clipPath><clipPath id="825edac96e"><path d="M 481.804688 20.167969 L 588.867188 111.34375 L 499.148438 216.699219 L 392.085938 125.523438 Z M 481.804688 20.167969 " clip-rule="nonzero"/></clipPath><clipPath id="96adb45b7a"><path d="M 481.804688 20.167969 L 588.867188 111.34375 L 499.148438 216.699219 L 392.085938 125.523438 Z M 481.804688 20.167969 " clip-rule="nonzero"/></clipPath></defs><g clip-path="url(#053e56fdb0)"><path fill="#ffffff" d="M 0.476562 0 L 1197.28125 0 L 1197.28125 261.800781 L 0.476562 261.800781 Z M 0.476562 0 " fill-opacity="1" fill-rule="nonzero"/><path fill="#cb6ce6" d="M 0.476562 0 L 1197.28125 0 L 1197.28125 261.800781 L 0.476562 261.800781 Z M 0.476562 0 " fill-opacity="1" fill-rule="nonzero"/></g><g clip-path="url(#ee567bb6d3)"><g clip-path="url(#770e2a49fa)"><g clip-path="url(#3ddedb98ab)"><g clip-path="url(#18b87ccd07)"><path fill="#f2c91d" d="M 517.769531 54.164062 C 525.246094 57.835938 532.164062 63.085938 538.191406 69.554688 C 545.511719 77.414062 551.707031 86.429688 555.621094 96.441406 C 567.921875 127.910156 544.105469 163.878906 516.339844 178.351562 C 512.054688 180.566406 505.945312 183.53125 497.421875 184.324219 C 465.445312 187.265625 428.195312 156.253906 425.683594 119.617188 C 424.332031 99.964844 433.425781 85.234375 436.496094 80.40625 C 437.59375 78.679688 456.863281 49.441406 489.777344 48.355469 C 503.601562 47.894531 514.4375 52.523438 517.769531 54.164062 Z M 517.769531 54.164062 " fill-opacity="1" fill-rule="nonzero"/></g></g></g></g><g clip-path="url(#ce7d02d0e6)"><g clip-path="url(#7ca755e53b)"><g clip-path="url(#cb75e9189a)"><g clip-path="url(#115bfd9496)"><path fill="#f0efeb" d="M 552.320312 110.171875 C 551.128906 97.09375 544.839844 84.960938 535.1875 76.160156 C 520.875 63.113281 504.632812 52.882812 484.414062 55.144531 C 461.351562 57.730469 443.691406 75.945312 436.34375 93.796875 C 433.289062 101.210938 431.78125 108.917969 431.816406 116.929688 C 431.988281 134.019531 440.121094 149.511719 452.628906 161.019531 C 465.160156 172.566406 481.996094 180.304688 499.277344 177.410156 C 528.546875 172.515625 555.03125 139.832031 552.320312 110.171875 Z M 552.320312 110.171875 " fill-opacity="1" fill-rule="nonzero"/></g></g></g></g><g clip-path="url(#44fc478a5e)"><g clip-path="url(#55b0557d05)"><g clip-path="url(#25f220be25)"><g clip-path="url(#d9567351e2)"><path fill="#f2ad11" d="M 492.894531 64.027344 C 492.898438 63.691406 492.867188 63.355469 492.804688 63.023438 C 492.738281 62.6875 492.644531 62.367188 492.515625 62.050781 C 492.386719 61.738281 492.230469 61.441406 492.042969 61.160156 C 491.855469 60.875 491.644531 60.617188 491.40625 60.375 C 491.164062 60.136719 490.90625 59.921875 490.625 59.734375 C 490.34375 59.546875 490.046875 59.390625 489.734375 59.261719 C 489.417969 59.132812 489.097656 59.035156 488.765625 58.96875 C 488.433594 58.90625 488.097656 58.875 487.757812 58.875 C 482.1875 58.890625 476.625 59.890625 471.292969 62.113281 C 467.421875 63.746094 463.820312 65.851562 460.488281 68.421875 C 460.199219 68.640625 459.9375 68.886719 459.699219 69.160156 C 459.464844 69.4375 459.257812 69.734375 459.085938 70.050781 C 458.910156 70.371094 458.773438 70.703125 458.667969 71.050781 C 458.566406 71.398438 458.5 71.75 458.472656 72.113281 C 458.445312 72.472656 458.457031 72.835938 458.503906 73.191406 C 458.554688 73.550781 458.640625 73.902344 458.761719 74.242188 C 458.886719 74.582031 459.042969 74.90625 459.234375 75.210938 C 459.425781 75.519531 459.648438 75.800781 459.898438 76.0625 C 468.359375 84.757812 486.789062 103.664062 489.617188 106.183594 C 490.226562 106.722656 491.109375 107.394531 491.757812 107.125 C 492.707031 106.730469 492.640625 104.558594 492.625 103.902344 C 492.542969 100.433594 492.675781 85.300781 492.894531 64.027344 Z M 492.894531 64.027344 " fill-opacity="1" fill-rule="nonzero"/></g></g></g></g><g clip-path="url(#8d73f5dc7b)"><g clip-path="url(#ddde7c4127)"><g clip-path="url(#47c1129f5c)"><g clip-path="url(#6b0ee8f98c)"><path fill="#f2ad11" d="M 486.410156 117.527344 C 483.957031 118.269531 467.730469 122.839844 444.511719 129.355469 C 444.011719 129.496094 443.535156 129.691406 443.078125 129.9375 C 442.617188 130.1875 442.195312 130.480469 441.800781 130.820312 C 441.410156 131.164062 441.058594 131.542969 440.75 131.964844 C 440.445312 132.382812 440.1875 132.832031 439.976562 133.308594 C 439.769531 133.785156 439.617188 134.277344 439.515625 134.789062 C 439.417969 135.300781 439.378906 135.8125 439.394531 136.332031 C 439.410156 136.851562 439.484375 137.363281 439.613281 137.867188 C 439.742188 138.371094 439.925781 138.851562 440.164062 139.3125 C 443.167969 145.140625 447.113281 150.242188 451.996094 154.609375 C 452.355469 154.933594 452.742188 155.214844 453.160156 155.457031 C 453.578125 155.699219 454.015625 155.898438 454.472656 156.050781 C 454.929688 156.199219 455.398438 156.304688 455.878906 156.359375 C 456.359375 156.414062 456.835938 156.417969 457.320312 156.375 C 457.800781 156.328125 458.269531 156.238281 458.730469 156.09375 C 459.195312 155.953125 459.636719 155.765625 460.058594 155.53125 C 460.484375 155.296875 460.878906 155.023438 461.246094 154.710938 C 461.613281 154.394531 461.941406 154.046875 462.238281 153.664062 C 471.121094 142.089844 486.496094 122 488.144531 119.421875 C 488.386719 119.039062 489.078125 117.960938 488.714844 117.46875 C 488.324219 116.933594 486.859375 117.390625 486.410156 117.527344 Z M 486.410156 117.527344 " fill-opacity="1" fill-rule="nonzero"/></g></g></g></g><g clip-path="url(#df6064630b)"><g clip-path="url(#961162dda7)"><g clip-path="url(#051d1b5bca)"><g clip-path="url(#424fdedeb9)"><path fill="#f2ad11" d="M 485.457031 112.480469 C 482.273438 111.179688 458.082031 106.207031 442.378906 103.042969 C 442.066406 102.980469 441.753906 102.949219 441.4375 102.949219 C 441.121094 102.945312 440.808594 102.976562 440.496094 103.035156 C 440.183594 103.09375 439.882812 103.183594 439.589844 103.304688 C 439.292969 103.421875 439.015625 103.570312 438.75 103.742188 C 438.484375 103.914062 438.238281 104.113281 438.011719 104.335938 C 437.785156 104.554688 437.582031 104.796875 437.398438 105.058594 C 437.21875 105.320312 437.066406 105.597656 436.941406 105.886719 C 436.816406 106.179688 436.71875 106.480469 436.652344 106.789062 C 435.515625 111.914062 435.097656 117.09375 435.394531 122.332031 C 435.417969 122.695312 435.480469 123.046875 435.582031 123.394531 C 435.683594 123.742188 435.824219 124.070312 435.996094 124.386719 C 436.171875 124.703125 436.382812 124.996094 436.621094 125.265625 C 436.863281 125.53125 437.132812 125.773438 437.425781 125.980469 C 437.71875 126.191406 438.035156 126.363281 438.367188 126.503906 C 438.699219 126.640625 439.042969 126.742188 439.398438 126.804688 C 439.757812 126.867188 440.113281 126.890625 440.476562 126.871094 C 440.835938 126.855469 441.191406 126.796875 441.539062 126.699219 C 465.636719 120.003906 481.714844 115.605469 484.714844 114.957031 C 485.214844 114.847656 487.121094 114.457031 487.164062 113.773438 C 487.207031 113.191406 485.921875 112.667969 485.457031 112.480469 Z M 485.457031 112.480469 " fill-opacity="1" fill-rule="nonzero"/></g></g></g></g><g clip-path="url(#facac5f166)"><g clip-path="url(#8646600e28)"><g clip-path="url(#5a8ee241cc)"><g clip-path="url(#271cfcd4b0)"><path fill="#f2ad11" d="M 527.054688 83.652344 C 527.40625 83.382812 527.722656 83.074219 528.003906 82.734375 C 528.289062 82.390625 528.53125 82.023438 528.730469 81.625 C 528.933594 81.230469 529.089844 80.820312 529.199219 80.386719 C 529.308594 79.957031 529.371094 79.523438 529.382812 79.078125 C 529.394531 78.636719 529.359375 78.195312 529.277344 77.761719 C 529.191406 77.328125 529.058594 76.90625 528.882812 76.5 C 528.703125 76.097656 528.484375 75.714844 528.21875 75.359375 C 527.957031 75.003906 527.660156 74.679688 527.324219 74.390625 C 524.074219 71.597656 520.582031 69.152344 516.847656 67.050781 C 512.703125 64.699219 508.355469 62.8125 503.804688 61.390625 C 503.363281 61.257812 502.914062 61.175781 502.457031 61.144531 C 502 61.113281 501.542969 61.136719 501.089844 61.210938 C 500.636719 61.285156 500.195312 61.410156 499.769531 61.585938 C 499.34375 61.761719 498.945312 61.984375 498.570312 62.25 C 498.195312 62.519531 497.855469 62.824219 497.550781 63.171875 C 497.25 63.515625 496.988281 63.890625 496.769531 64.296875 C 496.550781 64.703125 496.378906 65.125 496.261719 65.570312 C 496.140625 66.011719 496.070312 66.464844 496.050781 66.925781 C 495.59375 78.804688 495.148438 87.71875 494.769531 94.476562 C 494.53125 98.703125 494.054688 106.835938 496.511719 107.589844 C 497.628906 107.929688 498.949219 106.628906 499.417969 106.167969 C 503.136719 102.535156 512.863281 94.695312 527.054688 83.652344 Z M 527.054688 83.652344 " fill-opacity="1" fill-rule="nonzero"/></g></g></g></g><g clip-path="url(#62deca3f6d)"><g clip-path="url(#d9143dbc4e)"><g clip-path="url(#c697e41c56)"><g clip-path="url(#9a9a599cb7)"><path fill="#f2ad11" d="M 487.359375 107.980469 C 478.707031 97.636719 463.5 83.496094 463.5 83.496094 C 456.851562 77.316406 455.011719 74.554688 452.0625 75.144531 C 449.984375 75.558594 448.003906 78.832031 444.121094 85.351562 C 439.050781 93.882812 439.164062 95.40625 439.574219 96.433594 C 440.1875 97.988281 441.699219 99.003906 448.898438 101.234375 C 455.011719 103.125 457.617188 103.539062 462.085938 104.726562 C 462.085938 104.726562 476.59375 108.582031 486.511719 109.820312 C 486.925781 109.875 487.820312 109.96875 488.046875 109.5625 C 488.296875 109.125 487.652344 108.332031 487.359375 107.980469 Z M 487.359375 107.980469 " fill-opacity="1" fill-rule="nonzero"/></g></g></g></g><g clip-path="url(#7ee9c740a6)"><g clip-path="url(#89fa631fd2)"><g clip-path="url(#86fd79f4ac)"><g clip-path="url(#4596b08841)"><path fill="#f2ad11" d="M 495.933594 121.796875 C 495.800781 127.964844 495.699219 134.183594 495.636719 140.464844 C 495.546875 148.738281 495.523438 156.917969 495.566406 165.007812 C 495.566406 165.472656 495.621094 165.929688 495.722656 166.378906 C 495.824219 166.832031 495.976562 167.265625 496.175781 167.683594 C 496.371094 168.101562 496.613281 168.496094 496.898438 168.859375 C 497.183594 169.222656 497.503906 169.554688 497.859375 169.847656 C 498.214844 170.140625 498.601562 170.394531 499.011719 170.601562 C 499.425781 170.8125 499.855469 170.976562 500.304688 171.089844 C 500.753906 171.203125 501.207031 171.269531 501.671875 171.285156 C 502.132812 171.296875 502.59375 171.261719 503.046875 171.175781 C 505.574219 170.707031 508.046875 170.042969 510.46875 169.183594 C 515.183594 167.46875 519.527344 165.078125 523.503906 162.011719 C 523.832031 161.757812 524.132812 161.46875 524.40625 161.15625 C 524.679688 160.839844 524.917969 160.5 525.125 160.136719 C 525.332031 159.773438 525.5 159.394531 525.632812 159 C 525.761719 158.601562 525.855469 158.199219 525.90625 157.785156 C 525.957031 157.371094 525.96875 156.957031 525.9375 156.539062 C 525.90625 156.125 525.835938 155.714844 525.722656 155.316406 C 525.613281 154.914062 525.460938 154.527344 525.273438 154.15625 C 525.085938 153.785156 524.863281 153.433594 524.605469 153.109375 C 516.351562 142.578125 500.511719 122.433594 498.328125 120.097656 C 498.023438 119.773438 497.199219 118.890625 496.605469 119.109375 C 495.925781 119.351562 495.898438 120.898438 495.933594 121.796875 Z M 495.933594 121.796875 " fill-opacity="1" fill-rule="nonzero"/></g></g></g></g><g clip-path="url(#4a39d6fb5b)"><g clip-path="url(#3895477d75)"><g clip-path="url(#cd3afe8739)"><g clip-path="url(#77cddc8bb8)"><path fill="#f2ad11" d="M 493.234375 121.582031 C 493.226562 120.957031 493.1875 119.609375 492.546875 119.375 C 491.75 119.070312 490.441406 120.667969 489.769531 121.53125 C 486.773438 125.359375 472.027344 145.617188 464.597656 155.828125 C 464.332031 156.195312 464.109375 156.585938 463.921875 156.996094 C 463.738281 157.410156 463.597656 157.835938 463.5 158.277344 C 463.40625 158.71875 463.355469 159.164062 463.351562 159.617188 C 463.347656 160.070312 463.386719 160.515625 463.476562 160.957031 C 463.566406 161.402344 463.699219 161.828125 463.875 162.246094 C 464.054688 162.660156 464.273438 163.050781 464.53125 163.421875 C 464.789062 163.789062 465.085938 164.128906 465.414062 164.4375 C 465.742188 164.742188 466.101562 165.015625 466.488281 165.246094 L 466.558594 165.289062 C 469.128906 166.835938 471.824219 168.128906 474.640625 169.164062 C 478.007812 170.398438 481.464844 171.257812 485.019531 171.734375 C 485.476562 171.792969 485.933594 171.804688 486.390625 171.765625 C 486.847656 171.730469 487.296875 171.644531 487.738281 171.515625 C 488.175781 171.382812 488.597656 171.207031 489.003906 170.984375 C 489.40625 170.765625 489.78125 170.503906 490.128906 170.203125 C 490.476562 169.902344 490.792969 169.570312 491.070312 169.203125 C 491.347656 168.835938 491.585938 168.445312 491.78125 168.03125 C 491.976562 167.613281 492.128906 167.183594 492.230469 166.734375 C 492.335938 166.289062 492.394531 165.835938 492.402344 165.375 C 492.6875 152.371094 493.28125 125.515625 493.234375 121.582031 Z M 493.234375 121.582031 " fill-opacity="1" fill-rule="nonzero"/></g></g></g></g><g clip-path="url(#fd8e1fe573)"><g clip-path="url(#a8bc14dd17)"><g clip-path="url(#c2cee6ae10)"><g clip-path="url(#ae15d35bfd)"><path fill="#f2ad11" d="M 501.972656 119.246094 L 526.121094 149.644531 C 526.398438 149.996094 526.714844 150.308594 527.0625 150.582031 C 527.414062 150.859375 527.792969 151.089844 528.199219 151.277344 C 528.605469 151.460938 529.023438 151.597656 529.464844 151.683594 C 529.902344 151.773438 530.34375 151.808594 530.789062 151.789062 C 531.234375 151.773438 531.675781 151.703125 532.105469 151.582031 C 532.535156 151.464844 532.945312 151.296875 533.335938 151.078125 C 533.726562 150.863281 534.089844 150.601562 534.417969 150.300781 C 534.75 150 535.039062 149.664062 535.292969 149.292969 C 539.742188 142.710938 542.410156 136.03125 543.929688 131.210938 C 544.046875 130.839844 544.125 130.460938 544.164062 130.070312 C 544.203125 129.683594 544.203125 129.296875 544.160156 128.90625 C 544.121094 128.519531 544.039062 128.140625 543.921875 127.769531 C 543.804688 127.398438 543.648438 127.042969 543.457031 126.703125 C 543.265625 126.367188 543.042969 126.050781 542.785156 125.757812 C 542.527344 125.464844 542.246094 125.199219 541.933594 124.964844 C 541.625 124.730469 541.292969 124.53125 540.941406 124.367188 C 540.589844 124.199219 540.222656 124.070312 539.84375 123.980469 C 519.199219 118.988281 504.46875 115.453125 501.769531 114.828125 C 501.324219 114.722656 500.292969 114.496094 499.933594 114.96875 C 499.375 115.695312 500.746094 117.699219 501.972656 119.246094 Z M 501.972656 119.246094 " fill-opacity="1" fill-rule="nonzero"/></g></g></g></g><g clip-path="url(#4f485dd5a9)"><g clip-path="url(#9921fcd14e)"><g clip-path="url(#e9e6cae877)"><g clip-path="url(#061d5ae287)"><path fill="#f2ad11" d="M 539.742188 120.765625 C 540.148438 120.84375 540.558594 120.878906 540.976562 120.867188 C 541.390625 120.855469 541.796875 120.796875 542.199219 120.695312 C 542.605469 120.589844 542.988281 120.445312 543.359375 120.257812 C 543.730469 120.066406 544.074219 119.839844 544.394531 119.574219 C 544.714844 119.308594 545.003906 119.011719 545.257812 118.683594 C 545.511719 118.355469 545.726562 118 545.902344 117.625 C 546.078125 117.25 546.210938 116.855469 546.300781 116.449219 C 546.390625 116.042969 546.433594 115.632812 546.433594 115.21875 C 546.445312 110.886719 545.945312 106.613281 544.929688 102.402344 C 543.558594 96.816406 541.3125 91.609375 538.191406 86.78125 C 537.980469 86.460938 537.742188 86.167969 537.476562 85.894531 C 537.207031 85.625 536.914062 85.382812 536.59375 85.171875 C 536.277344 84.960938 535.941406 84.785156 535.585938 84.644531 C 535.234375 84.503906 534.867188 84.398438 534.492188 84.332031 C 534.117188 84.265625 533.738281 84.238281 533.355469 84.25 C 532.972656 84.261719 532.597656 84.308594 532.222656 84.398438 C 531.851562 84.484375 531.492188 84.613281 531.148438 84.773438 C 530.800781 84.933594 530.472656 85.128906 530.167969 85.359375 C 520.796875 92.339844 502.25 106.265625 500.457031 108.570312 C 500.285156 108.789062 499.824219 109.382812 499.898438 110.089844 C 500.066406 111.695312 502.824219 112.621094 503.824219 112.957031 C 508.472656 114.515625 529.042969 118.65625 539.742188 120.765625 Z M 539.742188 120.765625 " fill-opacity="1" fill-rule="nonzero"/></g></g></g></g><g clip-path="url(#fd7d72fdb5)"><g clip-path="url(#61c5ab1c7c)"><g clip-path="url(#3b34fea39e)"><g clip-path="url(#dae314faac)"><path fill="#f2c91d" d="M 470.117188 74.914062 C 470.449219 75.214844 470.765625 75.527344 471.074219 75.84375 C 471.378906 76.164062 471.667969 76.480469 471.9375 76.800781 C 472.207031 77.121094 472.453125 77.4375 472.675781 77.746094 C 472.894531 78.054688 473.089844 78.355469 473.257812 78.640625 C 473.425781 78.929688 473.5625 79.203125 473.664062 79.457031 C 473.769531 79.710938 473.84375 79.945312 473.882812 80.15625 C 473.921875 80.367188 473.925781 80.554688 473.898438 80.714844 C 473.867188 80.878906 473.804688 81.007812 473.710938 81.113281 C 473.617188 81.21875 473.488281 81.289062 473.332031 81.332031 C 473.175781 81.375 472.988281 81.386719 472.773438 81.367188 C 472.558594 81.347656 472.320312 81.296875 472.058594 81.210938 C 471.792969 81.128906 471.511719 81.019531 471.210938 80.878906 C 470.910156 80.738281 470.59375 80.570312 470.265625 80.375 C 469.9375 80.179688 469.605469 79.960938 469.261719 79.722656 C 468.917969 79.480469 468.578125 79.222656 468.234375 78.945312 C 467.890625 78.667969 467.550781 78.378906 467.222656 78.074219 C 466.890625 77.769531 466.570312 77.460938 466.265625 77.140625 C 465.960938 76.824219 465.671875 76.507812 465.402344 76.1875 C 465.132812 75.867188 464.886719 75.550781 464.664062 75.242188 C 464.441406 74.929688 464.246094 74.632812 464.078125 74.34375 C 463.914062 74.058594 463.777344 73.785156 463.671875 73.53125 C 463.566406 73.277344 463.496094 73.042969 463.457031 72.832031 C 463.417969 72.617188 463.410156 72.433594 463.441406 72.269531 C 463.46875 72.109375 463.53125 71.976562 463.625 71.875 C 463.722656 71.769531 463.847656 71.695312 464.003906 71.652344 C 464.164062 71.613281 464.347656 71.601562 464.5625 71.621094 C 464.777344 71.640625 465.015625 71.691406 465.28125 71.773438 C 465.542969 71.855469 465.824219 71.96875 466.125 72.109375 C 466.429688 72.25 466.742188 72.417969 467.070312 72.613281 C 467.398438 72.808594 467.734375 73.023438 468.078125 73.265625 C 468.417969 73.503906 468.761719 73.765625 469.105469 74.042969 C 469.449219 74.320312 469.785156 74.609375 470.117188 74.914062 Z M 470.117188 74.914062 " fill-opacity="1" fill-rule="nonzero"/></g></g></g></g><g clip-path="url(#596b004fb6)"><g clip-path="url(#5079ce6c37)"><g clip-path="url(#af4b662e15)"><g clip-path="url(#17be1b30c6)"><path fill="#f2c91d" d="M 480.71875 75.214844 C 482.222656 78.683594 482.5625 81.878906 481.484375 82.347656 C 480.402344 82.816406 478.300781 80.394531 476.796875 76.925781 C 475.292969 73.460938 474.953125 70.265625 476.03125 69.796875 C 477.113281 69.328125 479.214844 71.75 480.71875 75.214844 Z M 480.71875 75.214844 " fill-opacity="1" fill-rule="nonzero"/></g></g></g></g><g clip-path="url(#96579565ed)"><g clip-path="url(#325c122271)"><g clip-path="url(#d51ed4ec6f)"><g clip-path="url(#a31dc3e0a8)"><path fill="#f2c91d" d="M 484.601562 92.550781 C 486.511719 94.800781 487.488281 97.109375 486.78125 97.710938 C 486.078125 98.308594 483.957031 96.964844 482.050781 94.71875 C 480.148438 92.476562 479.167969 90.160156 479.875 89.5625 C 480.578125 88.964844 482.695312 90.304688 484.601562 92.550781 Z M 484.601562 92.550781 " fill-opacity="1" fill-rule="nonzero"/></g></g></g></g><g clip-path="url(#90ff403985)"><g clip-path="url(#202bfa900f)"><g clip-path="url(#48260bf8c2)"><g clip-path="url(#99aceca720)"><path fill="#f2c91d" d="M 489.226562 85.671875 C 489.796875 88.570312 489.53125 91.0625 488.628906 91.25 C 487.730469 91.4375 486.515625 89.238281 485.945312 86.328125 C 485.371094 83.421875 485.640625 80.9375 486.539062 80.75 C 487.441406 80.5625 488.652344 82.773438 489.226562 85.671875 Z M 489.226562 85.671875 " fill-opacity="1" fill-rule="nonzero"/></g></g></g></g><g clip-path="url(#ebbdb5edab)"><g clip-path="url(#74660b8ae9)"><g clip-path="url(#9c4bbc5cba)"><g clip-path="url(#f5e704eab6)"><path fill="#f2c91d" d="M 487.972656 68.28125 C 488.53125 72.023438 488.035156 75.199219 486.867188 75.375 C 485.695312 75.554688 484.296875 72.667969 483.738281 68.925781 C 483.179688 65.183594 483.675781 62.011719 484.84375 61.832031 C 486.011719 61.652344 487.421875 64.542969 487.972656 68.28125 Z M 487.972656 68.28125 " fill-opacity="1" fill-rule="nonzero"/></g></g></g></g><g clip-path="url(#28fe6f7ec0)"><g clip-path="url(#5585b43400)"><g clip-path="url(#83ac16479e)"><g clip-path="url(#6f7447b942)"><path fill="#f2c91d" d="M 502.894531 75.023438 C 502.890625 75.472656 502.875 75.917969 502.84375 76.359375 C 502.8125 76.800781 502.769531 77.226562 502.710938 77.644531 C 502.65625 78.058594 502.585938 78.453125 502.507812 78.828125 C 502.425781 79.199219 502.332031 79.546875 502.230469 79.863281 C 502.128906 80.179688 502.019531 80.464844 501.902344 80.714844 C 501.78125 80.964844 501.65625 81.171875 501.527344 81.34375 C 501.394531 81.515625 501.261719 81.644531 501.121094 81.734375 C 500.984375 81.820312 500.84375 81.863281 500.703125 81.863281 C 500.5625 81.863281 500.425781 81.816406 500.289062 81.730469 C 500.148438 81.640625 500.015625 81.511719 499.890625 81.335938 C 499.761719 81.164062 499.636719 80.953125 499.523438 80.703125 C 499.410156 80.453125 499.304688 80.167969 499.207031 79.847656 C 499.109375 79.53125 499.023438 79.183594 498.949219 78.808594 C 498.871094 78.433594 498.808594 78.039062 498.757812 77.625 C 498.707031 77.207031 498.671875 76.78125 498.648438 76.339844 C 498.625 75.898438 498.613281 75.453125 498.617188 75.003906 C 498.621094 74.550781 498.636719 74.105469 498.667969 73.667969 C 498.699219 73.226562 498.742188 72.796875 498.800781 72.382812 C 498.855469 71.964844 498.925781 71.570312 499.007812 71.199219 C 499.085938 70.824219 499.179688 70.480469 499.28125 70.160156 C 499.382812 69.84375 499.492188 69.5625 499.609375 69.3125 C 499.730469 69.0625 499.855469 68.851562 499.984375 68.679688 C 500.117188 68.507812 500.25 68.378906 500.390625 68.292969 C 500.527344 68.207031 500.667969 68.160156 500.808594 68.164062 C 500.949219 68.164062 501.085938 68.207031 501.226562 68.296875 C 501.363281 68.382812 501.496094 68.515625 501.625 68.6875 C 501.75 68.859375 501.875 69.074219 501.988281 69.324219 C 502.101562 69.574219 502.210938 69.859375 502.304688 70.175781 C 502.402344 70.496094 502.488281 70.839844 502.5625 71.214844 C 502.640625 71.589844 502.703125 71.984375 502.753906 72.402344 C 502.804688 72.816406 502.839844 73.246094 502.863281 73.6875 C 502.890625 74.128906 502.898438 74.574219 502.894531 75.023438 Z M 502.894531 75.023438 " fill-opacity="1" fill-rule="nonzero"/></g></g></g></g><g clip-path="url(#c6239e0bcf)"><g clip-path="url(#b03a3cedfe)"><g clip-path="url(#9795580ce1)"><g clip-path="url(#3bb8996b36)"><path fill="#f2c91d" d="M 510.683594 75.855469 C 509.3125 79.386719 507.3125 81.90625 506.210938 81.480469 C 505.109375 81.054688 505.324219 77.847656 506.691406 74.316406 C 508.0625 70.785156 510.066406 68.269531 511.167969 68.695312 C 512.269531 69.117188 512.054688 72.320312 510.683594 75.855469 Z M 510.683594 75.855469 " fill-opacity="1" fill-rule="nonzero"/></g></g></g></g><g clip-path="url(#75eb2a4342)"><g clip-path="url(#2faef073d1)"><g clip-path="url(#68b022fc47)"><g clip-path="url(#c805ccf7c4)"><path fill="#f2c91d" d="M 501.074219 93.800781 C 500.847656 96.75 499.917969 99.082031 499 99.011719 C 498.078125 98.945312 497.515625 96.5 497.746094 93.550781 C 497.980469 90.597656 498.902344 88.269531 499.824219 88.339844 C 500.746094 88.40625 501.300781 90.855469 501.074219 93.800781 Z M 501.074219 93.800781 " fill-opacity="1" fill-rule="nonzero"/></g></g></g></g><g clip-path="url(#79560ea72e)"><g clip-path="url(#2da2b648c2)"><g clip-path="url(#a9dbe0b1a1)"><g clip-path="url(#f782b6e15c)"><path fill="#f2c91d" d="M 507.949219 91.839844 C 506.320312 94.308594 504.375 95.898438 503.605469 95.394531 C 502.835938 94.890625 503.53125 92.476562 505.160156 90.003906 C 506.789062 87.535156 508.734375 85.945312 509.503906 86.453125 C 510.273438 86.960938 509.578125 89.371094 507.949219 91.839844 Z M 507.949219 91.839844 " fill-opacity="1" fill-rule="nonzero"/></g></g></g></g><g clip-path="url(#76d3c75a92)"><g clip-path="url(#e731aeb2a2)"><g clip-path="url(#8f5d100d25)"><g clip-path="url(#c0df873451)"><path fill="#f2c91d" d="M 519.726562 87.632812 C 517.339844 89.382812 514.96875 90.195312 514.421875 89.453125 C 513.875 88.707031 515.367188 86.6875 517.753906 84.9375 C 520.140625 83.1875 522.507812 82.378906 523.054688 83.117188 C 523.605469 83.851562 522.109375 85.882812 519.726562 87.632812 Z M 519.726562 87.632812 " fill-opacity="1" fill-rule="nonzero"/></g></g></g></g><g clip-path="url(#bf562e316f)"><g clip-path="url(#98b194c448)"><g clip-path="url(#ca6e6c40cb)"><g clip-path="url(#2891484d38)"><path fill="#f2c91d" d="M 519.527344 79.148438 C 517.296875 82.210938 514.714844 84.125 513.761719 83.433594 C 512.808594 82.738281 513.84375 79.691406 516.074219 76.632812 C 518.304688 73.574219 520.890625 71.652344 521.84375 72.351562 C 522.796875 73.046875 521.761719 76.089844 519.527344 79.148438 Z M 519.527344 79.148438 " fill-opacity="1" fill-rule="nonzero"/></g></g></g></g><g clip-path="url(#25fca33625)"><g clip-path="url(#f7b6c4e0b1)"><g clip-path="url(#768a2bb64f)"><g clip-path="url(#4f9515324e)"><path fill="#f2c91d" d="M 527.253906 96.609375 C 524.339844 99.023438 521.363281 100.246094 520.613281 99.335938 C 519.863281 98.425781 521.609375 95.726562 524.53125 93.316406 C 527.457031 90.902344 530.421875 89.679688 531.175781 90.589844 C 531.929688 91.5 530.171875 94.195312 527.253906 96.609375 Z M 527.253906 96.609375 " fill-opacity="1" fill-rule="nonzero"/></g></g></g></g><g clip-path="url(#5794ab095c)"><g clip-path="url(#f1124f2f44)"><g clip-path="url(#7b78c0a600)"><g clip-path="url(#6865347a2c)"><path fill="#f2c91d" d="M 531.832031 103.113281 C 528.1875 104.136719 524.976562 104.042969 524.660156 102.90625 C 524.34375 101.765625 527.042969 100.015625 530.6875 98.992188 C 534.332031 97.964844 537.539062 98.0625 537.855469 99.199219 C 538.171875 100.335938 535.476562 102.089844 531.832031 103.113281 Z M 531.832031 103.113281 " fill-opacity="1" fill-rule="nonzero"/></g></g></g></g><g clip-path="url(#7e7058b7c6)"><g clip-path="url(#dd513571d6)"><g clip-path="url(#d1d1908a0b)"><g clip-path="url(#f65ac35455)"><path fill="#f2c91d" d="M 509.667969 107.210938 C 507.171875 108.789062 504.753906 109.457031 504.261719 108.683594 C 503.769531 107.90625 505.390625 105.984375 507.886719 104.398438 C 510.382812 102.8125 512.800781 102.152344 513.292969 102.929688 C 513.785156 103.707031 512.164062 105.625 509.667969 107.210938 Z M 509.667969 107.210938 " fill-opacity="1" fill-rule="nonzero"/></g></g></g></g><g clip-path="url(#1fc858cdd0)"><g clip-path="url(#4a463748ba)"><g clip-path="url(#0b996cac9f)"><g clip-path="url(#011d44a9a2)"><path fill="#f2c91d" d="M 519.027344 109.210938 C 516.128906 109.789062 513.636719 109.53125 513.453125 108.628906 C 513.265625 107.730469 515.476562 106.519531 518.371094 105.9375 C 521.265625 105.351562 523.761719 105.617188 523.945312 106.515625 C 524.132812 107.417969 521.921875 108.628906 519.027344 109.210938 Z M 519.027344 109.210938 " fill-opacity="1" fill-rule="nonzero"/></g></g></g></g><g clip-path="url(#604a3e4fbe)"><g clip-path="url(#2fe6aaba22)"><g clip-path="url(#ce38116a92)"><g clip-path="url(#094ecb5294)"><path fill="#f2c91d" d="M 528.367188 114.816406 C 525.546875 113.949219 523.480469 112.53125 523.753906 111.648438 C 524.027344 110.765625 526.539062 110.753906 529.355469 111.621094 C 532.175781 112.492188 534.242188 113.910156 533.96875 114.792969 C 533.695312 115.675781 531.1875 115.683594 528.367188 114.816406 Z M 528.367188 114.816406 " fill-opacity="1" fill-rule="nonzero"/></g></g></g></g><g clip-path="url(#a7cc27cb37)"><g clip-path="url(#1334f64de7)"><g clip-path="url(#c0896bfbbb)"><g clip-path="url(#8fb7eb5883)"><path fill="#f2c91d" d="M 536.988281 110.285156 C 533.207031 110.332031 530.132812 109.414062 530.121094 108.230469 C 530.109375 107.046875 533.164062 106.050781 536.945312 106 C 540.726562 105.953125 543.800781 106.871094 543.8125 108.054688 C 543.824219 109.238281 540.769531 110.234375 536.988281 110.285156 Z M 536.988281 110.285156 " fill-opacity="1" fill-rule="nonzero"/></g></g></g></g><g clip-path="url(#b0bfa6c243)"><g clip-path="url(#1a6ace1a38)"><g clip-path="url(#047df0d4e6)"><g clip-path="url(#264f58e36d)"><path fill="#f2c91d" d="M 530.734375 128.265625 C 526.976562 127.84375 524.046875 126.539062 524.183594 125.367188 C 524.320312 124.191406 527.476562 123.585938 531.230469 124.011719 C 534.988281 124.4375 537.921875 125.738281 537.785156 126.910156 C 537.648438 128.085938 534.488281 128.699219 530.734375 128.265625 Z M 530.734375 128.265625 " fill-opacity="1" fill-rule="nonzero"/></g></g></g></g><g clip-path="url(#ee163389e2)"><g clip-path="url(#018265f6be)"><g clip-path="url(#072c2cef11)"><g clip-path="url(#01dbb514f0)"><path fill="#f2c91d" d="M 527.527344 135.609375 C 524.273438 133.691406 522.125 131.308594 522.726562 130.289062 C 523.328125 129.269531 526.457031 129.996094 529.707031 131.921875 C 532.957031 133.84375 535.109375 136.21875 534.507812 137.238281 C 533.90625 138.257812 530.78125 137.527344 527.527344 135.609375 Z M 527.527344 135.609375 " fill-opacity="1" fill-rule="nonzero"/></g></g></g></g><g clip-path="url(#920ad5c299)"><g clip-path="url(#6393333a6f)"><g clip-path="url(#4a4c3b441e)"><g clip-path="url(#55d61781b9)"><path fill="#f2c91d" d="M 512.515625 122.921875 C 509.761719 121.863281 507.800781 120.300781 508.132812 119.441406 C 508.464844 118.582031 510.972656 118.742188 513.722656 119.804688 C 516.476562 120.863281 518.4375 122.425781 518.105469 123.285156 C 517.773438 124.144531 515.265625 123.984375 512.515625 122.921875 Z M 512.515625 122.921875 " fill-opacity="1" fill-rule="nonzero"/></g></g></g></g><g clip-path="url(#2c5da2c8a7)"><g clip-path="url(#922f16e942)"><g clip-path="url(#c3d462fbca)"><g clip-path="url(#1bf2c11147)"><path fill="#f2c91d" d="M 513.777344 130.792969 C 511.613281 128.789062 510.367188 126.613281 510.992188 125.933594 C 511.617188 125.25 513.886719 126.332031 516.046875 128.332031 C 518.210938 130.332031 519.457031 132.511719 518.835938 133.191406 C 518.210938 133.875 515.941406 132.796875 513.777344 130.792969 Z M 513.777344 130.792969 " fill-opacity="1" fill-rule="nonzero"/></g></g></g></g><g clip-path="url(#4d2c4ec2d1)"><g clip-path="url(#8620f91580)"><g clip-path="url(#ba99af8a69)"><g clip-path="url(#052007a10f)"><path fill="#f2c91d" d="M 526.039062 144.628906 C 523.394531 141.9375 521.933594 139.078125 522.777344 138.25 C 523.621094 137.421875 526.449219 138.929688 529.097656 141.625 C 531.742188 144.320312 533.203125 147.179688 532.359375 148.007812 C 531.515625 148.835938 528.691406 147.332031 526.039062 144.628906 Z M 526.039062 144.628906 " fill-opacity="1" fill-rule="nonzero"/></g></g></g></g><g clip-path="url(#289bc15db2)"><g clip-path="url(#eab3bc3b83)"><g clip-path="url(#4abc00871f)"><g clip-path="url(#d0a3bc2fb2)"><path fill="#f2c91d" d="M 516.074219 151.648438 C 513.398438 148.984375 511.902344 146.144531 512.738281 145.304688 C 513.570312 144.464844 516.421875 145.945312 519.097656 148.609375 C 521.777344 151.273438 523.269531 154.113281 522.433594 154.953125 C 521.597656 155.792969 518.75 154.3125 516.074219 151.648438 Z M 516.074219 151.648438 " fill-opacity="1" fill-rule="nonzero"/></g></g></g></g><g clip-path="url(#5494d40862)"><g clip-path="url(#e7fab5aab1)"><g clip-path="url(#6ce35532e4)"><g clip-path="url(#e2c4296471)"><path fill="#f2c91d" d="M 506.390625 149.414062 C 505.027344 145.890625 504.820312 142.683594 505.921875 142.253906 C 507.027344 141.824219 509.023438 144.339844 510.382812 147.863281 C 511.738281 151.390625 511.949219 154.59375 510.847656 155.023438 C 509.742188 155.453125 507.753906 152.945312 506.390625 149.414062 Z M 506.390625 149.414062 " fill-opacity="1" fill-rule="nonzero"/></g></g></g></g><g clip-path="url(#e276e5af00)"><g clip-path="url(#26d0de4529)"><g clip-path="url(#0ffb6f2853)"><g clip-path="url(#4d8ea22e67)"><path fill="#f2c91d" d="M 501.863281 132.648438 C 500.050781 130.320312 499.171875 127.972656 499.898438 127.40625 C 500.625 126.835938 502.6875 128.257812 504.503906 130.585938 C 506.316406 132.914062 507.195312 135.261719 506.46875 135.832031 C 505.738281 136.402344 503.679688 134.972656 501.863281 132.648438 Z M 501.863281 132.648438 " fill-opacity="1" fill-rule="nonzero"/></g></g></g></g><g clip-path="url(#4e0823ac30)"><g clip-path="url(#664e1f3e31)"><g clip-path="url(#0232857f2e)"><g clip-path="url(#e2c22c1767)"><path fill="#f2c91d" d="M 498.171875 139.234375 C 497.71875 136.316406 498.085938 133.835938 499 133.691406 C 499.914062 133.542969 501.019531 135.792969 501.472656 138.710938 C 501.925781 141.628906 501.558594 144.109375 500.644531 144.257812 C 499.726562 144.402344 498.625 142.148438 498.171875 139.234375 Z M 498.171875 139.234375 " fill-opacity="1" fill-rule="nonzero"/></g></g></g></g><g clip-path="url(#78677c20d4)"><g clip-path="url(#639f94d0ca)"><g clip-path="url(#15d2b8f1aa)"><g clip-path="url(#6cf8a1da91)"><path fill="#f2c91d" d="M 507.554688 162.507812 C 506.496094 159.75 506.332031 157.25 507.191406 156.914062 C 508.054688 156.582031 509.613281 158.542969 510.675781 161.296875 C 511.738281 164.050781 511.898438 166.554688 511.039062 166.890625 C 510.179688 167.222656 508.617188 165.261719 507.554688 162.507812 Z M 507.554688 162.507812 " fill-opacity="1" fill-rule="nonzero"/></g></g></g></g><g clip-path="url(#75a5285adf)"><g clip-path="url(#e75f289bc9)"><g clip-path="url(#87bd12a917)"><g clip-path="url(#918e33417a)"><path fill="#f2c91d" d="M 498.574219 155.050781 C 498.171875 151.289062 498.796875 148.136719 499.96875 148.007812 C 501.144531 147.875 502.421875 150.820312 502.828125 154.582031 C 503.234375 158.34375 502.605469 161.496094 501.429688 161.625 C 500.253906 161.753906 498.976562 158.808594 498.574219 155.050781 Z M 498.574219 155.050781 " fill-opacity="1" fill-rule="nonzero"/></g></g></g></g><g clip-path="url(#d22000d5f3)"><g clip-path="url(#165102520e)"><g clip-path="url(#c7d5d6f808)"><g clip-path="url(#40480cc44a)"><path fill="#f2c91d" d="M 485.371094 159.566406 C 484.925781 155.808594 485.519531 152.648438 486.691406 152.507812 C 487.867188 152.367188 489.175781 155.296875 489.621094 159.050781 C 490.0625 162.804688 489.472656 165.96875 488.296875 166.109375 C 487.125 166.25 485.820312 163.316406 485.371094 159.566406 Z M 485.371094 159.566406 " fill-opacity="1" fill-rule="nonzero"/></g></g></g></g><g clip-path="url(#c8a8ca72e2)"><g clip-path="url(#1c0f0c6741)"><g clip-path="url(#4ca012ffa9)"><g clip-path="url(#33f3afd04b)"><path fill="#f2c91d" d="M 480.332031 149.148438 C 481.457031 145.53125 483.277344 142.882812 484.40625 143.230469 C 485.535156 143.578125 485.542969 146.789062 484.421875 150.40625 C 483.296875 154.023438 481.472656 156.671875 480.347656 156.324219 C 479.21875 155.976562 479.210938 152.765625 480.332031 149.148438 Z M 480.332031 149.148438 " fill-opacity="1" fill-rule="nonzero"/></g></g></g></g><g clip-path="url(#80c5fe1a54)"><g clip-path="url(#2f4c5b61cb)"><g clip-path="url(#616fb1e8cd)"><g clip-path="url(#8cc0b6d766)"><path fill="#f2c91d" d="M 486.875 136.015625 C 486.898438 133.0625 487.664062 130.667969 488.585938 130.671875 C 489.507812 130.679688 490.234375 133.074219 490.214844 136.03125 C 490.199219 138.992188 489.425781 141.378906 488.503906 141.375 C 487.582031 141.371094 486.851562 138.96875 486.875 136.015625 Z M 486.875 136.015625 " fill-opacity="1" fill-rule="nonzero"/></g></g></g></g><g clip-path="url(#aac3b18323)"><g clip-path="url(#03edb1240e)"><g clip-path="url(#429f3dfc39)"><g clip-path="url(#b27e592e20)"><path fill="#f2c91d" d="M 480.261719 137.519531 C 481.714844 134.941406 483.542969 133.21875 484.347656 133.671875 C 485.148438 134.125 484.625 136.578125 483.171875 139.152344 C 481.71875 141.726562 479.886719 143.449219 479.082031 143 C 478.28125 142.546875 478.804688 140.085938 480.261719 137.519531 Z M 480.261719 137.519531 " fill-opacity="1" fill-rule="nonzero"/></g></g></g></g><g clip-path="url(#a0cd664c91)"><g clip-path="url(#fd9a6911bc)"><g clip-path="url(#3cc8904b7c)"><g clip-path="url(#24ee627352)"><path fill="#f2c91d" d="M 472.28125 159.625 C 473.738281 157.050781 475.566406 155.328125 476.371094 155.78125 C 477.171875 156.234375 476.644531 158.6875 475.191406 161.261719 C 473.738281 163.835938 471.910156 165.558594 471.105469 165.105469 C 470.300781 164.652344 470.824219 162.199219 472.28125 159.625 Z M 472.28125 159.625 " fill-opacity="1" fill-rule="nonzero"/></g></g></g></g><g clip-path="url(#0a33e7fd6b)"><g clip-path="url(#3269e779cf)"><g clip-path="url(#29d4fe81fd)"><g clip-path="url(#36ee96c10c)"><path fill="#f2c91d" d="M 468.726562 152.441406 C 470.742188 149.234375 473.183594 147.144531 474.183594 147.773438 C 475.183594 148.398438 474.363281 151.507812 472.34375 154.714844 C 470.328125 157.921875 467.886719 160.011719 466.886719 159.386719 C 465.882812 158.757812 466.710938 155.648438 468.726562 152.441406 Z M 468.726562 152.441406 " fill-opacity="1" fill-rule="nonzero"/></g></g></g></g><g clip-path="url(#11ac10ce84)"><g clip-path="url(#585eb18702)"><g clip-path="url(#a8e5e78c6f)"><g clip-path="url(#d7a867c53b)"><path fill="#f2c91d" d="M 466.8125 145.511719 C 466.585938 145.90625 466.355469 146.285156 466.109375 146.652344 C 465.867188 147.023438 465.617188 147.375 465.367188 147.710938 C 465.113281 148.042969 464.859375 148.355469 464.605469 148.640625 C 464.351562 148.925781 464.101562 149.183594 463.859375 149.410156 C 463.613281 149.636719 463.378906 149.832031 463.152344 149.992188 C 462.925781 150.148438 462.714844 150.273438 462.515625 150.355469 C 462.320312 150.441406 462.136719 150.488281 461.976562 150.496094 C 461.8125 150.503906 461.667969 150.472656 461.546875 150.40625 C 461.425781 150.335938 461.328125 150.226562 461.25 150.082031 C 461.175781 149.9375 461.125 149.757812 461.097656 149.546875 C 461.070312 149.332031 461.066406 149.085938 461.089844 148.8125 C 461.113281 148.539062 461.160156 148.238281 461.234375 147.910156 C 461.304688 147.585938 461.398438 147.242188 461.519531 146.878906 C 461.636719 146.515625 461.777344 146.140625 461.9375 145.75 C 462.097656 145.363281 462.273438 144.972656 462.46875 144.574219 C 462.664062 144.175781 462.875 143.785156 463.097656 143.394531 C 463.324219 143.003906 463.554688 142.621094 463.800781 142.253906 C 464.042969 141.882812 464.292969 141.53125 464.542969 141.195312 C 464.796875 140.863281 465.050781 140.550781 465.304688 140.265625 C 465.558594 139.980469 465.808594 139.722656 466.050781 139.496094 C 466.296875 139.269531 466.53125 139.074219 466.757812 138.917969 C 466.984375 138.757812 467.195312 138.636719 467.394531 138.550781 C 467.589844 138.464844 467.773438 138.417969 467.933594 138.410156 C 468.097656 138.402344 468.242188 138.433594 468.363281 138.503906 C 468.484375 138.570312 468.582031 138.679688 468.660156 138.824219 C 468.734375 138.96875 468.785156 139.148438 468.8125 139.359375 C 468.839844 139.574219 468.84375 139.820312 468.820312 140.09375 C 468.796875 140.371094 468.75 140.667969 468.675781 140.996094 C 468.605469 141.320312 468.511719 141.664062 468.390625 142.027344 C 468.273438 142.390625 468.132812 142.769531 467.972656 143.15625 C 467.8125 143.542969 467.636719 143.933594 467.441406 144.332031 C 467.246094 144.730469 467.035156 145.121094 466.8125 145.511719 Z M 466.8125 145.511719 " fill-opacity="1" fill-rule="nonzero"/></g></g></g></g><g clip-path="url(#d833794acb)"><g clip-path="url(#5ffcd71054)"><g clip-path="url(#47209c16bd)"><g clip-path="url(#49709c3555)"><path fill="#f2c91d" d="M 463.101562 132.8125 C 466.15625 130.570312 469.195312 129.527344 469.894531 130.480469 C 470.589844 131.433594 468.6875 134.027344 465.625 136.269531 C 462.5625 138.511719 459.535156 139.546875 458.839844 138.59375 C 458.144531 137.640625 460.050781 135.054688 463.101562 132.8125 Z M 463.101562 132.8125 " fill-opacity="1" fill-rule="nonzero"/></g></g></g></g><g clip-path="url(#2d045b320d)"><g clip-path="url(#9f1e744956)"><g clip-path="url(#9b2dcac2ee)"><g clip-path="url(#ba99e092ec)"><path fill="#f2c91d" d="M 476.261719 126.804688 C 478.042969 124.445312 480.082031 122.976562 480.816406 123.53125 C 481.550781 124.085938 480.707031 126.449219 478.929688 128.8125 C 477.152344 131.175781 475.113281 132.644531 474.375 132.089844 C 473.636719 131.535156 474.480469 129.175781 476.261719 126.804688 Z M 476.261719 126.804688 " fill-opacity="1" fill-rule="nonzero"/></g></g></g></g><g clip-path="url(#696bd7e3fc)"><g clip-path="url(#203f87c323)"><g clip-path="url(#8d11003e07)"><g clip-path="url(#bb89fcd114)"><path fill="#f2c91d" d="M 454.199219 147.441406 C 455.980469 145.078125 458.015625 143.609375 458.753906 144.164062 C 459.492188 144.71875 458.648438 147.082031 456.867188 149.445312 C 455.089844 151.8125 453.050781 153.277344 452.3125 152.714844 C 451.574219 152.152344 452.425781 149.800781 454.199219 147.441406 Z M 454.199219 147.441406 " fill-opacity="1" fill-rule="nonzero"/></g></g></g></g><g clip-path="url(#d20ba13b2f)"><g clip-path="url(#797775e304)"><g clip-path="url(#77ca85fa2e)"><g clip-path="url(#1567cf9dd9)"><path fill="#f2c91d" d="M 468.542969 123.835938 C 471.242188 122.632812 473.742188 122.34375 474.109375 123.179688 C 474.476562 124.019531 472.597656 125.683594 469.898438 126.890625 C 467.199219 128.09375 464.699219 128.382812 464.332031 127.546875 C 463.964844 126.707031 465.84375 125.042969 468.542969 123.835938 Z M 468.542969 123.835938 " fill-opacity="1" fill-rule="nonzero"/></g></g></g></g><g clip-path="url(#21510b5347)"><g clip-path="url(#bb20416215)"><g clip-path="url(#91e6b36caf)"><g clip-path="url(#d30f64b82d)"><path fill="#f2c91d" d="M 448.730469 136.992188 C 451.429688 135.789062 453.929688 135.5 454.296875 136.335938 C 454.667969 137.175781 452.785156 138.839844 450.085938 140.046875 C 447.386719 141.25 444.890625 141.539062 444.519531 140.703125 C 444.152344 139.863281 446.03125 138.199219 448.730469 136.992188 Z M 448.730469 136.992188 " fill-opacity="1" fill-rule="nonzero"/></g></g></g></g><g clip-path="url(#dc37250818)"><g clip-path="url(#a92265307c)"><g clip-path="url(#15d3d79772)"><g clip-path="url(#73c187a9e0)"><path fill="#f2c91d" d="M 453.070312 128.832031 C 456.597656 127.453125 459.800781 127.226562 460.230469 128.328125 C 460.65625 129.429688 458.144531 131.4375 454.621094 132.8125 C 451.097656 134.1875 447.890625 134.417969 447.464844 133.316406 C 447.035156 132.214844 449.542969 130.214844 453.070312 128.832031 Z M 453.070312 128.832031 " fill-opacity="1" fill-rule="nonzero"/></g></g></g></g><g clip-path="url(#e553ed16aa)"><g clip-path="url(#1d846596fc)"><g clip-path="url(#a402576c49)"><g clip-path="url(#b107a9c483)"><path fill="#f2c91d" d="M 456.933594 115.648438 C 460.675781 115.117188 463.847656 115.636719 464.003906 116.808594 C 464.164062 117.984375 461.261719 119.359375 457.519531 119.890625 C 453.773438 120.421875 450.601562 119.90625 450.445312 118.730469 C 450.285156 117.554688 453.183594 116.179688 456.933594 115.648438 Z M 456.933594 115.648438 " fill-opacity="1" fill-rule="nonzero"/></g></g></g></g><g clip-path="url(#62f67777da)"><g clip-path="url(#7ab74e615a)"><g clip-path="url(#f30ecbfd7d)"><g clip-path="url(#e2d47a1f07)"><path fill="#f2c91d" d="M 468.746094 110.875 C 471.691406 111.089844 474.015625 112.007812 473.953125 112.933594 C 473.886719 113.859375 471.441406 114.425781 468.496094 114.210938 C 465.550781 113.996094 463.226562 113.078125 463.289062 112.152344 C 463.351562 111.226562 465.804688 110.660156 468.746094 110.875 Z M 468.746094 110.875 " fill-opacity="1" fill-rule="nonzero"/></g></g></g></g><g clip-path="url(#846c08ca9e)"><g clip-path="url(#975fb66b02)"><g clip-path="url(#5c42bedda5)"><g clip-path="url(#ad99bbb3f9)"><path fill="#f2c91d" d="M 444.316406 113.460938 C 447.265625 113.425781 449.671875 114.140625 449.679688 115.0625 C 449.691406 115.988281 447.304688 116.769531 444.347656 116.804688 C 441.390625 116.839844 438.996094 116.125 438.988281 115.199219 C 438.980469 114.277344 441.363281 113.5 444.316406 113.460938 Z M 444.316406 113.460938 " fill-opacity="1" fill-rule="nonzero"/></g></g></g></g><g clip-path="url(#6918c6b9b0)"><g clip-path="url(#a91ea36a97)"><g clip-path="url(#012241238f)"><g clip-path="url(#b5a4c0159b)"><path fill="#f2c91d" d="M 448.972656 106.675781 C 452.726562 107.128906 455.652344 108.449219 455.507812 109.625 C 455.363281 110.796875 452.203125 111.382812 448.449219 110.929688 C 444.695312 110.476562 441.769531 109.15625 441.925781 107.984375 C 442.082031 106.8125 445.21875 106.222656 448.972656 106.675781 Z M 448.972656 106.675781 " fill-opacity="1" fill-rule="nonzero"/></g></g></g></g><g clip-path="url(#f768bc2617)"><g clip-path="url(#2b86b38d13)"><g clip-path="url(#469a127015)"><g clip-path="url(#656339ffc6)"><path fill="#f2c91d" d="M 462.789062 92.773438 C 466.21875 94.363281 468.597656 96.523438 468.09375 97.59375 C 467.589844 98.660156 464.410156 98.246094 460.980469 96.660156 C 457.554688 95.074219 455.179688 92.917969 455.675781 91.84375 C 456.175781 90.769531 459.363281 91.183594 462.789062 92.773438 Z M 462.789062 92.773438 " fill-opacity="1" fill-rule="nonzero"/></g></g></g></g><g clip-path="url(#eda787efd3)"><g clip-path="url(#cb26ae076b)"><g clip-path="url(#b3c2224315)"><g clip-path="url(#be2f0312ae)"><path fill="#f2c91d" d="M 476.078125 99.796875 C 478.433594 101.570312 479.886719 103.617188 479.328125 104.355469 C 478.769531 105.09375 476.414062 104.25 474.058594 102.464844 C 471.699219 100.675781 470.253906 98.640625 470.808594 97.90625 C 471.367188 97.167969 473.734375 98.011719 476.078125 99.796875 Z M 476.078125 99.796875 " fill-opacity="1" fill-rule="nonzero"/></g></g></g></g><g clip-path="url(#83eae26067)"><g clip-path="url(#a42d17b4af)"><g clip-path="url(#f7a8a59919)"><g clip-path="url(#a82357e14e)"><path fill="#f2c91d" d="M 459.863281 83.703125 C 462.765625 86.121094 464.503906 88.824219 463.738281 89.726562 C 462.972656 90.625 460.015625 89.410156 457.113281 86.988281 C 454.210938 84.570312 452.472656 81.863281 453.242188 80.964844 C 454.007812 80.0625 456.964844 81.28125 459.863281 83.703125 Z M 459.863281 83.703125 " fill-opacity="1" fill-rule="nonzero"/></g></g></g></g><g clip-path="url(#f087400fd0)"><g clip-path="url(#5fafb3eba1)"><g clip-path="url(#825edac96e)"><g clip-path="url(#96adb45b7a)"><path fill="#f2c91d" d="M 452.015625 95.171875 C 455.542969 96.53125 458.050781 98.527344 457.625 99.632812 C 457.199219 100.738281 453.992188 100.527344 450.46875 99.167969 C 446.941406 97.808594 444.433594 95.8125 444.859375 94.710938 C 445.285156 93.605469 448.492188 93.8125 452.015625 95.171875 Z M 452.015625 95.171875 " fill-opacity="1" fill-rule="nonzero"/></g></g></g></g></svg>