<svg xmlns="http://www.w3.org/2000/svg" xmlns:xlink="http://www.w3.org/1999/xlink" width="1920" zoomAndPan="magnify" viewBox="0 0 638.25 187.500001" height="260" preserveAspectRatio="xMidYMid meet" version="1.0"><defs><clipPath id="84ee1f9075"><path d="M 0.476562 0 L 637.027344 0 L 637.027344 187 L 0.476562 187 Z M 0.476562 0 " clip-rule="nonzero"/></clipPath><clipPath id="0f630e30ad"><path d="M 563 26 L 637.027344 26 L 637.027344 156 L 563 156 Z M 563 26 " clip-rule="nonzero"/></clipPath><clipPath id="0093cd1562"><path d="M 617.019531 0.00390625 L 718.386719 86.328125 L 633.515625 185.988281 L 532.148438 99.664062 Z M 617.019531 0.00390625 " clip-rule="nonzero"/></clipPath><clipPath id="f776fa3b82"><path d="M 617.019531 0.00390625 L 718.386719 86.328125 L 633.515625 185.988281 L 532.148438 99.664062 Z M 617.019531 0.00390625 " clip-rule="nonzero"/></clipPath><clipPath id="3dc172ecbf"><path d="M 617.019531 0.00390625 L 718.386719 86.328125 L 633.515625 185.988281 L 532.148438 99.664062 Z M 617.019531 0.00390625 " clip-rule="nonzero"/></clipPath><clipPath id="e3ca756a35"><path d="M 569 32 L 637.027344 32 L 637.027344 150 L 569 150 Z M 569 32 " clip-rule="nonzero"/></clipPath><clipPath id="9ceb8b982e"><path d="M 617.019531 0.00390625 L 718.386719 86.328125 L 633.515625 185.988281 L 532.148438 99.664062 Z M 617.019531 0.00390625 " clip-rule="nonzero"/></clipPath><clipPath id="2130aa44cd"><path d="M 617.019531 0.00390625 L 718.386719 86.328125 L 633.515625 185.988281 L 532.148438 99.664062 Z M 617.019531 0.00390625 " clip-rule="nonzero"/></clipPath><clipPath id="e56f568600"><path d="M 617.019531 0.00390625 L 718.386719 86.328125 L 633.515625 185.988281 L 532.148438 99.664062 Z M 617.019531 0.00390625 " clip-rule="nonzero"/></clipPath><clipPath id="f7e495df9a"><path d="M 594 36 L 628 36 L 628 83 L 594 83 Z M 594 36 " clip-rule="nonzero"/></clipPath><clipPath id="3f6647d67f"><path d="M 617.019531 0.00390625 L 718.386719 86.328125 L 633.515625 185.988281 L 532.148438 99.664062 Z M 617.019531 0.00390625 " clip-rule="nonzero"/></clipPath><clipPath id="dae7fe5cee"><path d="M 617.019531 0.00390625 L 718.386719 86.328125 L 633.515625 185.988281 L 532.148438 99.664062 Z M 617.019531 0.00390625 " clip-rule="nonzero"/></clipPath><clipPath id="c81a344c73"><path d="M 617.019531 0.00390625 L 718.386719 86.328125 L 633.515625 185.988281 L 532.148438 99.664062 Z M 617.019531 0.00390625 " clip-rule="nonzero"/></clipPath><clipPath id="76cd093f65"><path d="M 576 91 L 624 91 L 624 129 L 576 129 Z M 576 91 " clip-rule="nonzero"/></clipPath><clipPath id="71cf5ae595"><path d="M 617.019531 0.00390625 L 718.386719 86.328125 L 633.515625 185.988281 L 532.148438 99.664062 Z M 617.019531 0.00390625 " clip-rule="nonzero"/></clipPath><clipPath id="54c6c11e97"><path d="M 617.019531 0.00390625 L 718.386719 86.328125 L 633.515625 185.988281 L 532.148438 99.664062 Z M 617.019531 0.00390625 " clip-rule="nonzero"/></clipPath><clipPath id="72818b1b6a"><path d="M 617.019531 0.00390625 L 718.386719 86.328125 L 633.515625 185.988281 L 532.148438 99.664062 Z M 617.019531 0.00390625 " clip-rule="nonzero"/></clipPath><clipPath id="efd818b679"><path d="M 573 78 L 623 78 L 623 101 L 573 101 Z M 573 78 " clip-rule="nonzero"/></clipPath><clipPath id="50640dfed8"><path d="M 617.019531 0.00390625 L 718.386719 86.328125 L 633.515625 185.988281 L 532.148438 99.664062 Z M 617.019531 0.00390625 " clip-rule="nonzero"/></clipPath><clipPath id="f98f19c1d3"><path d="M 617.019531 0.00390625 L 718.386719 86.328125 L 633.515625 185.988281 L 532.148438 99.664062 Z M 617.019531 0.00390625 " clip-rule="nonzero"/></clipPath><clipPath id="a57291f0d7"><path d="M 617.019531 0.00390625 L 718.386719 86.328125 L 633.515625 185.988281 L 532.148438 99.664062 Z M 617.019531 0.00390625 " clip-rule="nonzero"/></clipPath><clipPath id="6bc33ced40"><path d="M 629 38 L 637.027344 38 L 637.027344 83 L 629 83 Z M 629 38 " clip-rule="nonzero"/></clipPath><clipPath id="e54c06b3dd"><path d="M 617.019531 0.00390625 L 718.386719 86.328125 L 633.515625 185.988281 L 532.148438 99.664062 Z M 617.019531 0.00390625 " clip-rule="nonzero"/></clipPath><clipPath id="7aeb4b8534"><path d="M 617.019531 0.00390625 L 718.386719 86.328125 L 633.515625 185.988281 L 532.148438 99.664062 Z M 617.019531 0.00390625 " clip-rule="nonzero"/></clipPath><clipPath id="5451f258a7"><path d="M 617.019531 0.00390625 L 718.386719 86.328125 L 633.515625 185.988281 L 532.148438 99.664062 Z M 617.019531 0.00390625 " clip-rule="nonzero"/></clipPath><clipPath id="7711172d28"><path d="M 576 51 L 624 51 L 624 85 L 576 85 Z M 576 51 " clip-rule="nonzero"/></clipPath><clipPath id="7ceb04879c"><path d="M 617.019531 0.00390625 L 718.386719 86.328125 L 633.515625 185.988281 L 532.148438 99.664062 Z M 617.019531 0.00390625 " clip-rule="nonzero"/></clipPath><clipPath id="27ec2a50f6"><path d="M 617.019531 0.00390625 L 718.386719 86.328125 L 633.515625 185.988281 L 532.148438 99.664062 Z M 617.019531 0.00390625 " clip-rule="nonzero"/></clipPath><clipPath id="b17874728f"><path d="M 617.019531 0.00390625 L 718.386719 86.328125 L 633.515625 185.988281 L 532.148438 99.664062 Z M 617.019531 0.00390625 " clip-rule="nonzero"/></clipPath><clipPath id="4fffeb8236"><path d="M 630 93 L 637.027344 93 L 637.027344 144 L 630 144 Z M 630 93 " clip-rule="nonzero"/></clipPath><clipPath id="9e3b0b6a57"><path d="M 617.019531 0.00390625 L 718.386719 86.328125 L 633.515625 185.988281 L 532.148438 99.664062 Z M 617.019531 0.00390625 " clip-rule="nonzero"/></clipPath><clipPath id="703bccf2bd"><path d="M 617.019531 0.00390625 L 718.386719 86.328125 L 633.515625 185.988281 L 532.148438 99.664062 Z M 617.019531 0.00390625 " clip-rule="nonzero"/></clipPath><clipPath id="3f041ba052"><path d="M 617.019531 0.00390625 L 718.386719 86.328125 L 633.515625 185.988281 L 532.148438 99.664062 Z M 617.019531 0.00390625 " clip-rule="nonzero"/></clipPath><clipPath id="1cd04b7cf1"><path d="M 599 93 L 628 93 L 628 144 L 599 144 Z M 599 93 " clip-rule="nonzero"/></clipPath><clipPath id="71398654fc"><path d="M 617.019531 0.00390625 L 718.386719 86.328125 L 633.515625 185.988281 L 532.148438 99.664062 Z M 617.019531 0.00390625 " clip-rule="nonzero"/></clipPath><clipPath id="db07e07266"><path d="M 617.019531 0.00390625 L 718.386719 86.328125 L 633.515625 185.988281 L 532.148438 99.664062 Z M 617.019531 0.00390625 " clip-rule="nonzero"/></clipPath><clipPath id="e3f7c1fa00"><path d="M 617.019531 0.00390625 L 718.386719 86.328125 L 633.515625 185.988281 L 532.148438 99.664062 Z M 617.019531 0.00390625 " clip-rule="nonzero"/></clipPath><clipPath id="ce37e678dd"><path d="M 634 89 L 637.027344 89 L 637.027344 125 L 634 125 Z M 634 89 " clip-rule="nonzero"/></clipPath><clipPath id="de5cb13091"><path d="M 617.019531 0.00390625 L 718.386719 86.328125 L 633.515625 185.988281 L 532.148438 99.664062 Z M 617.019531 0.00390625 " clip-rule="nonzero"/></clipPath><clipPath id="f5b1e0cda9"><path d="M 617.019531 0.00390625 L 718.386719 86.328125 L 633.515625 185.988281 L 532.148438 99.664062 Z M 617.019531 0.00390625 " clip-rule="nonzero"/></clipPath><clipPath id="dcccee58e0"><path d="M 617.019531 0.00390625 L 718.386719 86.328125 L 633.515625 185.988281 L 532.148438 99.664062 Z M 617.019531 0.00390625 " clip-rule="nonzero"/></clipPath><clipPath id="14ecc3d043"><path d="M 634 60 L 637.027344 60 L 637.027344 96 L 634 96 Z M 634 60 " clip-rule="nonzero"/></clipPath><clipPath id="4c25b7630f"><path d="M 617.019531 0.00390625 L 718.386719 86.328125 L 633.515625 185.988281 L 532.148438 99.664062 Z M 617.019531 0.00390625 " clip-rule="nonzero"/></clipPath><clipPath id="a74ae3ddd6"><path d="M 617.019531 0.00390625 L 718.386719 86.328125 L 633.515625 185.988281 L 532.148438 99.664062 Z M 617.019531 0.00390625 " clip-rule="nonzero"/></clipPath><clipPath id="b575c93a93"><path d="M 617.019531 0.00390625 L 718.386719 86.328125 L 633.515625 185.988281 L 532.148438 99.664062 Z M 617.019531 0.00390625 " clip-rule="nonzero"/></clipPath><clipPath id="fc0aea932f"><path d="M 599 48 L 610 48 L 610 58 L 599 58 Z M 599 48 " clip-rule="nonzero"/></clipPath><clipPath id="f7c7d7ca46"><path d="M 617.019531 0.00390625 L 718.386719 86.328125 L 633.515625 185.988281 L 532.148438 99.664062 Z M 617.019531 0.00390625 " clip-rule="nonzero"/></clipPath><clipPath id="ae700b939c"><path d="M 617.019531 0.00390625 L 718.386719 86.328125 L 633.515625 185.988281 L 532.148438 99.664062 Z M 617.019531 0.00390625 " clip-rule="nonzero"/></clipPath><clipPath id="071588e315"><path d="M 617.019531 0.00390625 L 718.386719 86.328125 L 633.515625 185.988281 L 532.148438 99.664062 Z M 617.019531 0.00390625 " clip-rule="nonzero"/></clipPath><clipPath id="914fa1f0b4"><path d="M 610 46 L 618 46 L 618 59 L 610 59 Z M 610 46 " clip-rule="nonzero"/></clipPath><clipPath id="7fd5b857aa"><path d="M 617.019531 0.00390625 L 718.386719 86.328125 L 633.515625 185.988281 L 532.148438 99.664062 Z M 617.019531 0.00390625 " clip-rule="nonzero"/></clipPath><clipPath id="be528139ab"><path d="M 617.019531 0.00390625 L 718.386719 86.328125 L 633.515625 185.988281 L 532.148438 99.664062 Z M 617.019531 0.00390625 " clip-rule="nonzero"/></clipPath><clipPath id="cc686f5096"><path d="M 617.019531 0.00390625 L 718.386719 86.328125 L 633.515625 185.988281 L 532.148438 99.664062 Z M 617.019531 0.00390625 " clip-rule="nonzero"/></clipPath><clipPath id="cc50084f5d"><path d="M 615 65 L 622 65 L 622 74 L 615 74 Z M 615 65 " clip-rule="nonzero"/></clipPath><clipPath id="36426ce65f"><path d="M 617.019531 0.00390625 L 718.386719 86.328125 L 633.515625 185.988281 L 532.148438 99.664062 Z M 617.019531 0.00390625 " clip-rule="nonzero"/></clipPath><clipPath id="c0db41a463"><path d="M 617.019531 0.00390625 L 718.386719 86.328125 L 633.515625 185.988281 L 532.148438 99.664062 Z M 617.019531 0.00390625 " clip-rule="nonzero"/></clipPath><clipPath id="57ff74fd9c"><path d="M 617.019531 0.00390625 L 718.386719 86.328125 L 633.515625 185.988281 L 532.148438 99.664062 Z M 617.019531 0.00390625 " clip-rule="nonzero"/></clipPath><clipPath id="b02e890213"><path d="M 620 57 L 625 57 L 625 68 L 620 68 Z M 620 57 " clip-rule="nonzero"/></clipPath><clipPath id="e16789cb3c"><path d="M 617.019531 0.00390625 L 718.386719 86.328125 L 633.515625 185.988281 L 532.148438 99.664062 Z M 617.019531 0.00390625 " clip-rule="nonzero"/></clipPath><clipPath id="c3dbaef0a1"><path d="M 617.019531 0.00390625 L 718.386719 86.328125 L 633.515625 185.988281 L 532.148438 99.664062 Z M 617.019531 0.00390625 " clip-rule="nonzero"/></clipPath><clipPath id="e9a8e39150"><path d="M 617.019531 0.00390625 L 718.386719 86.328125 L 633.515625 185.988281 L 532.148438 99.664062 Z M 617.019531 0.00390625 " clip-rule="nonzero"/></clipPath><clipPath id="c3890bd12e"><path d="M 618 39 L 624 39 L 624 53 L 618 53 Z M 618 39 " clip-rule="nonzero"/></clipPath><clipPath id="70022fec21"><path d="M 617.019531 0.00390625 L 718.386719 86.328125 L 633.515625 185.988281 L 532.148438 99.664062 Z M 617.019531 0.00390625 " clip-rule="nonzero"/></clipPath><clipPath id="db2c1469b9"><path d="M 617.019531 0.00390625 L 718.386719 86.328125 L 633.515625 185.988281 L 532.148438 99.664062 Z M 617.019531 0.00390625 " clip-rule="nonzero"/></clipPath><clipPath id="15d3681735"><path d="M 617.019531 0.00390625 L 718.386719 86.328125 L 633.515625 185.988281 L 532.148438 99.664062 Z M 617.019531 0.00390625 " clip-rule="nonzero"/></clipPath><clipPath id="13224e5eeb"><path d="M 632 45 L 637.027344 45 L 637.027344 59 L 632 59 Z M 632 45 " clip-rule="nonzero"/></clipPath><clipPath id="e4d592777a"><path d="M 617.019531 0.00390625 L 718.386719 86.328125 L 633.515625 185.988281 L 532.148438 99.664062 Z M 617.019531 0.00390625 " clip-rule="nonzero"/></clipPath><clipPath id="2558e6ad59"><path d="M 617.019531 0.00390625 L 718.386719 86.328125 L 633.515625 185.988281 L 532.148438 99.664062 Z M 617.019531 0.00390625 " clip-rule="nonzero"/></clipPath><clipPath id="f09f750b41"><path d="M 617.019531 0.00390625 L 718.386719 86.328125 L 633.515625 185.988281 L 532.148438 99.664062 Z M 617.019531 0.00390625 " clip-rule="nonzero"/></clipPath><clipPath id="68ca8a7a83"><path d="M 632 64 L 636 64 L 636 75 L 632 75 Z M 632 64 " clip-rule="nonzero"/></clipPath><clipPath id="3c3e78f70f"><path d="M 617.019531 0.00390625 L 718.386719 86.328125 L 633.515625 185.988281 L 532.148438 99.664062 Z M 617.019531 0.00390625 " clip-rule="nonzero"/></clipPath><clipPath id="8fae3afc5a"><path d="M 617.019531 0.00390625 L 718.386719 86.328125 L 633.515625 185.988281 L 532.148438 99.664062 Z M 617.019531 0.00390625 " clip-rule="nonzero"/></clipPath><clipPath id="a7902c1ef9"><path d="M 617.019531 0.00390625 L 718.386719 86.328125 L 633.515625 185.988281 L 532.148438 99.664062 Z M 617.019531 0.00390625 " clip-rule="nonzero"/></clipPath><clipPath id="81affd5f05"><path d="M 637 62 L 637.027344 62 L 637.027344 72 L 637 72 Z M 637 62 " clip-rule="nonzero"/></clipPath><clipPath id="e72fef6ac6"><path d="M 617.019531 0.00390625 L 718.386719 86.328125 L 633.515625 185.988281 L 532.148438 99.664062 Z M 617.019531 0.00390625 " clip-rule="nonzero"/></clipPath><clipPath id="1f7c76f30a"><path d="M 617.019531 0.00390625 L 718.386719 86.328125 L 633.515625 185.988281 L 532.148438 99.664062 Z M 617.019531 0.00390625 " clip-rule="nonzero"/></clipPath><clipPath id="2d8bfbf5a0"><path d="M 617.019531 0.00390625 L 718.386719 86.328125 L 633.515625 185.988281 L 532.148438 99.664062 Z M 617.019531 0.00390625 " clip-rule="nonzero"/></clipPath><clipPath id="6722825514"><path d="M 633 101 L 637.027344 101 L 637.027344 110 L 633 110 Z M 633 101 " clip-rule="nonzero"/></clipPath><clipPath id="e472ec639d"><path d="M 617.019531 0.00390625 L 718.386719 86.328125 L 633.515625 185.988281 L 532.148438 99.664062 Z M 617.019531 0.00390625 " clip-rule="nonzero"/></clipPath><clipPath id="288cd28802"><path d="M 617.019531 0.00390625 L 718.386719 86.328125 L 633.515625 185.988281 L 532.148438 99.664062 Z M 617.019531 0.00390625 " clip-rule="nonzero"/></clipPath><clipPath id="2cb149d7b0"><path d="M 617.019531 0.00390625 L 718.386719 86.328125 L 633.515625 185.988281 L 532.148438 99.664062 Z M 617.019531 0.00390625 " clip-rule="nonzero"/></clipPath><clipPath id="41d8a3b809"><path d="M 632 107 L 636 107 L 636 118 L 632 118 Z M 632 107 " clip-rule="nonzero"/></clipPath><clipPath id="aa3f4322f3"><path d="M 617.019531 0.00390625 L 718.386719 86.328125 L 633.515625 185.988281 L 532.148438 99.664062 Z M 617.019531 0.00390625 " clip-rule="nonzero"/></clipPath><clipPath id="213970203a"><path d="M 617.019531 0.00390625 L 718.386719 86.328125 L 633.515625 185.988281 L 532.148438 99.664062 Z M 617.019531 0.00390625 " clip-rule="nonzero"/></clipPath><clipPath id="94c8d329ca"><path d="M 617.019531 0.00390625 L 718.386719 86.328125 L 633.515625 185.988281 L 532.148438 99.664062 Z M 617.019531 0.00390625 " clip-rule="nonzero"/></clipPath><clipPath id="c38335cc15"><path d="M 632 120 L 637.027344 120 L 637.027344 134 L 632 134 Z M 632 120 " clip-rule="nonzero"/></clipPath><clipPath id="1c9a533cc9"><path d="M 617.019531 0.00390625 L 718.386719 86.328125 L 633.515625 185.988281 L 532.148438 99.664062 Z M 617.019531 0.00390625 " clip-rule="nonzero"/></clipPath><clipPath id="c4d4ffdd54"><path d="M 617.019531 0.00390625 L 718.386719 86.328125 L 633.515625 185.988281 L 532.148438 99.664062 Z M 617.019531 0.00390625 " clip-rule="nonzero"/></clipPath><clipPath id="cc8e80c6a1"><path d="M 617.019531 0.00390625 L 718.386719 86.328125 L 633.515625 185.988281 L 532.148438 99.664062 Z M 617.019531 0.00390625 " clip-rule="nonzero"/></clipPath><clipPath id="7b6d90684f"><path d="M 620 125 L 625 125 L 625 139 L 620 139 Z M 620 125 " clip-rule="nonzero"/></clipPath><clipPath id="f9dc8d1ec3"><path d="M 617.019531 0.00390625 L 718.386719 86.328125 L 633.515625 185.988281 L 532.148438 99.664062 Z M 617.019531 0.00390625 " clip-rule="nonzero"/></clipPath><clipPath id="754af3a895"><path d="M 617.019531 0.00390625 L 718.386719 86.328125 L 633.515625 185.988281 L 532.148438 99.664062 Z M 617.019531 0.00390625 " clip-rule="nonzero"/></clipPath><clipPath id="0a375a473b"><path d="M 617.019531 0.00390625 L 718.386719 86.328125 L 633.515625 185.988281 L 532.148438 99.664062 Z M 617.019531 0.00390625 " clip-rule="nonzero"/></clipPath><clipPath id="fdc2d72dae"><path d="M 614 116 L 621 116 L 621 129 L 614 129 Z M 614 116 " clip-rule="nonzero"/></clipPath><clipPath id="4f4fb4946c"><path d="M 617.019531 0.00390625 L 718.386719 86.328125 L 633.515625 185.988281 L 532.148438 99.664062 Z M 617.019531 0.00390625 " clip-rule="nonzero"/></clipPath><clipPath id="300e79a503"><path d="M 617.019531 0.00390625 L 718.386719 86.328125 L 633.515625 185.988281 L 532.148438 99.664062 Z M 617.019531 0.00390625 " clip-rule="nonzero"/></clipPath><clipPath id="bf77866405"><path d="M 617.019531 0.00390625 L 718.386719 86.328125 L 633.515625 185.988281 L 532.148438 99.664062 Z M 617.019531 0.00390625 " clip-rule="nonzero"/></clipPath><clipPath id="8e7635aa71"><path d="M 621 104 L 626 104 L 626 115 L 621 115 Z M 621 104 " clip-rule="nonzero"/></clipPath><clipPath id="e9f6de1bf0"><path d="M 617.019531 0.00390625 L 718.386719 86.328125 L 633.515625 185.988281 L 532.148438 99.664062 Z M 617.019531 0.00390625 " clip-rule="nonzero"/></clipPath><clipPath id="1f171d17d9"><path d="M 617.019531 0.00390625 L 718.386719 86.328125 L 633.515625 185.988281 L 532.148438 99.664062 Z M 617.019531 0.00390625 " clip-rule="nonzero"/></clipPath><clipPath id="d13155d815"><path d="M 617.019531 0.00390625 L 718.386719 86.328125 L 633.515625 185.988281 L 532.148438 99.664062 Z M 617.019531 0.00390625 " clip-rule="nonzero"/></clipPath><clipPath id="c0094bc3f2"><path d="M 614 107 L 620 107 L 620 117 L 614 117 Z M 614 107 " clip-rule="nonzero"/></clipPath><clipPath id="d2d26d9583"><path d="M 617.019531 0.00390625 L 718.386719 86.328125 L 633.515625 185.988281 L 532.148438 99.664062 Z M 617.019531 0.00390625 " clip-rule="nonzero"/></clipPath><clipPath id="1cf2a2ece3"><path d="M 617.019531 0.00390625 L 718.386719 86.328125 L 633.515625 185.988281 L 532.148438 99.664062 Z M 617.019531 0.00390625 " clip-rule="nonzero"/></clipPath><clipPath id="a32f55621a"><path d="M 617.019531 0.00390625 L 718.386719 86.328125 L 633.515625 185.988281 L 532.148438 99.664062 Z M 617.019531 0.00390625 " clip-rule="nonzero"/></clipPath><clipPath id="f9bd451db2"><path d="M 606 128 L 613 128 L 613 138 L 606 138 Z M 606 128 " clip-rule="nonzero"/></clipPath><clipPath id="9df8b616e7"><path d="M 617.019531 0.00390625 L 718.386719 86.328125 L 633.515625 185.988281 L 532.148438 99.664062 Z M 617.019531 0.00390625 " clip-rule="nonzero"/></clipPath><clipPath id="138e376cc0"><path d="M 617.019531 0.00390625 L 718.386719 86.328125 L 633.515625 185.988281 L 532.148438 99.664062 Z M 617.019531 0.00390625 " clip-rule="nonzero"/></clipPath><clipPath id="372751579e"><path d="M 617.019531 0.00390625 L 718.386719 86.328125 L 633.515625 185.988281 L 532.148438 99.664062 Z M 617.019531 0.00390625 " clip-rule="nonzero"/></clipPath><clipPath id="898b44b14d"><path d="M 602 120 L 611 120 L 611 132 L 602 132 Z M 602 120 " clip-rule="nonzero"/></clipPath><clipPath id="22511b4009"><path d="M 617.019531 0.00390625 L 718.386719 86.328125 L 633.515625 185.988281 L 532.148438 99.664062 Z M 617.019531 0.00390625 " clip-rule="nonzero"/></clipPath><clipPath id="5b9777d068"><path d="M 617.019531 0.00390625 L 718.386719 86.328125 L 633.515625 185.988281 L 532.148438 99.664062 Z M 617.019531 0.00390625 " clip-rule="nonzero"/></clipPath><clipPath id="cf81f5c56b"><path d="M 617.019531 0.00390625 L 718.386719 86.328125 L 633.515625 185.988281 L 532.148438 99.664062 Z M 617.019531 0.00390625 " clip-rule="nonzero"/></clipPath><clipPath id="1d121daf55"><path d="M 597 111 L 605 111 L 605 124 L 597 124 Z M 597 111 " clip-rule="nonzero"/></clipPath><clipPath id="540cb2b16c"><path d="M 617.019531 0.00390625 L 718.386719 86.328125 L 633.515625 185.988281 L 532.148438 99.664062 Z M 617.019531 0.00390625 " clip-rule="nonzero"/></clipPath><clipPath id="7cf1b18a22"><path d="M 617.019531 0.00390625 L 718.386719 86.328125 L 633.515625 185.988281 L 532.148438 99.664062 Z M 617.019531 0.00390625 " clip-rule="nonzero"/></clipPath><clipPath id="2fe8f7f8ac"><path d="M 617.019531 0.00390625 L 718.386719 86.328125 L 633.515625 185.988281 L 532.148438 99.664062 Z M 617.019531 0.00390625 " clip-rule="nonzero"/></clipPath><clipPath id="7535ce1ec9"><path d="M 595 104 L 606 104 L 606 113 L 595 113 Z M 595 104 " clip-rule="nonzero"/></clipPath><clipPath id="8cdfaa0aa9"><path d="M 617.019531 0.00390625 L 718.386719 86.328125 L 633.515625 185.988281 L 532.148438 99.664062 Z M 617.019531 0.00390625 " clip-rule="nonzero"/></clipPath><clipPath id="64020feb1f"><path d="M 617.019531 0.00390625 L 718.386719 86.328125 L 633.515625 185.988281 L 532.148438 99.664062 Z M 617.019531 0.00390625 " clip-rule="nonzero"/></clipPath><clipPath id="3861b14dfd"><path d="M 617.019531 0.00390625 L 718.386719 86.328125 L 633.515625 185.988281 L 532.148438 99.664062 Z M 617.019531 0.00390625 " clip-rule="nonzero"/></clipPath><clipPath id="0e179f0970"><path d="M 609 97 L 617 97 L 617 107 L 609 107 Z M 609 97 " clip-rule="nonzero"/></clipPath><clipPath id="082637378b"><path d="M 617.019531 0.00390625 L 718.386719 86.328125 L 633.515625 185.988281 L 532.148438 99.664062 Z M 617.019531 0.00390625 " clip-rule="nonzero"/></clipPath><clipPath id="d551ae754e"><path d="M 617.019531 0.00390625 L 718.386719 86.328125 L 633.515625 185.988281 L 532.148438 99.664062 Z M 617.019531 0.00390625 " clip-rule="nonzero"/></clipPath><clipPath id="7b22551295"><path d="M 617.019531 0.00390625 L 718.386719 86.328125 L 633.515625 185.988281 L 532.148438 99.664062 Z M 617.019531 0.00390625 " clip-rule="nonzero"/></clipPath><clipPath id="174af7dc5b"><path d="M 588 117 L 596 117 L 596 126 L 588 126 Z M 588 117 " clip-rule="nonzero"/></clipPath><clipPath id="a2d7b025c2"><path d="M 617.019531 0.00390625 L 718.386719 86.328125 L 633.515625 185.988281 L 532.148438 99.664062 Z M 617.019531 0.00390625 " clip-rule="nonzero"/></clipPath><clipPath id="00a53458cd"><path d="M 617.019531 0.00390625 L 718.386719 86.328125 L 633.515625 185.988281 L 532.148438 99.664062 Z M 617.019531 0.00390625 " clip-rule="nonzero"/></clipPath><clipPath id="4f1f0492c6"><path d="M 617.019531 0.00390625 L 718.386719 86.328125 L 633.515625 185.988281 L 532.148438 99.664062 Z M 617.019531 0.00390625 " clip-rule="nonzero"/></clipPath><clipPath id="5b0fcb3a5e"><path d="M 600 97 L 610 97 L 610 103 L 600 103 Z M 600 97 " clip-rule="nonzero"/></clipPath><clipPath id="0a57c3a348"><path d="M 617.019531 0.00390625 L 718.386719 86.328125 L 633.515625 185.988281 L 532.148438 99.664062 Z M 617.019531 0.00390625 " clip-rule="nonzero"/></clipPath><clipPath id="fe00b4760e"><path d="M 617.019531 0.00390625 L 718.386719 86.328125 L 633.515625 185.988281 L 532.148438 99.664062 Z M 617.019531 0.00390625 " clip-rule="nonzero"/></clipPath><clipPath id="80c8bcfe24"><path d="M 617.019531 0.00390625 L 718.386719 86.328125 L 633.515625 185.988281 L 532.148438 99.664062 Z M 617.019531 0.00390625 " clip-rule="nonzero"/></clipPath><clipPath id="d28b5fc7b0"><path d="M 581 109 L 592 109 L 592 115 L 581 115 Z M 581 109 " clip-rule="nonzero"/></clipPath><clipPath id="d288fa3ffc"><path d="M 617.019531 0.00390625 L 718.386719 86.328125 L 633.515625 185.988281 L 532.148438 99.664062 Z M 617.019531 0.00390625 " clip-rule="nonzero"/></clipPath><clipPath id="a2df9ffbd3"><path d="M 617.019531 0.00390625 L 718.386719 86.328125 L 633.515625 185.988281 L 532.148438 99.664062 Z M 617.019531 0.00390625 " clip-rule="nonzero"/></clipPath><clipPath id="804b45e823"><path d="M 617.019531 0.00390625 L 718.386719 86.328125 L 633.515625 185.988281 L 532.148438 99.664062 Z M 617.019531 0.00390625 " clip-rule="nonzero"/></clipPath><clipPath id="2d0fb7052b"><path d="M 584 101 L 597 101 L 597 108 L 584 108 Z M 584 101 " clip-rule="nonzero"/></clipPath><clipPath id="5f4bea1958"><path d="M 617.019531 0.00390625 L 718.386719 86.328125 L 633.515625 185.988281 L 532.148438 99.664062 Z M 617.019531 0.00390625 " clip-rule="nonzero"/></clipPath><clipPath id="708dd3abd9"><path d="M 617.019531 0.00390625 L 718.386719 86.328125 L 633.515625 185.988281 L 532.148438 99.664062 Z M 617.019531 0.00390625 " clip-rule="nonzero"/></clipPath><clipPath id="3350c8f183"><path d="M 617.019531 0.00390625 L 718.386719 86.328125 L 633.515625 185.988281 L 532.148438 99.664062 Z M 617.019531 0.00390625 " clip-rule="nonzero"/></clipPath><clipPath id="739527a9ec"><path d="M 587 90 L 601 90 L 601 95 L 587 95 Z M 587 90 " clip-rule="nonzero"/></clipPath><clipPath id="c76116c524"><path d="M 617.019531 0.00390625 L 718.386719 86.328125 L 633.515625 185.988281 L 532.148438 99.664062 Z M 617.019531 0.00390625 " clip-rule="nonzero"/></clipPath><clipPath id="ab5031438c"><path d="M 617.019531 0.00390625 L 718.386719 86.328125 L 633.515625 185.988281 L 532.148438 99.664062 Z M 617.019531 0.00390625 " clip-rule="nonzero"/></clipPath><clipPath id="b888cf81f4"><path d="M 617.019531 0.00390625 L 718.386719 86.328125 L 633.515625 185.988281 L 532.148438 99.664062 Z M 617.019531 0.00390625 " clip-rule="nonzero"/></clipPath><clipPath id="5fe6508ce6"><path d="M 599 85 L 610 85 L 610 90 L 599 90 Z M 599 85 " clip-rule="nonzero"/></clipPath><clipPath id="6e3bc9a02b"><path d="M 617.019531 0.00390625 L 718.386719 86.328125 L 633.515625 185.988281 L 532.148438 99.664062 Z M 617.019531 0.00390625 " clip-rule="nonzero"/></clipPath><clipPath id="d11a4c4c0a"><path d="M 617.019531 0.00390625 L 718.386719 86.328125 L 633.515625 185.988281 L 532.148438 99.664062 Z M 617.019531 0.00390625 " clip-rule="nonzero"/></clipPath><clipPath id="d7e7fefcfb"><path d="M 617.019531 0.00390625 L 718.386719 86.328125 L 633.515625 185.988281 L 532.148438 99.664062 Z M 617.019531 0.00390625 " clip-rule="nonzero"/></clipPath><clipPath id="d5b16edbcf"><path d="M 576 88 L 587 88 L 587 92 L 576 92 Z M 576 88 " clip-rule="nonzero"/></clipPath><clipPath id="68a124832c"><path d="M 617.019531 0.00390625 L 718.386719 86.328125 L 633.515625 185.988281 L 532.148438 99.664062 Z M 617.019531 0.00390625 " clip-rule="nonzero"/></clipPath><clipPath id="2384f159ad"><path d="M 617.019531 0.00390625 L 718.386719 86.328125 L 633.515625 185.988281 L 532.148438 99.664062 Z M 617.019531 0.00390625 " clip-rule="nonzero"/></clipPath><clipPath id="4e3f9ea9ba"><path d="M 617.019531 0.00390625 L 718.386719 86.328125 L 633.515625 185.988281 L 532.148438 99.664062 Z M 617.019531 0.00390625 " clip-rule="nonzero"/></clipPath><clipPath id="e2220ac787"><path d="M 579 81 L 593 81 L 593 87 L 579 87 Z M 579 81 " clip-rule="nonzero"/></clipPath><clipPath id="83e42ac2f7"><path d="M 617.019531 0.00390625 L 718.386719 86.328125 L 633.515625 185.988281 L 532.148438 99.664062 Z M 617.019531 0.00390625 " clip-rule="nonzero"/></clipPath><clipPath id="41806fe2d0"><path d="M 617.019531 0.00390625 L 718.386719 86.328125 L 633.515625 185.988281 L 532.148438 99.664062 Z M 617.019531 0.00390625 " clip-rule="nonzero"/></clipPath><clipPath id="7b683b7bc2"><path d="M 617.019531 0.00390625 L 718.386719 86.328125 L 633.515625 185.988281 L 532.148438 99.664062 Z M 617.019531 0.00390625 " clip-rule="nonzero"/></clipPath><clipPath id="17812c4541"><path d="M 592 67 L 605 67 L 605 74 L 592 74 Z M 592 67 " clip-rule="nonzero"/></clipPath><clipPath id="99462b621e"><path d="M 617.019531 0.00390625 L 718.386719 86.328125 L 633.515625 185.988281 L 532.148438 99.664062 Z M 617.019531 0.00390625 " clip-rule="nonzero"/></clipPath><clipPath id="ffcd19ca90"><path d="M 617.019531 0.00390625 L 718.386719 86.328125 L 633.515625 185.988281 L 532.148438 99.664062 Z M 617.019531 0.00390625 " clip-rule="nonzero"/></clipPath><clipPath id="5ed2bdee56"><path d="M 617.019531 0.00390625 L 718.386719 86.328125 L 633.515625 185.988281 L 532.148438 99.664062 Z M 617.019531 0.00390625 " clip-rule="nonzero"/></clipPath><clipPath id="c4a3f4fe8e"><path d="M 606 73 L 615 73 L 615 80 L 606 80 Z M 606 73 " clip-rule="nonzero"/></clipPath><clipPath id="affb2fed6c"><path d="M 617.019531 0.00390625 L 718.386719 86.328125 L 633.515625 185.988281 L 532.148438 99.664062 Z M 617.019531 0.00390625 " clip-rule="nonzero"/></clipPath><clipPath id="c00c199291"><path d="M 617.019531 0.00390625 L 718.386719 86.328125 L 633.515625 185.988281 L 532.148438 99.664062 Z M 617.019531 0.00390625 " clip-rule="nonzero"/></clipPath><clipPath id="d68bfd94ec"><path d="M 617.019531 0.00390625 L 718.386719 86.328125 L 633.515625 185.988281 L 532.148438 99.664062 Z M 617.019531 0.00390625 " clip-rule="nonzero"/></clipPath><clipPath id="810199ca57"><path d="M 589 57 L 601 57 L 601 67 L 589 67 Z M 589 57 " clip-rule="nonzero"/></clipPath><clipPath id="b2ae902703"><path d="M 617.019531 0.00390625 L 718.386719 86.328125 L 633.515625 185.988281 L 532.148438 99.664062 Z M 617.019531 0.00390625 " clip-rule="nonzero"/></clipPath><clipPath id="d109fc0114"><path d="M 617.019531 0.00390625 L 718.386719 86.328125 L 633.515625 185.988281 L 532.148438 99.664062 Z M 617.019531 0.00390625 " clip-rule="nonzero"/></clipPath><clipPath id="ac0f804418"><path d="M 617.019531 0.00390625 L 718.386719 86.328125 L 633.515625 185.988281 L 532.148438 99.664062 Z M 617.019531 0.00390625 " clip-rule="nonzero"/></clipPath><clipPath id="b72b92f263"><path d="M 582 69 L 595 69 L 595 76 L 582 76 Z M 582 69 " clip-rule="nonzero"/></clipPath><clipPath id="51fe72715c"><path d="M 617.019531 0.00390625 L 718.386719 86.328125 L 633.515625 185.988281 L 532.148438 99.664062 Z M 617.019531 0.00390625 " clip-rule="nonzero"/></clipPath><clipPath id="686b0e84e1"><path d="M 617.019531 0.00390625 L 718.386719 86.328125 L 633.515625 185.988281 L 532.148438 99.664062 Z M 617.019531 0.00390625 " clip-rule="nonzero"/></clipPath><clipPath id="4b130d0460"><path d="M 617.019531 0.00390625 L 718.386719 86.328125 L 633.515625 185.988281 L 532.148438 99.664062 Z M 617.019531 0.00390625 " clip-rule="nonzero"/></clipPath></defs><g clip-path="url(#84ee1f9075)"><path fill="#ffffff" d="M 0.476562 0 L 1436.644531 0 L 1436.644531 194.480469 L 0.476562 194.480469 Z M 0.476562 0 " fill-opacity="1" fill-rule="nonzero"/><path fill="#cb6ce6" d="M 0.476562 0 L 1436.644531 0 L 1436.644531 194.480469 L 0.476562 194.480469 Z M 0.476562 0 " fill-opacity="1" fill-rule="nonzero"/></g><g clip-path="url(#0f630e30ad)"><g clip-path="url(#0093cd1562)"><g clip-path="url(#f776fa3b82)"><g clip-path="url(#3dc172ecbf)"><path fill="#f2c91d" d="M 651.074219 32.1875 C 658.148438 35.664062 664.699219 40.636719 670.40625 46.761719 C 677.339844 54.199219 683.207031 62.734375 686.917969 72.210938 C 698.574219 101.996094 676.046875 136.023438 649.773438 149.707031 C 645.71875 151.800781 639.9375 154.601562 631.871094 155.347656 C 601.605469 158.117188 566.339844 128.757812 563.945312 94.089844 C 562.660156 75.492188 571.257812 61.550781 574.164062 56.984375 C 575.203125 55.351562 593.425781 27.695312 624.578125 26.675781 C 637.660156 26.25 647.917969 30.636719 651.074219 32.1875 Z M 651.074219 32.1875 " fill-opacity="1" fill-rule="nonzero"/></g></g></g></g><g clip-path="url(#e3ca756a35)"><g clip-path="url(#9ceb8b982e)"><g clip-path="url(#2130aa44cd)"><g clip-path="url(#e56f568600)"><path fill="#f0efeb" d="M 683.796875 85.203125 C 682.664062 72.828125 676.707031 61.34375 667.570312 53.011719 C 654.015625 40.65625 638.636719 30.96875 619.503906 33.101562 C 597.675781 35.539062 580.96875 52.765625 574.027344 69.65625 C 571.136719 76.671875 569.710938 83.96875 569.75 91.546875 C 569.921875 107.71875 577.625 122.382812 589.464844 133.277344 C 601.332031 144.207031 617.269531 151.539062 633.625 148.808594 C 661.320312 144.1875 686.375 113.273438 683.796875 85.203125 Z M 683.796875 85.203125 " fill-opacity="1" fill-rule="nonzero"/></g></g></g></g><g clip-path="url(#f7e495df9a)"><g clip-path="url(#3f6647d67f)"><g clip-path="url(#dae7fe5cee)"><g clip-path="url(#c81a344c73)"><path fill="#f2ad11" d="M 627.535156 41.511719 C 627.535156 41.191406 627.507812 40.875 627.449219 40.558594 C 627.386719 40.246094 627.296875 39.9375 627.175781 39.640625 C 627.054688 39.34375 626.90625 39.0625 626.726562 38.796875 C 626.550781 38.53125 626.347656 38.28125 626.121094 38.054688 C 625.894531 37.828125 625.648438 37.625 625.382812 37.449219 C 625.117188 37.269531 624.835938 37.121094 624.539062 37 C 624.242188 36.875 623.9375 36.785156 623.621094 36.722656 C 623.308594 36.664062 622.992188 36.632812 622.671875 36.632812 C 617.398438 36.644531 612.132812 37.589844 607.089844 39.6875 C 603.425781 41.234375 600.015625 43.222656 596.863281 45.652344 C 596.589844 45.863281 596.34375 46.09375 596.121094 46.355469 C 595.894531 46.613281 595.703125 46.894531 595.539062 47.195312 C 595.375 47.5 595.242188 47.8125 595.144531 48.140625 C 595.046875 48.472656 594.984375 48.804688 594.960938 49.148438 C 594.933594 49.488281 594.945312 49.832031 594.988281 50.167969 C 595.035156 50.507812 595.117188 50.839844 595.234375 51.164062 C 595.351562 51.484375 595.5 51.789062 595.679688 52.082031 C 595.863281 52.371094 596.074219 52.640625 596.3125 52.886719 C 604.320312 61.117188 621.773438 79.015625 624.449219 81.402344 C 625.027344 81.914062 625.863281 82.550781 626.476562 82.296875 C 627.375 81.921875 627.308594 79.867188 627.296875 79.242188 C 627.21875 75.960938 627.335938 61.644531 627.535156 41.511719 Z M 627.535156 41.511719 " fill-opacity="1" fill-rule="nonzero"/></g></g></g></g><g clip-path="url(#76cd093f65)"><g clip-path="url(#71cf5ae595)"><g clip-path="url(#54c6c11e97)"><g clip-path="url(#72818b1b6a)"><path fill="#f2ad11" d="M 621.421875 92.136719 C 619.097656 92.835938 603.742188 97.15625 581.773438 103.3125 C 581.296875 103.445312 580.84375 103.628906 580.410156 103.863281 C 579.980469 104.097656 579.578125 104.375 579.207031 104.699219 C 578.835938 105.019531 578.503906 105.378906 578.210938 105.777344 C 577.921875 106.175781 577.675781 106.597656 577.480469 107.050781 C 577.285156 107.5 577.140625 107.96875 577.046875 108.449219 C 576.953125 108.933594 576.914062 109.421875 576.929688 109.910156 C 576.945312 110.402344 577.015625 110.886719 577.136719 111.363281 C 577.261719 111.839844 577.433594 112.296875 577.660156 112.730469 C 580.503906 118.25 584.242188 123.074219 588.867188 127.214844 C 589.207031 127.519531 589.574219 127.785156 589.96875 128.015625 C 590.363281 128.246094 590.777344 128.433594 591.210938 128.574219 C 591.644531 128.71875 592.085938 128.816406 592.539062 128.871094 C 592.992188 128.921875 593.449219 128.925781 593.902344 128.882812 C 594.359375 128.84375 594.804688 128.753906 595.242188 128.621094 C 595.679688 128.488281 596.097656 128.308594 596.496094 128.089844 C 596.898438 127.867188 597.269531 127.609375 597.617188 127.3125 C 597.964844 127.011719 598.277344 126.683594 598.558594 126.320312 C 606.960938 115.375 621.503906 96.367188 623.0625 93.929688 C 623.292969 93.566406 623.945312 92.546875 623.601562 92.082031 C 623.230469 91.578125 621.84375 92.007812 621.421875 92.136719 Z M 621.421875 92.136719 " fill-opacity="1" fill-rule="nonzero"/></g></g></g></g><g clip-path="url(#efd818b679)"><g clip-path="url(#50640dfed8)"><g clip-path="url(#f98f19c1d3)"><g clip-path="url(#a57291f0d7)"><path fill="#f2ad11" d="M 620.515625 87.359375 C 617.5 86.125 594.605469 81.414062 579.738281 78.410156 C 579.445312 78.351562 579.148438 78.320312 578.851562 78.320312 C 578.550781 78.320312 578.253906 78.347656 577.957031 78.402344 C 577.664062 78.457031 577.378906 78.542969 577.101562 78.65625 C 576.820312 78.769531 576.558594 78.90625 576.304688 79.070312 C 576.054688 79.234375 575.820312 79.421875 575.605469 79.632812 C 575.390625 79.839844 575.199219 80.070312 575.03125 80.316406 C 574.859375 80.5625 574.714844 80.824219 574.59375 81.097656 C 574.476562 81.375 574.382812 81.660156 574.320312 81.953125 C 573.246094 86.800781 572.855469 91.703125 573.140625 96.660156 C 573.160156 97.003906 573.21875 97.335938 573.316406 97.664062 C 573.414062 97.992188 573.542969 98.308594 573.710938 98.605469 C 573.878906 98.902344 574.074219 99.179688 574.300781 99.433594 C 574.53125 99.691406 574.785156 99.917969 575.0625 100.113281 C 575.339844 100.3125 575.636719 100.476562 575.953125 100.609375 C 576.269531 100.742188 576.59375 100.835938 576.933594 100.894531 C 577.269531 100.953125 577.609375 100.976562 577.949219 100.957031 C 578.292969 100.941406 578.628906 100.886719 578.957031 100.796875 C 601.761719 94.46875 616.972656 90.3125 619.816406 89.703125 C 620.289062 89.597656 622.089844 89.230469 622.132812 88.582031 C 622.171875 88.035156 620.957031 87.539062 620.515625 87.359375 Z M 620.515625 87.359375 " fill-opacity="1" fill-rule="nonzero"/></g></g></g></g><g clip-path="url(#6bc33ced40)"><g clip-path="url(#e54c06b3dd)"><g clip-path="url(#7aeb4b8534)"><g clip-path="url(#5451f258a7)"><path fill="#f2ad11" d="M 659.875 60.097656 C 660.207031 59.839844 660.503906 59.550781 660.773438 59.226562 C 661.039062 58.902344 661.269531 58.554688 661.460938 58.179688 C 661.648438 57.804688 661.796875 57.417969 661.902344 57.007812 C 662.003906 56.601562 662.0625 56.191406 662.074219 55.769531 C 662.085938 55.351562 662.050781 54.9375 661.972656 54.523438 C 661.890625 54.113281 661.769531 53.714844 661.597656 53.332031 C 661.429688 52.945312 661.222656 52.585938 660.972656 52.25 C 660.722656 51.914062 660.441406 51.605469 660.125 51.332031 C 657.046875 48.691406 653.742188 46.375 650.207031 44.382812 C 646.28125 42.15625 642.164062 40.367188 637.855469 39.019531 C 637.441406 38.894531 637.015625 38.816406 636.582031 38.789062 C 636.148438 38.757812 635.71875 38.78125 635.289062 38.851562 C 634.859375 38.921875 634.441406 39.039062 634.039062 39.207031 C 633.636719 39.371094 633.261719 39.582031 632.90625 39.832031 C 632.550781 40.085938 632.230469 40.375 631.941406 40.703125 C 631.65625 41.027344 631.40625 41.382812 631.199219 41.765625 C 630.996094 42.152344 630.835938 42.550781 630.71875 42.972656 C 630.605469 43.390625 630.539062 43.820312 630.523438 44.253906 C 630.09375 55.496094 629.679688 63.933594 629.320312 70.328125 C 629.097656 74.324219 628.648438 82.019531 630.976562 82.734375 C 632.035156 83.058594 633.28125 81.824219 633.726562 81.390625 C 637.242188 77.957031 646.445312 70.542969 659.875 60.097656 Z M 659.875 60.097656 " fill-opacity="1" fill-rule="nonzero"/></g></g></g></g><g clip-path="url(#7711172d28)"><g clip-path="url(#7ceb04879c)"><g clip-path="url(#27ec2a50f6)"><g clip-path="url(#b17874728f)"><path fill="#f2ad11" d="M 622.3125 83.101562 C 614.121094 73.308594 599.722656 59.921875 599.722656 59.921875 C 593.429688 54.070312 591.683594 51.457031 588.894531 52.015625 C 586.925781 52.40625 585.054688 55.5 581.382812 61.667969 C 576.585938 69.738281 576.695312 71.179688 577.082031 72.15625 C 577.664062 73.625 579.09375 74.589844 585.910156 76.703125 C 591.695312 78.496094 594.164062 78.886719 598.390625 80.011719 C 598.390625 80.011719 612.128906 83.667969 621.511719 84.84375 C 621.90625 84.894531 622.75 84.980469 622.96875 84.597656 C 623.203125 84.1875 622.589844 83.433594 622.3125 83.101562 Z M 622.3125 83.101562 " fill-opacity="1" fill-rule="nonzero"/></g></g></g></g><g clip-path="url(#4fffeb8236)"><g clip-path="url(#9e3b0b6a57)"><g clip-path="url(#703bccf2bd)"><g clip-path="url(#3f041ba052)"><path fill="#f2ad11" d="M 630.4375 96.179688 C 630.3125 102.015625 630.21875 107.902344 630.160156 113.84375 C 630.082031 121.675781 630.0625 129.417969 630.105469 137.070312 C 630.109375 137.507812 630.15625 137.941406 630.253906 138.371094 C 630.351562 138.796875 630.496094 139.207031 630.683594 139.605469 C 630.871094 140 631.097656 140.371094 631.367188 140.714844 C 631.636719 141.0625 631.941406 141.375 632.277344 141.652344 C 632.617188 141.929688 632.980469 142.167969 633.371094 142.367188 C 633.761719 142.566406 634.167969 142.71875 634.59375 142.828125 C 635.015625 142.9375 635.449219 142.996094 635.886719 143.011719 C 636.324219 143.027344 636.757812 142.992188 637.191406 142.910156 C 639.578125 142.464844 641.921875 141.839844 644.214844 141.027344 C 648.675781 139.410156 652.785156 137.148438 656.542969 134.246094 C 656.855469 134.003906 657.140625 133.734375 657.398438 133.4375 C 657.660156 133.136719 657.886719 132.816406 658.082031 132.472656 C 658.273438 132.132812 658.433594 131.773438 658.558594 131.398438 C 658.683594 131.023438 658.769531 130.640625 658.816406 130.246094 C 658.867188 129.855469 658.875 129.464844 658.847656 129.070312 C 658.816406 128.675781 658.75 128.289062 658.644531 127.910156 C 658.539062 127.53125 658.394531 127.164062 658.21875 126.8125 C 658.039062 126.460938 657.828125 126.132812 657.585938 125.820312 C 649.765625 115.855469 634.769531 96.78125 632.699219 94.570312 C 632.414062 94.265625 631.628906 93.429688 631.070312 93.636719 C 630.429688 93.867188 630.402344 95.328125 630.4375 96.179688 Z M 630.4375 96.179688 " fill-opacity="1" fill-rule="nonzero"/></g></g></g></g><g clip-path="url(#1cd04b7cf1)"><g clip-path="url(#71398654fc)"><g clip-path="url(#db07e07266)"><g clip-path="url(#e3f7c1fa00)"><path fill="#f2ad11" d="M 627.882812 95.976562 C 627.875 95.382812 627.835938 94.109375 627.226562 93.886719 C 626.476562 93.601562 625.238281 95.109375 624.601562 95.925781 C 621.765625 99.546875 607.820312 118.710938 600.792969 128.371094 C 600.542969 128.71875 600.328125 129.085938 600.15625 129.476562 C 599.980469 129.867188 599.847656 130.269531 599.753906 130.6875 C 599.664062 131.105469 599.617188 131.527344 599.613281 131.957031 C 599.609375 132.382812 599.648438 132.804688 599.734375 133.226562 C 599.816406 133.644531 599.945312 134.050781 600.113281 134.441406 C 600.28125 134.835938 600.488281 135.207031 600.734375 135.554688 C 600.976562 135.90625 601.257812 136.226562 601.570312 136.515625 C 601.878906 136.808594 602.21875 137.0625 602.585938 137.285156 L 602.652344 137.324219 C 605.085938 138.789062 607.636719 140.011719 610.304688 140.996094 C 613.488281 142.164062 616.765625 142.976562 620.128906 143.429688 C 620.558594 143.488281 620.992188 143.496094 621.425781 143.464844 C 621.859375 143.429688 622.28125 143.347656 622.699219 143.222656 C 623.117188 143.097656 623.515625 142.933594 623.894531 142.722656 C 624.277344 142.515625 624.632812 142.269531 624.964844 141.984375 C 625.292969 141.699219 625.589844 141.386719 625.851562 141.039062 C 626.117188 140.691406 626.339844 140.324219 626.523438 139.929688 C 626.710938 139.535156 626.851562 139.128906 626.949219 138.703125 C 627.050781 138.28125 627.105469 137.851562 627.113281 137.417969 C 627.378906 125.109375 627.929688 99.699219 627.882812 95.976562 Z M 627.882812 95.976562 " fill-opacity="1" fill-rule="nonzero"/></g></g></g></g><g clip-path="url(#ce37e678dd)"><g clip-path="url(#de5cb13091)"><g clip-path="url(#f5b1e0cda9)"><g clip-path="url(#dcccee58e0)"><path fill="#f2ad11" d="M 636.148438 93.769531 L 659.019531 122.546875 C 659.28125 122.878906 659.578125 123.171875 659.910156 123.433594 C 660.242188 123.695312 660.601562 123.914062 660.984375 124.089844 C 661.367188 124.265625 661.765625 124.394531 662.183594 124.476562 C 662.597656 124.558594 663.015625 124.59375 663.4375 124.578125 C 663.859375 124.5625 664.273438 124.496094 664.679688 124.382812 C 665.089844 124.269531 665.476562 124.109375 665.847656 123.90625 C 666.21875 123.699219 666.558594 123.453125 666.871094 123.167969 C 667.183594 122.882812 667.457031 122.566406 667.695312 122.21875 C 671.90625 115.992188 674.425781 109.667969 675.867188 105.109375 C 675.976562 104.757812 676.050781 104.398438 676.085938 104.03125 C 676.121094 103.664062 676.121094 103.296875 676.082031 102.929688 C 676.042969 102.5625 675.96875 102.203125 675.855469 101.851562 C 675.742188 101.5 675.597656 101.164062 675.414062 100.84375 C 675.234375 100.523438 675.023438 100.226562 674.777344 99.949219 C 674.535156 99.671875 674.265625 99.421875 673.972656 99.199219 C 673.679688 98.976562 673.367188 98.789062 673.03125 98.628906 C 672.699219 98.472656 672.351562 98.351562 671.996094 98.265625 C 652.453125 93.53125 638.507812 90.183594 635.957031 89.585938 C 635.535156 89.488281 634.558594 89.273438 634.21875 89.722656 C 633.6875 90.410156 634.988281 92.304688 636.148438 93.769531 Z M 636.148438 93.769531 " fill-opacity="1" fill-rule="nonzero"/></g></g></g></g><g clip-path="url(#14ecc3d043)"><g clip-path="url(#4c25b7630f)"><g clip-path="url(#a74ae3ddd6)"><g clip-path="url(#b575c93a93)"><path fill="#f2ad11" d="M 671.894531 95.222656 C 672.28125 95.296875 672.671875 95.332031 673.0625 95.320312 C 673.457031 95.308594 673.84375 95.253906 674.222656 95.15625 C 674.605469 95.058594 674.972656 94.921875 675.320312 94.742188 C 675.671875 94.5625 676 94.347656 676.300781 94.097656 C 676.605469 93.847656 676.875 93.566406 677.117188 93.253906 C 677.355469 92.945312 677.558594 92.609375 677.726562 92.253906 C 677.894531 91.898438 678.019531 91.527344 678.101562 91.144531 C 678.1875 90.757812 678.226562 90.371094 678.226562 89.976562 C 678.234375 85.875 677.761719 81.832031 676.800781 77.847656 C 675.5 72.5625 673.371094 67.632812 670.414062 63.0625 C 670.214844 62.761719 669.992188 62.480469 669.738281 62.226562 C 669.480469 61.96875 669.203125 61.738281 668.902344 61.539062 C 668.601562 61.339844 668.285156 61.175781 667.949219 61.039062 C 667.613281 60.90625 667.269531 60.808594 666.910156 60.742188 C 666.554688 60.679688 666.199219 60.652344 665.835938 60.664062 C 665.476562 60.675781 665.117188 60.722656 664.765625 60.804688 C 664.414062 60.886719 664.074219 61.007812 663.746094 61.160156 C 663.417969 61.3125 663.109375 61.496094 662.820312 61.714844 C 653.953125 68.3125 636.40625 81.484375 634.710938 83.664062 C 634.546875 83.871094 634.113281 84.433594 634.183594 85.105469 C 634.34375 86.625 636.953125 87.5 637.898438 87.816406 C 642.300781 89.296875 661.769531 93.222656 671.894531 95.222656 Z M 671.894531 95.222656 " fill-opacity="1" fill-rule="nonzero"/></g></g></g></g><g clip-path="url(#fc0aea932f)"><g clip-path="url(#f7c7d7ca46)"><g clip-path="url(#ae700b939c)"><g clip-path="url(#071588e315)"><path fill="#f2c91d" d="M 605.980469 51.800781 C 606.292969 52.089844 606.597656 52.382812 606.886719 52.683594 C 607.175781 52.984375 607.449219 53.285156 607.703125 53.589844 C 607.957031 53.894531 608.191406 54.191406 608.402344 54.484375 C 608.613281 54.777344 608.796875 55.058594 608.957031 55.332031 C 609.113281 55.605469 609.242188 55.863281 609.34375 56.101562 C 609.441406 56.34375 609.507812 56.566406 609.546875 56.765625 C 609.582031 56.964844 609.589844 57.144531 609.5625 57.296875 C 609.535156 57.449219 609.476562 57.574219 609.386719 57.671875 C 609.296875 57.769531 609.175781 57.839844 609.027344 57.878906 C 608.878906 57.917969 608.703125 57.929688 608.5 57.910156 C 608.296875 57.890625 608.070312 57.84375 607.820312 57.765625 C 607.570312 57.6875 607.304688 57.582031 607.019531 57.449219 C 606.734375 57.3125 606.4375 57.15625 606.125 56.96875 C 605.816406 56.785156 605.496094 56.582031 605.171875 56.351562 C 604.847656 56.125 604.523438 55.878906 604.199219 55.617188 C 603.875 55.355469 603.554688 55.078125 603.242188 54.792969 C 602.929688 54.503906 602.625 54.210938 602.335938 53.910156 C 602.046875 53.609375 601.773438 53.308594 601.519531 53.003906 C 601.265625 52.703125 601.03125 52.402344 600.820312 52.109375 C 600.609375 51.816406 600.425781 51.535156 600.265625 51.261719 C 600.109375 50.988281 599.980469 50.734375 599.878906 50.492188 C 599.78125 50.25 599.714844 50.03125 599.675781 49.828125 C 599.640625 49.628906 599.632812 49.453125 599.660156 49.300781 C 599.6875 49.148438 599.746094 49.023438 599.835938 48.921875 C 599.925781 48.824219 600.046875 48.757812 600.195312 48.714844 C 600.34375 48.675781 600.519531 48.664062 600.722656 48.683594 C 600.925781 48.703125 601.152344 48.753906 601.402344 48.832031 C 601.652344 48.90625 601.917969 49.015625 602.203125 49.148438 C 602.488281 49.28125 602.785156 49.441406 603.097656 49.625 C 603.40625 49.808594 603.726562 50.015625 604.050781 50.242188 C 604.375 50.46875 604.699219 50.714844 605.023438 50.976562 C 605.347656 51.242188 605.667969 51.515625 605.980469 51.800781 Z M 605.980469 51.800781 " fill-opacity="1" fill-rule="nonzero"/></g></g></g></g><g clip-path="url(#914fa1f0b4)"><g clip-path="url(#7fd5b857aa)"><g clip-path="url(#be528139ab)"><g clip-path="url(#cc686f5096)"><path fill="#f2c91d" d="M 616.015625 52.09375 C 617.441406 55.375 617.765625 58.398438 616.742188 58.84375 C 615.71875 59.285156 613.726562 56.992188 612.300781 53.710938 C 610.878906 50.429688 610.554688 47.40625 611.578125 46.960938 C 612.601562 46.519531 614.589844 48.8125 616.015625 52.09375 Z M 616.015625 52.09375 " fill-opacity="1" fill-rule="nonzero"/></g></g></g></g><g clip-path="url(#cc50084f5d)"><g clip-path="url(#36426ce65f)"><g clip-path="url(#c0db41a463)"><g clip-path="url(#57ff74fd9c)"><path fill="#f2c91d" d="M 619.699219 68.5 C 621.507812 70.632812 622.429688 72.816406 621.765625 73.382812 C 621.097656 73.949219 619.089844 72.675781 617.285156 70.550781 C 615.484375 68.425781 614.554688 66.238281 615.222656 65.671875 C 615.890625 65.105469 617.890625 66.371094 619.699219 68.5 Z M 619.699219 68.5 " fill-opacity="1" fill-rule="nonzero"/></g></g></g></g><g clip-path="url(#b02e890213)"><g clip-path="url(#e16789cb3c)"><g clip-path="url(#c3dbaef0a1)"><g clip-path="url(#e9a8e39150)"><path fill="#f2c91d" d="M 624.070312 61.992188 C 624.613281 64.734375 624.359375 67.09375 623.507812 67.269531 C 622.65625 67.449219 621.507812 65.363281 620.964844 62.613281 C 620.421875 59.863281 620.675781 57.511719 621.527344 57.332031 C 622.378906 57.15625 623.527344 59.25 624.070312 61.992188 Z M 624.070312 61.992188 " fill-opacity="1" fill-rule="nonzero"/></g></g></g></g><g clip-path="url(#c3890bd12e)"><g clip-path="url(#70022fec21)"><g clip-path="url(#db2c1469b9)"><g clip-path="url(#15d3681735)"><path fill="#f2c91d" d="M 622.875 45.535156 C 623.40625 49.074219 622.941406 52.082031 621.832031 52.246094 C 620.726562 52.414062 619.402344 49.683594 618.871094 46.140625 C 618.339844 42.601562 618.808594 39.597656 619.914062 39.429688 C 621.019531 39.261719 622.355469 41.996094 622.875 45.535156 Z M 622.875 45.535156 " fill-opacity="1" fill-rule="nonzero"/></g></g></g></g><g clip-path="url(#13224e5eeb)"><g clip-path="url(#e4d592777a)"><g clip-path="url(#2558e6ad59)"><g clip-path="url(#f09f750b41)"><path fill="#f2c91d" d="M 637.003906 51.921875 C 637 52.347656 636.984375 52.769531 636.957031 53.183594 C 636.925781 53.601562 636.886719 54.007812 636.832031 54.402344 C 636.777344 54.792969 636.714844 55.167969 636.636719 55.519531 C 636.5625 55.875 636.472656 56.199219 636.378906 56.5 C 636.28125 56.800781 636.179688 57.070312 636.066406 57.304688 C 635.953125 57.542969 635.835938 57.742188 635.710938 57.902344 C 635.585938 58.066406 635.460938 58.1875 635.328125 58.269531 C 635.199219 58.351562 635.066406 58.394531 634.933594 58.390625 C 634.800781 58.390625 634.667969 58.347656 634.539062 58.265625 C 634.410156 58.183594 634.28125 58.058594 634.160156 57.894531 C 634.039062 57.730469 633.925781 57.53125 633.816406 57.292969 C 633.707031 57.058594 633.605469 56.789062 633.515625 56.484375 C 633.421875 56.183594 633.339844 55.855469 633.269531 55.503906 C 633.199219 55.148438 633.136719 54.773438 633.089844 54.378906 C 633.042969 53.988281 633.007812 53.582031 632.984375 53.164062 C 632.960938 52.746094 632.949219 52.324219 632.953125 51.898438 C 632.957031 51.472656 632.972656 51.050781 633.003906 50.636719 C 633.03125 50.21875 633.074219 49.8125 633.125 49.417969 C 633.179688 49.027344 633.246094 48.652344 633.320312 48.300781 C 633.398438 47.945312 633.484375 47.621094 633.582031 47.320312 C 633.675781 47.019531 633.78125 46.75 633.894531 46.515625 C 634.003906 46.277344 634.125 46.078125 634.246094 45.917969 C 634.371094 45.753906 634.5 45.632812 634.628906 45.550781 C 634.761719 45.46875 634.894531 45.425781 635.027344 45.429688 C 635.160156 45.429688 635.289062 45.46875 635.421875 45.554688 C 635.550781 45.636719 635.675781 45.761719 635.796875 45.925781 C 635.917969 46.089844 636.035156 46.289062 636.144531 46.527344 C 636.253906 46.761719 636.351562 47.03125 636.445312 47.332031 C 636.535156 47.636719 636.617188 47.964844 636.6875 48.316406 C 636.761719 48.671875 636.820312 49.046875 636.867188 49.4375 C 636.917969 49.832031 636.953125 50.238281 636.972656 50.65625 C 636.996094 51.074219 637.007812 51.496094 637.003906 51.921875 Z M 637.003906 51.921875 " fill-opacity="1" fill-rule="nonzero"/></g></g></g></g><g clip-path="url(#68ca8a7a83)"><g clip-path="url(#3c3e78f70f)"><g clip-path="url(#8fae3afc5a)"><g clip-path="url(#a7902c1ef9)"><path fill="#f2c91d" d="M 635.289062 69.691406 C 635.074219 72.476562 634.195312 74.6875 633.324219 74.621094 C 632.453125 74.554688 631.921875 72.242188 632.140625 69.449219 C 632.359375 66.65625 633.230469 64.453125 634.101562 64.519531 C 634.972656 64.585938 635.5 66.902344 635.289062 69.691406 Z M 635.289062 69.691406 " fill-opacity="1" fill-rule="nonzero"/></g></g></g></g><g clip-path="url(#81affd5f05)"><g clip-path="url(#e72fef6ac6)"><g clip-path="url(#1f7c76f30a)"><g clip-path="url(#2d8bfbf5a0)"><path fill="#f2c91d" d="M 641.792969 67.835938 C 640.253906 70.171875 638.414062 71.675781 637.683594 71.199219 C 636.957031 70.71875 637.613281 68.4375 639.152344 66.097656 C 640.695312 63.761719 642.535156 62.257812 643.261719 62.738281 C 643.992188 63.21875 643.335938 65.5 641.792969 67.835938 Z M 641.792969 67.835938 " fill-opacity="1" fill-rule="nonzero"/></g></g></g></g><g clip-path="url(#6722825514)"><g clip-path="url(#e472ec639d)"><g clip-path="url(#288cd28802)"><g clip-path="url(#2cb149d7b0)"><path fill="#f2c91d" d="M 636.050781 106.453125 C 634.335938 104.25 633.503906 102.027344 634.191406 101.488281 C 634.878906 100.949219 636.832031 102.296875 638.546875 104.5 C 640.265625 106.703125 641.101562 108.925781 640.410156 109.464844 C 639.722656 110.003906 637.769531 108.652344 636.050781 106.453125 Z M 636.050781 106.453125 " fill-opacity="1" fill-rule="nonzero"/></g></g></g></g><g clip-path="url(#41d8a3b809)"><g clip-path="url(#aa3f4322f3)"><g clip-path="url(#213970203a)"><g clip-path="url(#94c8d329ca)"><path fill="#f2c91d" d="M 632.558594 112.679688 C 632.128906 109.921875 632.476562 107.574219 633.34375 107.4375 C 634.210938 107.296875 635.253906 109.425781 635.683594 112.1875 C 636.113281 114.949219 635.769531 117.296875 634.902344 117.433594 C 634.035156 117.574219 632.992188 115.441406 632.558594 112.679688 Z M 632.558594 112.679688 " fill-opacity="1" fill-rule="nonzero"/></g></g></g></g><g clip-path="url(#c38335cc15)"><g clip-path="url(#1c9a533cc9)"><g clip-path="url(#c4d4ffdd54)"><g clip-path="url(#cc8e80c6a1)"><path fill="#f2c91d" d="M 632.949219 127.648438 C 632.566406 124.089844 633.15625 121.105469 634.265625 120.984375 C 635.378906 120.863281 636.589844 123.648438 636.972656 127.207031 C 637.359375 130.765625 636.769531 133.75 635.65625 133.871094 C 634.542969 133.992188 633.332031 131.207031 632.949219 127.648438 Z M 632.949219 127.648438 " fill-opacity="1" fill-rule="nonzero"/></g></g></g></g><g clip-path="url(#7b6d90684f)"><g clip-path="url(#f9dc8d1ec3)"><g clip-path="url(#754af3a895)"><g clip-path="url(#0a375a473b)"><path fill="#f2c91d" d="M 620.453125 131.917969 C 620.03125 128.363281 620.589844 125.371094 621.703125 125.238281 C 622.8125 125.105469 624.054688 127.878906 624.476562 131.429688 C 624.898438 134.984375 624.339844 137.976562 623.226562 138.109375 C 622.117188 138.242188 620.878906 135.464844 620.453125 131.917969 Z M 620.453125 131.917969 " fill-opacity="1" fill-rule="nonzero"/></g></g></g></g><g clip-path="url(#fdc2d72dae)"><g clip-path="url(#4f4fb4946c)"><g clip-path="url(#300e79a503)"><g clip-path="url(#bf77866405)"><path fill="#f2c91d" d="M 615.683594 122.054688 C 616.742188 118.632812 618.46875 116.128906 619.535156 116.457031 C 620.605469 116.789062 620.613281 119.828125 619.550781 123.25 C 618.492188 126.671875 616.765625 129.175781 615.695312 128.847656 C 614.628906 128.519531 614.621094 125.476562 615.683594 122.054688 Z M 615.683594 122.054688 " fill-opacity="1" fill-rule="nonzero"/></g></g></g></g><g clip-path="url(#8e7635aa71)"><g clip-path="url(#e9f6de1bf0)"><g clip-path="url(#1f171d17d9)"><g clip-path="url(#d13155d815)"><path fill="#f2c91d" d="M 621.867188 109.632812 C 621.886719 106.835938 622.613281 104.570312 623.484375 104.578125 C 624.359375 104.582031 625.046875 106.847656 625.03125 109.648438 C 625.011719 112.449219 624.285156 114.707031 623.414062 114.703125 C 622.539062 114.699219 621.847656 112.425781 621.867188 109.632812 Z M 621.867188 109.632812 " fill-opacity="1" fill-rule="nonzero"/></g></g></g></g><g clip-path="url(#c0094bc3f2)"><g clip-path="url(#d2d26d9583)"><g clip-path="url(#1cf2a2ece3)"><g clip-path="url(#a32f55621a)"><path fill="#f2c91d" d="M 615.609375 111.050781 C 616.984375 108.613281 618.714844 106.984375 619.472656 107.414062 C 620.234375 107.84375 619.738281 110.164062 618.363281 112.597656 C 616.988281 115.035156 615.257812 116.664062 614.496094 116.234375 C 613.734375 115.808594 614.230469 113.476562 615.609375 111.050781 Z M 615.609375 111.050781 " fill-opacity="1" fill-rule="nonzero"/></g></g></g></g><g clip-path="url(#f9bd451db2)"><g clip-path="url(#9df8b616e7)"><g clip-path="url(#138e376cc0)"><g clip-path="url(#372751579e)"><path fill="#f2c91d" d="M 608.066406 131.96875 C 609.441406 129.53125 611.171875 127.902344 611.933594 128.332031 C 612.695312 128.761719 612.195312 131.082031 610.820312 133.515625 C 609.449219 135.953125 607.714844 137.582031 606.957031 137.152344 C 606.195312 136.726562 606.691406 134.402344 608.066406 131.96875 Z M 608.066406 131.96875 " fill-opacity="1" fill-rule="nonzero"/></g></g></g></g><g clip-path="url(#898b44b14d)"><g clip-path="url(#22511b4009)"><g clip-path="url(#5b9777d068)"><g clip-path="url(#cf81f5c56b)"><path fill="#f2c91d" d="M 604.695312 125.167969 C 606.601562 122.132812 608.914062 120.15625 609.863281 120.75 C 610.808594 121.34375 610.03125 124.285156 608.125 127.320312 C 606.214844 130.351562 603.90625 132.332031 602.957031 131.738281 C 602.011719 131.144531 602.792969 128.203125 604.695312 125.167969 Z M 604.695312 125.167969 " fill-opacity="1" fill-rule="nonzero"/></g></g></g></g><g clip-path="url(#1d121daf55)"><g clip-path="url(#540cb2b16c)"><g clip-path="url(#7cf1b18a22)"><g clip-path="url(#2fe8f7f8ac)"><path fill="#f2c91d" d="M 602.882812 118.609375 C 602.671875 118.980469 602.449219 119.339844 602.21875 119.691406 C 601.988281 120.039062 601.753906 120.371094 601.515625 120.6875 C 601.277344 121.003906 601.035156 121.296875 600.796875 121.570312 C 600.554688 121.839844 600.320312 122.082031 600.089844 122.296875 C 599.859375 122.511719 599.636719 122.695312 599.421875 122.847656 C 599.207031 122.996094 599.007812 123.113281 598.820312 123.191406 C 598.632812 123.273438 598.460938 123.316406 598.308594 123.324219 C 598.152344 123.332031 598.019531 123.300781 597.902344 123.238281 C 597.789062 123.171875 597.695312 123.070312 597.621094 122.933594 C 597.550781 122.796875 597.5 122.625 597.476562 122.425781 C 597.449219 122.222656 597.449219 121.992188 597.46875 121.730469 C 597.492188 121.46875 597.535156 121.1875 597.605469 120.878906 C 597.671875 120.570312 597.761719 120.242188 597.875 119.898438 C 597.984375 119.554688 598.117188 119.199219 598.269531 118.832031 C 598.421875 118.46875 598.589844 118.097656 598.773438 117.71875 C 598.957031 117.34375 599.15625 116.972656 599.367188 116.601562 C 599.578125 116.234375 599.800781 115.875 600.03125 115.523438 C 600.261719 115.175781 600.496094 114.839844 600.734375 114.523438 C 600.976562 114.207031 601.214844 113.914062 601.453125 113.644531 C 601.695312 113.375 601.929688 113.128906 602.160156 112.914062 C 602.394531 112.699219 602.617188 112.519531 602.828125 112.367188 C 603.042969 112.21875 603.242188 112.101562 603.429688 112.019531 C 603.617188 111.941406 603.789062 111.894531 603.945312 111.890625 C 604.097656 111.882812 604.234375 111.910156 604.347656 111.976562 C 604.464844 112.042969 604.558594 112.144531 604.628906 112.28125 C 604.699219 112.417969 604.75 112.585938 604.773438 112.789062 C 604.800781 112.992188 604.804688 113.222656 604.78125 113.484375 C 604.757812 113.742188 604.714844 114.027344 604.648438 114.335938 C 604.578125 114.644531 604.488281 114.96875 604.375 115.3125 C 604.265625 115.65625 604.132812 116.011719 603.980469 116.378906 C 603.832031 116.746094 603.664062 117.117188 603.476562 117.492188 C 603.292969 117.867188 603.09375 118.242188 602.882812 118.609375 Z M 602.882812 118.609375 " fill-opacity="1" fill-rule="nonzero"/></g></g></g></g><g clip-path="url(#7535ce1ec9)"><g clip-path="url(#8cdfaa0aa9)"><g clip-path="url(#64020feb1f)"><g clip-path="url(#3861b14dfd)"><path fill="#f2c91d" d="M 599.367188 106.589844 C 602.253906 104.472656 605.132812 103.484375 605.792969 104.386719 C 606.453125 105.289062 604.65625 107.742188 601.757812 109.863281 C 598.859375 111.980469 595.992188 112.960938 595.335938 112.058594 C 594.675781 111.15625 596.480469 108.710938 599.367188 106.589844 Z M 599.367188 106.589844 " fill-opacity="1" fill-rule="nonzero"/></g></g></g></g><g clip-path="url(#0e179f0970)"><g clip-path="url(#082637378b)"><g clip-path="url(#d551ae754e)"><g clip-path="url(#7b22551295)"><path fill="#f2c91d" d="M 611.820312 100.914062 C 613.503906 98.679688 615.429688 97.289062 616.128906 97.8125 C 616.824219 98.339844 616.027344 100.574219 614.347656 102.8125 C 612.664062 105.046875 610.734375 106.4375 610.035156 105.910156 C 609.339844 105.386719 610.132812 103.15625 611.820312 100.914062 Z M 611.820312 100.914062 " fill-opacity="1" fill-rule="nonzero"/></g></g></g></g><g clip-path="url(#174af7dc5b)"><g clip-path="url(#a2d7b025c2)"><g clip-path="url(#00a53458cd)"><g clip-path="url(#4f1f0492c6)"><path fill="#f2c91d" d="M 590.949219 120.429688 C 592.632812 118.195312 594.558594 116.804688 595.257812 117.328125 C 595.957031 117.855469 595.15625 120.089844 593.472656 122.328125 C 591.792969 124.566406 589.863281 125.953125 589.164062 125.417969 C 588.464844 124.886719 589.269531 122.660156 590.949219 120.429688 Z M 590.949219 120.429688 " fill-opacity="1" fill-rule="nonzero"/></g></g></g></g><g clip-path="url(#5b0fcb3a5e)"><g clip-path="url(#0a57c3a348)"><g clip-path="url(#fe00b4760e)"><g clip-path="url(#80c8bcfe24)"><path fill="#f2c91d" d="M 604.511719 98.097656 C 607.066406 96.960938 609.429688 96.6875 609.78125 97.480469 C 610.128906 98.273438 608.351562 99.847656 605.796875 100.988281 C 603.242188 102.128906 600.878906 102.398438 600.53125 101.605469 C 600.179688 100.8125 601.957031 99.238281 604.511719 98.097656 Z M 604.511719 98.097656 " fill-opacity="1" fill-rule="nonzero"/></g></g></g></g><g clip-path="url(#d28b5fc7b0)"><g clip-path="url(#d288fa3ffc)"><g clip-path="url(#a2df9ffbd3)"><g clip-path="url(#804b45e823)"><path fill="#f2c91d" d="M 585.765625 110.539062 C 588.324219 109.402344 590.683594 109.128906 591.035156 109.921875 C 591.386719 110.714844 589.605469 112.289062 587.050781 113.429688 C 584.496094 114.566406 582.132812 114.839844 581.78125 114.046875 C 581.433594 113.253906 583.210938 111.679688 585.765625 110.539062 Z M 585.765625 110.539062 " fill-opacity="1" fill-rule="nonzero"/></g></g></g></g><g clip-path="url(#2d0fb7052b)"><g clip-path="url(#5f4bea1958)"><g clip-path="url(#708dd3abd9)"><g clip-path="url(#3350c8f183)"><path fill="#f2c91d" d="M 589.871094 102.816406 C 593.207031 101.515625 596.238281 101.304688 596.644531 102.34375 C 597.050781 103.386719 594.675781 105.289062 591.339844 106.589844 C 588.007812 107.886719 584.972656 108.101562 584.566406 107.0625 C 584.160156 106.019531 586.53125 104.125 589.871094 102.816406 Z M 589.871094 102.816406 " fill-opacity="1" fill-rule="nonzero"/></g></g></g></g><g clip-path="url(#739527a9ec)"><g clip-path="url(#c76116c524)"><g clip-path="url(#ab5031438c)"><g clip-path="url(#b888cf81f4)"><path fill="#f2c91d" d="M 593.519531 90.347656 C 597.0625 89.84375 600.0625 90.335938 600.214844 91.449219 C 600.363281 92.558594 597.621094 93.859375 594.078125 94.359375 C 590.53125 94.863281 587.53125 94.371094 587.382812 93.257812 C 587.230469 92.144531 589.972656 90.847656 593.519531 90.347656 Z M 593.519531 90.347656 " fill-opacity="1" fill-rule="nonzero"/></g></g></g></g><g clip-path="url(#5fe6508ce6)"><g clip-path="url(#6e3bc9a02b)"><g clip-path="url(#d11a4c4c0a)"><g clip-path="url(#d7e7fefcfb)"><path fill="#f2c91d" d="M 604.699219 85.832031 C 607.488281 86.039062 609.6875 86.90625 609.628906 87.78125 C 609.566406 88.660156 607.25 89.195312 604.464844 88.988281 C 601.675781 88.785156 599.476562 87.917969 599.535156 87.039062 C 599.59375 86.164062 601.914062 85.628906 604.699219 85.832031 Z M 604.699219 85.832031 " fill-opacity="1" fill-rule="nonzero"/></g></g></g></g><g clip-path="url(#d5b16edbcf)"><g clip-path="url(#68a124832c)"><g clip-path="url(#2384f159ad)"><g clip-path="url(#4e3f9ea9ba)"><path fill="#f2c91d" d="M 581.578125 88.269531 C 584.371094 88.238281 586.648438 88.914062 586.65625 89.789062 C 586.667969 90.660156 584.410156 91.398438 581.609375 91.433594 C 578.8125 91.464844 576.542969 90.789062 576.535156 89.914062 C 576.527344 89.039062 578.78125 88.304688 581.578125 88.269531 Z M 581.578125 88.269531 " fill-opacity="1" fill-rule="nonzero"/></g></g></g></g><g clip-path="url(#e2220ac787)"><g clip-path="url(#83e42ac2f7)"><g clip-path="url(#41806fe2d0)"><g clip-path="url(#7b683b7bc2)"><path fill="#f2c91d" d="M 585.984375 81.851562 C 589.535156 82.28125 592.304688 83.53125 592.167969 84.640625 C 592.03125 85.753906 589.042969 86.304688 585.488281 85.875 C 581.9375 85.445312 579.167969 84.195312 579.3125 83.085938 C 579.460938 81.976562 582.429688 81.421875 585.984375 81.851562 Z M 585.984375 81.851562 " fill-opacity="1" fill-rule="nonzero"/></g></g></g></g><g clip-path="url(#17812c4541)"><g clip-path="url(#99462b621e)"><g clip-path="url(#ffcd19ca90)"><g clip-path="url(#5ed2bdee56)"><path fill="#f2c91d" d="M 599.054688 68.699219 C 602.300781 70.203125 604.554688 72.253906 604.074219 73.261719 C 603.597656 74.273438 600.589844 73.882812 597.34375 72.378906 C 594.097656 70.878906 591.851562 68.832031 592.320312 67.816406 C 592.792969 66.800781 595.808594 67.195312 599.054688 68.699219 Z M 599.054688 68.699219 " fill-opacity="1" fill-rule="nonzero"/></g></g></g></g><g clip-path="url(#c4a3f4fe8e)"><g clip-path="url(#affb2fed6c)"><g clip-path="url(#c00c199291)"><g clip-path="url(#d68bfd94ec)"><path fill="#f2c91d" d="M 611.636719 75.351562 C 613.867188 77.03125 615.238281 78.96875 614.710938 79.667969 C 614.179688 80.363281 611.953125 79.566406 609.722656 77.875 C 607.492188 76.183594 606.121094 74.257812 606.648438 73.5625 C 607.175781 72.863281 609.414062 73.664062 611.636719 75.351562 Z M 611.636719 75.351562 " fill-opacity="1" fill-rule="nonzero"/></g></g></g></g><g clip-path="url(#810199ca57)"><g clip-path="url(#b2ae902703)"><g clip-path="url(#d109fc0114)"><g clip-path="url(#ac0f804418)"><path fill="#f2c91d" d="M 596.28125 60.113281 C 599.027344 62.40625 600.675781 64.964844 599.949219 65.816406 C 599.226562 66.667969 596.425781 65.515625 593.679688 63.222656 C 590.933594 60.933594 589.285156 58.375 590.011719 57.519531 C 590.738281 56.667969 593.535156 57.824219 596.28125 60.113281 Z M 596.28125 60.113281 " fill-opacity="1" fill-rule="nonzero"/></g></g></g></g><g clip-path="url(#b72b92f263)"><g clip-path="url(#51fe72715c)"><g clip-path="url(#686b0e84e1)"><g clip-path="url(#4b130d0460)"><path fill="#f2c91d" d="M 588.859375 70.96875 C 592.195312 72.253906 594.574219 74.144531 594.167969 75.191406 C 593.765625 76.234375 590.730469 76.035156 587.394531 74.746094 C 584.058594 73.457031 581.679688 71.570312 582.085938 70.523438 C 582.488281 69.480469 585.523438 69.679688 588.859375 70.96875 Z M 588.859375 70.96875 " fill-opacity="1" fill-rule="nonzero"/></g></g></g></g></svg>